<svg width="100%" height="300" viewBox="0 0 463 300" fill="none" xmlns="http://www.w3.org/2000/svg">
<g id="Biblioteca Digital">
<path id="Rectangle 246" d="M208.152 0.173584H0.12677V111.965H208.152V0.173584Z" fill="#F2F2F2"/>
<path id="Rectangle 264" d="M208.025 0H0V12.9597H208.025V0Z" fill="#E6E6E6"/>
<path id="Rectangle 247" d="M204.258 18.2144H4.83142V106.072H204.258V18.2144Z" fill="white"/>
<path id="Ellipse 194" d="M19.7127 8.59045C20.8695 8.59045 21.8073 7.63064 21.8073 6.44665C21.8073 5.26267 20.8695 4.30286 19.7127 4.30286C18.5558 4.30286 17.618 5.26267 17.618 6.44665C17.618 7.63064 18.5558 8.59045 19.7127 8.59045Z" fill="white"/>
<path id="Ellipse 195" d="M27.6636 8.59045C28.8204 8.59045 29.7582 7.63064 29.7582 6.44665C29.7582 5.26267 28.8204 4.30286 27.6636 4.30286C26.5068 4.30286 25.569 5.26267 25.569 6.44665C25.569 7.63064 26.5068 8.59045 27.6636 8.59045Z" fill="white"/>
<path id="Ellipse 246" d="M11.7412 8.59045C12.898 8.59045 13.8358 7.63064 13.8358 6.44665C13.8358 5.26267 12.898 4.30286 11.7412 4.30286C10.5843 4.30286 9.64655 5.26267 9.64655 6.44665C9.64655 7.63064 10.5843 8.59045 11.7412 8.59045Z" fill="white"/>
<g id="Group 31">
<path id="Rectangle 250" d="M164.228 43.9604H49.551V49.1914H164.228V43.9604Z" fill="#F2F2F2"/>
<path id="Rectangle 251" d="M90.4386 57.0376H49.551V62.2685H90.4386V57.0376Z" fill="#F2F2F2"/>
<path id="Rectangle 252" d="M131.007 70.1149H49.551V75.3458H131.007V70.1149Z" fill="#F2F2F2"/>
</g>
<path id="Rectangle 246_2" d="M242.992 146.583H47.2283V251.786H242.992V146.583Z" fill="#F2F2F2"/>
<path id="Rectangle 264_2" d="M242.873 146.421H47.1088V158.616H242.873V146.421Z" fill="#E6E6E6"/>
<path id="Rectangle 247_2" d="M239.328 162.857H51.3561V246.429H239.328V162.857Z" fill="white"/>
<path id="Ellipse 194_2" d="M65.6595 154.505C66.7482 154.505 67.6307 153.602 67.6307 152.487C67.6307 151.373 66.7482 150.47 65.6595 150.47C64.5709 150.47 63.6884 151.373 63.6884 152.487C63.6884 153.602 64.5709 154.505 65.6595 154.505Z" fill="white"/>
<path id="Ellipse 195_2" d="M73.1418 154.505C74.2305 154.505 75.113 153.602 75.113 152.487C75.113 151.373 74.2305 150.47 73.1418 150.47C72.0532 150.47 71.1707 151.373 71.1707 152.487C71.1707 153.602 72.0532 154.505 73.1418 154.505Z" fill="white"/>
<path id="Ellipse 246_2" d="M58.1579 154.505C59.2465 154.505 60.1291 153.602 60.1291 152.487C60.1291 151.373 59.2465 150.47 58.1579 150.47C57.0692 150.47 56.1867 151.373 56.1867 152.487C56.1867 153.602 57.0692 154.505 58.1579 154.505Z" fill="white"/>
<g id="biblioteca">
<path id="Rectangle 264_3" d="M373.536 45.9116H141.326V60.3781H373.536V45.9116Z" fill="#992211"/>
<path id="Rectangle 247_3" d="M368.092 64.8214H146.681V163.929H368.092V64.8214Z" fill="white"/>
<path id="Ellipse 194_3" d="M163.331 55.5009C164.622 55.5009 165.669 54.4295 165.669 53.1079C165.669 51.7862 164.622 50.7148 163.331 50.7148C162.039 50.7148 160.993 51.7862 160.993 53.1079C160.993 54.4295 162.039 55.5009 163.331 55.5009Z" fill="white"/>
<path id="Ellipse 195_3" d="M172.206 55.5009C173.497 55.5009 174.544 54.4295 174.544 53.1079C174.544 51.7862 173.497 50.7148 172.206 50.7148C170.915 50.7148 169.868 51.7862 169.868 53.1079C169.868 54.4295 170.915 55.5009 172.206 55.5009Z" fill="white"/>
<path id="Ellipse 246_3" d="M154.432 55.5009C155.724 55.5009 156.771 54.4295 156.771 53.1079C156.771 51.7862 155.724 50.7148 154.432 50.7148C153.141 50.7148 152.094 51.7862 152.094 53.1079C152.094 54.4295 153.141 55.5009 154.432 55.5009Z" fill="white"/>
<g id="Group 31_2">
<path id="Rectangle 250_2" d="M342.384 90.3405H172.62V98.0842H342.384V90.3405Z" fill="#E6E6E6"/>
<path id="Rectangle 251_2" d="M233.149 109.7H172.62V117.443H233.149V109.7Z" fill="#E6E6E6"/>
<path id="Rectangle 252_2" d="M293.205 129.059H172.62V136.802H293.205V129.059Z" fill="#E6E6E6"/>
</g>
</g>
<path id="Rectangle 250_3" d="M213.68 187.661H85.6708V193.501H213.68V187.661Z" fill="#F2F2F2"/>
<path id="Rectangle 251_3" d="M131.312 202.259H85.6708V208.098H131.312V202.259Z" fill="#F2F2F2"/>
<path id="Rectangle 252_3" d="M176.597 216.857H85.6708V222.696H176.597V216.857Z" fill="#F2F2F2"/>
<path id="Vector" d="M407.806 160.247C408.486 159.454 408.987 158.518 409.275 157.505C409.563 156.492 409.63 155.427 409.472 154.384C409.314 153.342 408.935 152.347 408.361 151.471C407.787 150.595 407.032 149.858 406.149 149.313L411.356 124.229L399.234 129.093L396.148 152.168C395.351 153.746 395.148 155.568 395.576 157.289C396.004 159.01 397.034 160.511 398.471 161.507C399.908 162.503 401.652 162.925 403.372 162.693C405.093 162.46 406.67 161.59 407.806 160.247Z" fill="#FFB8B8"/>
<path id="Vector_2" d="M349.144 290.976H340.548L336.458 257.042L349.145 257.042L349.144 290.976Z" fill="#FFB8B8"/>
<path id="Vector_3" d="M351.336 299.505L323.619 299.504V299.145C323.619 297.695 323.898 296.259 324.44 294.919C324.982 293.58 325.777 292.363 326.779 291.337C327.781 290.312 328.97 289.499 330.279 288.944C331.588 288.389 332.991 288.103 334.408 288.104H334.408L351.337 288.104L351.336 299.505Z" fill="#2F2E41"/>
<path id="Vector_4" d="M391.213 290.976H382.618L378.528 257.042L391.215 257.042L391.213 290.976Z" fill="#FFB8B8"/>
<path id="Vector_5" d="M393.406 299.505L365.689 299.504V299.145C365.689 297.695 365.968 296.259 366.51 294.919C367.052 293.58 367.847 292.363 368.848 291.337C369.85 290.312 371.04 289.499 372.348 288.944C373.657 288.389 375.06 288.103 376.477 288.104H376.478L393.406 288.104L393.406 299.505Z" fill="#2F2E41"/>
<path id="Vector_6" d="M350.04 273.257L337.871 272.759C337.041 272.722 336.258 272.353 335.692 271.731C335.126 271.109 334.821 270.284 334.844 269.434L338.272 154.344L338.496 154.261C359.822 146.365 377.465 146.962 392.433 156.084L392.601 156.186L394.654 268.279C394.662 268.708 394.587 269.134 394.432 269.533C394.277 269.932 394.045 270.295 393.752 270.602C393.458 270.908 393.108 271.151 392.721 271.317C392.334 271.483 391.919 271.569 391.5 271.569H381.239C380.508 271.568 379.8 271.307 379.236 270.832C378.671 270.357 378.285 269.696 378.143 268.963L364.165 196.19C364.117 195.939 363.982 195.713 363.786 195.554C363.59 195.395 363.345 195.312 363.094 195.322C362.844 195.331 362.605 195.432 362.421 195.605C362.237 195.779 362.119 196.014 362.089 196.269L353.298 270.42C353.201 271.202 352.83 271.921 352.253 272.443C351.677 272.966 350.934 273.256 350.164 273.259C350.123 273.259 350.081 273.259 350.04 273.257Z" fill="#2F2E41"/>
<path id="Vector_7" d="M370.138 51.2532C378.483 46.5841 381.55 35.8749 376.988 27.3336C372.426 18.7923 361.963 15.6533 353.617 20.3225C345.272 24.9916 342.205 35.7008 346.767 44.2421C351.329 52.7834 361.793 55.9224 370.138 51.2532Z" fill="#FFB8B8"/>
<g id="brazo-biblioteca">
<path id="Vector_8" d="M262.941 47.7938L252.027 53.9819L263.667 49.7808L262.941 47.7938Z" fill="white"/>
<path id="Vector_9" d="M267.86 53.8829C269.46 53.3512 269.908 50.2467 268.861 46.9488C267.814 43.6509 265.669 41.4084 264.07 41.9401C262.471 42.4718 262.023 45.5763 263.069 48.8742C264.116 52.1721 266.261 54.4145 267.86 53.8829Z" fill="#3F3D56"/>
<path id="Vector_10" d="M266.667 44.2859L273.906 41.6116L275.445 45.9734L268.439 50.8167L266.667 44.2859Z" fill="#3F3D56"/>
<path id="Vector_11" d="M272.104 46.4271C272.388 47.441 272.887 48.3787 273.564 49.174C274.241 49.9694 275.081 50.6031 276.023 51.0305C276.965 51.458 277.988 51.6687 279.018 51.648C280.049 51.6272 281.063 51.3755 281.988 50.9105L299.795 68.9508L302.347 55.8835L285.046 40.7554C284.18 39.2164 282.792 38.0562 281.146 37.4945C279.499 36.9327 277.709 37.0086 276.113 37.7077C274.518 38.4068 273.229 39.6806 272.49 41.2876C271.751 42.8947 271.613 44.7234 272.104 46.4271Z" fill="#FFB8B8"/>
<path id="Vector_12" d="M285.365 53.3201C285.641 52.7264 286.087 52.2329 286.644 51.9053L291.837 48.8532C292.401 48.5241 293.049 48.3799 293.695 48.4401C294.34 48.5004 294.952 48.7621 295.448 49.1899L312.704 64.1516L352.365 75.5323C353.575 76.1123 354.661 76.9306 355.561 77.9404C356.461 78.9502 357.158 80.1317 357.612 81.4174C358.066 82.7031 358.268 84.0677 358.206 85.4333C358.144 86.7988 357.82 88.1386 357.252 89.3758C356.684 90.6131 355.884 91.7237 354.896 92.6441C353.909 93.5645 352.753 94.2767 351.497 94.7399C350.24 95.2031 348.907 95.4082 347.572 95.3437C346.238 95.2791 344.93 94.946 343.721 94.3634L318.386 88.5261C310.697 86.7556 303.897 82.1867 299.253 75.6694L285.666 56.6092C285.405 56.2426 285.222 55.8238 285.13 55.3802C285.037 54.9365 285.037 54.4779 285.129 54.0342C285.18 53.7874 285.259 53.5477 285.365 53.3201Z" fill="#3F3D56"/>
</g>
<path id="Vector_13" d="M407.071 144.007C406.466 144.23 405.81 144.259 405.189 144.091L399.402 142.515C398.776 142.343 398.216 141.979 397.799 141.471C397.382 140.963 397.127 140.336 397.07 139.675L395.109 116.615L374.774 79.9534C374.314 78.6699 374.106 77.3063 374.161 75.9405C374.217 74.5747 374.535 73.2334 375.097 71.9934C375.659 70.7534 376.454 69.6389 377.438 68.7138C378.421 67.7886 379.573 67.0708 380.827 66.6015C382.082 66.1321 383.414 65.9204 384.749 65.9785C386.083 66.0366 387.393 66.3632 388.604 66.9399C389.815 67.5165 390.903 68.3317 391.806 69.339C392.709 70.3462 393.41 71.5258 393.867 72.8101L407.842 95.2119C412.084 102.01 413.77 110.155 412.584 118.13L409.12 141.455C409.053 141.904 408.895 142.333 408.655 142.714C408.416 143.096 408.1 143.422 407.73 143.671C407.524 143.809 407.303 143.922 407.071 144.007Z" fill="#3F3D56"/>
<path id="Vector_14" d="M343.041 67.0882C345.999 63.7683 349.648 61.1704 353.718 59.4863C357.788 57.8021 362.175 57.0747 366.556 57.3577C366.844 57.3759 367.131 57.3964 367.416 57.4193H367.417C371.569 57.7554 375.604 58.9949 379.251 61.0549C382.897 63.115 386.072 65.9482 388.563 69.3651C391.096 72.8297 392.877 76.8077 393.787 81.0333C394.697 85.2588 394.715 89.6344 393.84 93.8676C390.501 110.046 391.346 126.835 396.291 142.576L400.911 157.258C401.059 157.728 401.1 158.227 401.03 158.716C400.96 159.205 400.781 159.671 400.507 160.079C400.233 160.486 399.872 160.823 399.451 161.065C399.029 161.306 398.559 161.446 398.077 161.472L374.459 162.771L368.414 152.086V163.104L339.708 164.684C339.651 164.687 339.594 164.688 339.538 164.688C339.102 164.688 338.671 164.596 338.273 164.417C337.874 164.238 337.515 163.976 337.22 163.649C336.924 163.321 336.699 162.934 336.556 162.513C336.414 162.091 336.359 161.644 336.394 161.2L339.639 120.022L335.569 92.0547C334.91 87.5861 335.24 83.0232 336.533 78.7023C337.826 74.3813 340.05 70.4125 343.041 67.0882Z" fill="#3F3D56"/>
<path id="Vector_15" d="M373.846 52.6137C372.252 53.5527 365.95 54.1752 365.501 52.3495L365.491 52.3094C365.178 50.9716 365.438 49.5748 365.528 48.2024C365.617 46.83 365.486 45.3224 364.573 44.3134C362.87 42.4324 359.842 43.4295 357.38 42.9539C355.938 42.6245 354.663 41.7687 353.793 40.5465C352.923 39.3243 352.518 37.8196 352.654 36.3139C352.689 36.0287 352.744 35.7431 352.806 35.4577C352.96 34.7346 352.948 33.9848 352.771 33.2672C352.594 32.5496 352.257 31.8837 351.787 31.3218C351.316 30.7599 350.725 30.3172 350.059 30.0286C349.393 29.7401 348.671 29.6133 347.949 29.6585C345.461 29.8041 342.776 30.5755 340.718 28.6896C339.126 27.2313 338.738 23.435 339.437 21.369C340.612 17.897 348.141 16.0793 351.428 15.0801C355.494 13.8779 359.77 13.6179 363.946 14.3192C368.122 15.0205 372.092 16.6654 375.569 19.1343C377.646 20.6321 379.585 22.5141 380.469 24.9511C381.354 27.388 380.927 30.4625 378.932 32.0712C380.479 33.7474 381.568 35.8101 382.091 38.0527C382.613 40.2954 382.551 42.6392 381.909 44.8494C380.924 48.0998 376.22 51.2161 373.846 52.6137Z" fill="#2F2E41"/>
<path id="Vector_16" d="M462.477 300H263.05C262.911 300 262.778 299.943 262.679 299.843C262.581 299.743 262.526 299.606 262.526 299.464C262.526 299.322 262.581 299.186 262.679 299.085C262.778 298.985 262.911 298.928 263.05 298.928H462.477C462.615 298.928 462.748 298.985 462.847 299.085C462.945 299.186 463 299.322 463 299.464C463 299.606 462.945 299.743 462.847 299.843C462.748 299.943 462.615 300 462.477 300Z" fill="#3F3D56"/>
<path id="BIBLIOTECA DIGITAL" d="M23.3066 196.896C24.7706 197.304 25.8986 198.048 26.6906 199.128C27.5066 200.208 27.9146 201.528 27.9146 203.088C27.9146 205.248 27.1346 206.94 25.5746 208.164C24.0386 209.388 21.9146 210 19.2026 210H9.91459C9.21859 210 8.66659 209.808 8.25859 209.424C7.87459 209.04 7.68259 208.5 7.68259 207.804V186.816C7.68259 186.12 7.87459 185.58 8.25859 185.196C8.66659 184.812 9.21859 184.62 9.91459 184.62H18.8426C21.4826 184.62 23.5466 185.208 25.0346 186.384C26.5466 187.536 27.3026 189.156 27.3026 191.244C27.3026 192.588 26.9426 193.752 26.2226 194.736C25.5266 195.72 24.5546 196.44 23.3066 196.896ZM12.2186 195.312H18.0866C21.2786 195.312 22.8746 194.124 22.8746 191.748C22.8746 190.548 22.4786 189.66 21.6866 189.084C20.8946 188.508 19.6946 188.22 18.0866 188.22H12.2186V195.312ZM18.6986 206.4C20.3786 206.4 21.6026 206.1 22.3706 205.5C23.1386 204.9 23.5226 203.964 23.5226 202.692C23.5226 201.42 23.1266 200.472 22.3346 199.848C21.5666 199.224 20.3546 198.912 18.6986 198.912H12.2186V206.4H18.6986ZM34.5608 210.216C33.8648 210.216 33.3008 210 32.8688 209.568C32.4608 209.136 32.2568 208.572 32.2568 207.876V186.744C32.2568 186.048 32.4608 185.496 32.8688 185.088C33.3008 184.656 33.8648 184.44 34.5608 184.44C35.2808 184.44 35.8448 184.656 36.2528 185.088C36.6848 185.496 36.9008 186.048 36.9008 186.744V207.876C36.9008 208.572 36.6848 209.136 36.2528 209.568C35.8448 210 35.2808 210.216 34.5608 210.216ZM58.0058 196.896C59.4698 197.304 60.5978 198.048 61.3898 199.128C62.2058 200.208 62.6138 201.528 62.6138 203.088C62.6138 205.248 61.8338 206.94 60.2738 208.164C58.7378 209.388 56.6138 210 53.9018 210H44.6138C43.9178 210 43.3658 209.808 42.9578 209.424C42.5738 209.04 42.3818 208.5 42.3818 207.804V186.816C42.3818 186.12 42.5738 185.58 42.9578 185.196C43.3658 184.812 43.9178 184.62 44.6138 184.62H53.5418C56.1818 184.62 58.2458 185.208 59.7338 186.384C61.2458 187.536 62.0018 189.156 62.0018 191.244C62.0018 192.588 61.6418 193.752 60.9218 194.736C60.2258 195.72 59.2538 196.44 58.0058 196.896ZM46.9178 195.312H52.7858C55.9778 195.312 57.5738 194.124 57.5738 191.748C57.5738 190.548 57.1778 189.66 56.3858 189.084C55.5938 188.508 54.3938 188.22 52.7858 188.22H46.9178V195.312ZM53.3978 206.4C55.0778 206.4 56.3018 206.1 57.0698 205.5C57.8378 204.9 58.2218 203.964 58.2218 202.692C58.2218 201.42 57.8258 200.472 57.0338 199.848C56.2658 199.224 55.0538 198.912 53.3978 198.912H46.9178V206.4H53.3978ZM69.152 210C68.456 210 67.916 209.808 67.532 209.424C67.148 209.04 66.956 208.512 66.956 207.84V186.744C66.956 186.048 67.16 185.496 67.568 185.088C68 184.656 68.564 184.44 69.26 184.44C69.98 184.44 70.544 184.656 70.952 185.088C71.384 185.496 71.6 186.048 71.6 186.744V206.184H81.716C83.156 206.184 83.876 206.82 83.876 208.092C83.876 209.364 83.156 210 81.716 210H69.152ZM89.2288 210.216C88.5328 210.216 87.9688 210 87.5368 209.568C87.1288 209.136 86.9248 208.572 86.9248 207.876V186.744C86.9248 186.048 87.1288 185.496 87.5368 185.088C87.9688 184.656 88.5328 184.44 89.2288 184.44C89.9488 184.44 90.5128 184.656 90.9208 185.088C91.3528 185.496 91.5688 186.048 91.5688 186.744V207.876C91.5688 208.572 91.3528 209.136 90.9208 209.568C90.5128 210 89.9488 210.216 89.2288 210.216ZM108.354 210.324C105.882 210.324 103.734 209.796 101.91 208.74C100.11 207.684 98.7178 206.172 97.7338 204.204C96.7498 202.236 96.2578 199.932 96.2578 197.292C96.2578 194.652 96.7378 192.36 97.6978 190.416C98.6818 188.448 100.086 186.936 101.91 185.88C103.734 184.824 105.882 184.296 108.354 184.296C110.826 184.296 112.962 184.824 114.762 185.88C116.586 186.936 117.978 188.448 118.938 190.416C119.922 192.36 120.414 194.652 120.414 197.292C120.414 199.932 119.922 202.236 118.938 204.204C117.954 206.172 116.55 207.684 114.726 208.74C112.926 209.796 110.802 210.324 108.354 210.324ZM108.354 206.616C110.682 206.616 112.494 205.812 113.79 204.204C115.11 202.596 115.77 200.292 115.77 197.292C115.77 194.292 115.11 192 113.79 190.416C112.494 188.808 110.682 188.004 108.354 188.004C106.002 188.004 104.166 188.808 102.846 190.416C101.55 192 100.902 194.292 100.902 197.292C100.902 200.292 101.55 202.596 102.846 204.204C104.166 205.812 106.002 206.616 108.354 206.616ZM131.909 210.18C131.189 210.18 130.613 209.976 130.181 209.568C129.773 209.136 129.569 208.572 129.569 207.876V188.436H123.017C121.577 188.436 120.857 187.8 120.857 186.528C120.857 185.256 121.577 184.62 123.017 184.62H140.765C142.205 184.62 142.925 185.256 142.925 186.528C142.925 187.8 142.205 188.436 140.765 188.436H134.213V207.876C134.213 208.572 133.997 209.136 133.565 209.568C133.157 209.976 132.605 210.18 131.909 210.18ZM147.903 210C147.207 210 146.655 209.808 146.247 209.424C145.863 209.04 145.671 208.5 145.671 207.804V186.816C145.671 186.12 145.863 185.58 146.247 185.196C146.655 184.812 147.207 184.62 147.903 184.62H160.899C161.595 184.62 162.135 184.776 162.519 185.088C162.903 185.4 163.095 185.844 163.095 186.42C163.095 187.02 162.903 187.488 162.519 187.824C162.135 188.136 161.595 188.292 160.899 188.292H150.207V195.276H160.179C160.875 195.276 161.415 195.432 161.799 195.744C162.183 196.056 162.375 196.512 162.375 197.112C162.375 197.688 162.183 198.132 161.799 198.444C161.415 198.756 160.875 198.912 160.179 198.912H150.207V206.328H160.899C161.595 206.328 162.135 206.496 162.519 206.832C162.903 207.144 163.095 207.6 163.095 208.2C163.095 208.776 162.903 209.22 162.519 209.532C162.135 209.844 161.595 210 160.899 210H147.903ZM178.14 210.324C175.692 210.324 173.544 209.796 171.696 208.74C169.872 207.684 168.468 206.172 167.484 204.204C166.5 202.236 166.008 199.932 166.008 197.292C166.008 194.652 166.5 192.36 167.484 190.416C168.468 188.448 169.872 186.936 171.696 185.88C173.544 184.824 175.692 184.296 178.14 184.296C179.724 184.296 181.212 184.536 182.604 185.016C183.996 185.472 185.232 186.144 186.312 187.032C186.624 187.272 186.84 187.524 186.96 187.788C187.08 188.052 187.14 188.376 187.14 188.76C187.14 189.288 186.996 189.732 186.708 190.092C186.42 190.452 186.072 190.632 185.664 190.632C185.184 190.632 184.692 190.464 184.188 190.128C183.156 189.36 182.196 188.832 181.308 188.544C180.42 188.232 179.436 188.076 178.356 188.076C175.86 188.076 173.964 188.856 172.668 190.416C171.396 191.976 170.76 194.268 170.76 197.292C170.76 200.34 171.396 202.644 172.668 204.204C173.964 205.764 175.86 206.544 178.356 206.544C179.388 206.544 180.336 206.388 181.2 206.076C182.088 205.764 183.084 205.236 184.188 204.492C184.428 204.348 184.668 204.228 184.908 204.132C185.148 204.036 185.4 203.988 185.664 203.988C186.072 203.988 186.42 204.168 186.708 204.528C186.996 204.888 187.14 205.332 187.14 205.86C187.14 206.22 187.08 206.544 186.96 206.832C186.84 207.096 186.624 207.348 186.312 207.588C185.232 208.476 183.996 209.16 182.604 209.64C181.212 210.096 179.724 210.324 178.14 210.324ZM213.745 207.228C213.889 207.54 213.961 207.852 213.961 208.164C213.961 208.716 213.733 209.184 213.277 209.568C212.845 209.952 212.341 210.144 211.765 210.144C211.381 210.144 211.021 210.048 210.685 209.856C210.349 209.64 210.085 209.316 209.893 208.884L207.733 204.06H195.061L192.901 208.884C192.709 209.316 192.445 209.64 192.109 209.856C191.773 210.048 191.401 210.144 190.993 210.144C190.441 210.144 189.937 209.952 189.481 209.568C189.025 209.184 188.797 208.716 188.797 208.164C188.797 207.852 188.869 207.54 189.013 207.228L198.949 185.88C199.165 185.4 199.489 185.04 199.921 184.8C200.377 184.536 200.857 184.404 201.361 184.404C201.865 184.404 202.333 184.536 202.765 184.8C203.221 185.04 203.557 185.4 203.773 185.88L213.745 207.228ZM196.645 200.46H206.149L201.397 189.768L196.645 200.46ZM9.91459 259C9.21859 259 8.66659 258.808 8.25859 258.424C7.87459 258.04 7.68259 257.5 7.68259 256.804V235.816C7.68259 235.12 7.87459 234.58 8.25859 234.196C8.66659 233.812 9.21859 233.62 9.91459 233.62H17.0426C21.1946 233.62 24.4106 234.736 26.6906 236.968C28.9946 239.176 30.1466 242.284 30.1466 246.292C30.1466 250.324 28.9946 253.456 26.6906 255.688C24.4106 257.896 21.1946 259 17.0426 259H9.91459ZM16.7546 255.22C22.5866 255.22 25.5026 252.244 25.5026 246.292C25.5026 240.364 22.5866 237.4 16.7546 237.4H12.3266V255.22H16.7546ZM37.1272 259.216C36.4312 259.216 35.8672 259 35.4352 258.568C35.0272 258.136 34.8232 257.572 34.8232 256.876V235.744C34.8232 235.048 35.0272 234.496 35.4352 234.088C35.8672 233.656 36.4312 233.44 37.1272 233.44C37.8472 233.44 38.4112 233.656 38.8192 234.088C39.2512 234.496 39.4672 235.048 39.4672 235.744V256.876C39.4672 257.572 39.2512 258.136 38.8192 258.568C38.4112 259 37.8472 259.216 37.1272 259.216ZM64.2802 245.284C64.8322 245.284 65.2762 245.452 65.6122 245.788C65.9482 246.1 66.1162 246.52 66.1162 247.048V254.788C66.1162 255.892 65.9722 256.672 65.6842 257.128C65.3962 257.584 64.8082 257.956 63.9202 258.244C62.9602 258.58 61.8442 258.844 60.5722 259.036C59.3002 259.228 58.0762 259.324 56.9002 259.324C54.2842 259.324 52.0162 258.808 50.0962 257.776C48.1762 256.744 46.7002 255.256 45.6682 253.312C44.6602 251.344 44.1562 249.004 44.1562 246.292C44.1562 243.628 44.6602 241.324 45.6682 239.38C46.7002 237.412 48.1522 235.912 50.0242 234.88C51.8962 233.824 54.1042 233.296 56.6482 233.296C60.0322 233.296 62.8042 234.208 64.9642 236.032C65.2522 236.296 65.4562 236.56 65.5762 236.824C65.7202 237.088 65.7922 237.4 65.7922 237.76C65.7922 238.288 65.6482 238.732 65.3602 239.092C65.0722 239.452 64.7242 239.632 64.3162 239.632C64.0522 239.632 63.8122 239.596 63.5962 239.524C63.3802 239.428 63.1282 239.284 62.8402 239.092C61.7842 238.348 60.8002 237.832 59.8882 237.544C58.9762 237.232 57.9442 237.076 56.7922 237.076C54.1762 237.076 52.1962 237.856 50.8522 239.416C49.5322 240.952 48.8722 243.244 48.8722 246.292C48.8722 252.532 51.6082 255.652 57.0802 255.652C58.7122 255.652 60.3442 255.424 61.9762 254.968V248.596H57.9082C57.3322 248.596 56.8762 248.452 56.5402 248.164C56.2282 247.876 56.0722 247.468 56.0722 246.94C56.0722 246.412 56.2282 246.004 56.5402 245.716C56.8762 245.428 57.3322 245.284 57.9082 245.284H64.2802ZM73.6546 259.216C72.9586 259.216 72.3946 259 71.9626 258.568C71.5546 258.136 71.3506 257.572 71.3506 256.876V235.744C71.3506 235.048 71.5546 234.496 71.9626 234.088C72.3946 233.656 72.9586 233.44 73.6546 233.44C74.3746 233.44 74.9386 233.656 75.3466 234.088C75.7786 234.496 75.9946 235.048 75.9946 235.744V256.876C75.9946 257.572 75.7786 258.136 75.3466 258.568C74.9386 259 74.3746 259.216 73.6546 259.216ZM89.7916 259.18C89.0716 259.18 88.4956 258.976 88.0636 258.568C87.6556 258.136 87.4516 257.572 87.4516 256.876V237.436H80.8996C79.4596 237.436 78.7396 236.8 78.7396 235.528C78.7396 234.256 79.4596 233.62 80.8996 233.62H98.6476C100.088 233.62 100.808 234.256 100.808 235.528C100.808 236.8 100.088 237.436 98.6476 237.436H92.0956V256.876C92.0956 257.572 91.8796 258.136 91.4476 258.568C91.0396 258.976 90.4876 259.18 89.7916 259.18ZM123.429 256.228C123.573 256.54 123.645 256.852 123.645 257.164C123.645 257.716 123.417 258.184 122.961 258.568C122.529 258.952 122.025 259.144 121.449 259.144C121.065 259.144 120.705 259.048 120.369 258.856C120.033 258.64 119.769 258.316 119.577 257.884L117.417 253.06H104.745L102.585 257.884C102.393 258.316 102.129 258.64 101.793 258.856C101.457 259.048 101.085 259.144 100.677 259.144C100.125 259.144 99.6208 258.952 99.1648 258.568C98.7088 258.184 98.4808 257.716 98.4808 257.164C98.4808 256.852 98.5528 256.54 98.6968 256.228L108.633 234.88C108.849 234.4 109.173 234.04 109.605 233.8C110.061 233.536 110.541 233.404 111.045 233.404C111.549 233.404 112.017 233.536 112.449 233.8C112.905 234.04 113.241 234.4 113.457 234.88L123.429 256.228ZM106.329 249.46H115.833L111.081 238.768L106.329 249.46ZM129.34 259C128.644 259 128.104 258.808 127.72 258.424C127.336 258.04 127.144 257.512 127.144 256.84V235.744C127.144 235.048 127.348 234.496 127.756 234.088C128.188 233.656 128.752 233.44 129.448 233.44C130.168 233.44 130.732 233.656 131.14 234.088C131.572 234.496 131.788 235.048 131.788 235.744V255.184H141.904C143.344 255.184 144.064 255.82 144.064 257.092C144.064 258.364 143.344 259 141.904 259H129.34Z" fill="#992211"/>
</g>
</svg>
