<svg width="100%" height="300" viewBox="0 0 458 300" fill="none" xmlns="http://www.w3.org/2000/svg">
<g id="Boletines" clip-path="url(#clip0)">
<path id="Vector" d="M458 140.849C458.001 152.784 453.536 164.28 445.497 173.039C437.459 181.797 426.439 187.172 414.642 188.09C414.245 188.12 413.841 188.151 413.438 188.169V143.2C413.438 142.75 413.339 142.306 413.147 141.901C412.955 141.495 412.676 141.138 412.33 140.855C412.29 140.814 412.245 140.777 412.197 140.746C412.153 140.71 412.107 140.677 412.059 140.648C411.636 140.374 411.151 140.21 410.649 140.173C410.147 140.136 409.644 140.226 409.186 140.436L408.686 139.33C409.233 139.079 409.826 138.949 410.427 138.948L376.126 109.14C376.391 108.836 376.668 108.539 376.945 108.241C383.411 101.365 391.773 96.6031 400.951 94.5705C410.128 92.5379 419.699 93.3282 428.426 96.8391C437.154 100.35 444.637 106.42 449.909 114.266C455.181 122.111 457.999 131.371 458 140.849Z" fill="#F2F2F2"/>
<path id="Vector_2" d="M11.91 173.157C11.7394 172.277 11.762 171.371 11.9761 170.502C12.1903 169.633 12.5908 168.821 13.1495 168.125C13.7081 167.428 14.4113 166.864 15.2096 166.472C16.0078 166.079 16.8817 165.868 17.7696 165.853L44.8455 133.34L51.6051 142.058L24.011 172.317C23.9371 173.823 23.318 175.25 22.271 176.326C21.224 177.403 19.8219 178.055 18.3303 178.158C16.8387 178.262 15.3612 177.81 14.1779 176.888C12.9947 175.966 12.1877 174.638 11.91 173.157H11.91Z" fill="#FFB8B8"/>
<path id="Vector_3" d="M140.484 133.139C140.294 133.416 140.127 133.707 139.982 134.01L110.418 138.273L105.929 132.524L96.4418 138.224L105.36 152.249L141.416 141.528C142.368 142.396 143.559 142.952 144.831 143.122C146.104 143.291 147.397 143.066 148.539 142.475C149.682 141.885 150.619 140.958 151.226 139.818C151.833 138.677 152.082 137.377 151.939 136.09C151.796 134.804 151.268 133.592 150.425 132.615C149.583 131.639 148.465 130.944 147.222 130.624C145.978 130.303 144.668 130.372 143.464 130.822C142.26 131.271 141.221 132.079 140.484 133.139Z" fill="#FFB8B8"/>
<path id="Vector_4" d="M89.9833 241.769L95.2151 247.024L117.797 229.17L110.076 221.414L89.9833 241.769Z" fill="#FFB8B8"/>
<path id="Vector_5" d="M100.468 262.058L84.0254 245.544L90.3508 239.136L100.44 249.269C101.275 250.107 101.937 251.103 102.39 252.199C102.843 253.295 103.077 254.471 103.08 255.658C103.082 256.846 102.853 258.022 102.405 259.12C101.956 260.218 101.298 261.217 100.468 262.058L100.468 262.058Z" fill="#2F2E41"/>
<path id="Vector_6" d="M62.174 292.17H69.5569L73.0689 263.445H62.1728L62.174 292.17Z" fill="#FFB8B8"/>
<path id="Vector_7" d="M83.795 299.084L60.5921 299.085L60.5917 290.042L74.8299 290.042C76.0071 290.042 77.1729 290.275 78.2606 290.73C79.3482 291.184 80.3365 291.85 81.169 292.69C82.0015 293.53 82.6619 294.527 83.1125 295.624C83.5631 296.721 83.795 297.897 83.795 299.084Z" fill="#2F2E41"/>
<path id="Vector_8" d="M60.5691 269.984L52.1598 207.425C50.8437 197.971 51.2522 188.353 53.3649 179.047C55.0906 171.569 57.4218 166.388 60.2942 163.651C60.7475 163.221 61.3278 162.954 61.9461 162.89L89.7111 159.972C90.2459 159.917 90.7852 160.016 91.2661 160.259C91.747 160.501 92.1497 160.877 92.427 161.341L93.3398 162.875C93.4506 163.062 93.5399 163.26 93.6061 163.467L99.4763 181.824C99.564 182.101 99.7054 182.358 99.8923 182.58C100.079 182.802 100.308 182.984 100.565 183.116C109.808 187.875 139.83 203.943 138.112 210.876C136.498 217.39 121.384 227.951 116.79 231.033C116.322 231.348 115.771 231.514 115.208 231.51C114.646 231.506 114.097 231.331 113.634 231.008L106.009 225.746C105.636 225.489 105.33 225.145 105.117 224.745C104.903 224.344 104.787 223.898 104.779 223.443C104.771 222.988 104.871 222.537 105.071 222.129C105.271 221.721 105.565 221.368 105.928 221.098L111.187 217.189C111.509 216.95 111.76 216.627 111.913 216.254C112.066 215.882 112.116 215.474 112.057 215.075C111.997 214.676 111.831 214.301 111.577 213.991C111.322 213.68 110.988 213.445 110.611 213.311L82.3687 203.315C82.0516 203.203 81.7132 203.166 81.3795 203.206C81.0458 203.246 80.7257 203.363 80.4439 203.548C80.162 203.733 79.9259 203.98 79.7536 204.271C79.5814 204.562 79.4776 204.889 79.4502 205.227L74.2429 269.427C74.1855 270.115 73.8828 270.759 73.3909 271.24C72.8991 271.72 72.2513 272.005 71.5674 272.041L63.5105 272.448C63.4614 272.45 63.4128 272.451 63.3642 272.451C62.6804 272.454 62.0191 272.205 61.5045 271.751C60.9899 271.296 60.6573 270.668 60.5691 269.984Z" fill="#2F2E41"/>
<path id="Vector_9" d="M73.3028 108.177C81.4713 108.177 88.0932 101.497 88.0932 93.2575C88.0932 85.0177 81.4713 78.338 73.3028 78.338C65.1342 78.338 58.5123 85.0177 58.5123 93.2575C58.5123 101.497 65.1342 108.177 73.3028 108.177Z" fill="#FFB8B8"/>
<path id="Vector_10" d="M59.4688 161.095L48.5817 121.025L48.7681 120.898C49.0019 120.739 72.4683 105.108 99.9427 117.705L100.441 117.993L93.9896 159.583C93.8489 160.532 93.3843 161.402 92.6758 162.043C91.9674 162.683 91.0595 163.054 90.1089 163.092L63.5625 164.122C63.509 164.124 63.4557 164.125 63.4026 164.125C62.5077 164.127 61.6372 163.831 60.9259 163.283C60.2147 162.736 59.7025 161.966 59.4688 161.095Z" fill="#CCCCCC"/>
<path id="Vector_11" d="M48.1674 147.111L39.1001 136.593C38.6633 136.088 38.4174 135.443 38.4057 134.773C38.394 134.102 38.6172 133.449 39.036 132.929L48.5149 121.117L55.7914 123.119L59.6492 136.739L52.6152 146.875C52.3698 147.231 52.0469 147.525 51.6712 147.735C51.2955 147.945 50.877 148.066 50.448 148.087C50.3972 148.09 50.3468 148.091 50.2963 148.091C49.8925 148.092 49.4932 148.005 49.1258 147.836C48.7584 147.666 48.4315 147.419 48.1674 147.111Z" fill="#CCCCCC"/>
<path id="Vector_12" d="M98.3089 144.92C97.8799 144.899 97.4614 144.778 97.0857 144.568C96.71 144.358 96.3871 144.064 96.1417 143.708L89.1077 133.572L92.4911 119.234L99.1907 117.391L100.441 117.993L109.721 129.761C110.14 130.282 110.363 130.935 110.351 131.605C110.339 132.276 110.094 132.92 109.657 133.426L100.589 143.944C100.325 144.252 99.9985 144.499 99.6311 144.668C99.2637 144.837 98.8644 144.924 98.4606 144.924C98.4103 144.924 98.3595 144.922 98.3089 144.92Z" fill="#CCCCCC"/>
<path id="Vector_13" d="M413.438 140.223C413.443 140.374 413.392 140.522 413.293 140.636C413.189 140.759 413.042 140.834 412.882 140.847C412.723 140.86 412.566 140.808 412.444 140.703L410.427 138.948L376.126 109.14L279.92 25.5251C279.371 25.0511 278.672 24.7912 277.949 24.7923C277.227 24.7934 276.529 25.0555 275.981 25.5311L146.425 139.069L145.257 140.09C145.212 140.13 145.161 140.162 145.107 140.187C145.01 140.23 144.904 140.247 144.799 140.235C144.649 140.219 144.51 140.148 144.408 140.035C144.356 139.975 144.316 139.906 144.29 139.83C144.264 139.755 144.254 139.675 144.259 139.595C144.264 139.516 144.284 139.438 144.319 139.366C144.354 139.295 144.403 139.231 144.462 139.178L144.625 139.033L275.192 24.6139C275.96 23.9492 276.937 23.5827 277.948 23.5805C278.959 23.5782 279.938 23.9404 280.708 24.6017L376.945 108.241L413.227 139.78C413.29 139.835 413.342 139.903 413.378 139.979C413.414 140.056 413.435 140.139 413.438 140.223Z" fill="#992211"/>
<g id="boletin-izquierda">
<path id="Vector_14" d="M340.29 158.16L338.706 153.763L333.25 138.576L321.495 105.878L308.355 69.3274L284.659 3.40119C284.193 2.11557 283.242 1.06834 282.013 0.488832C280.784 -0.0906783 279.377 -0.15524 278.101 0.309284L141.096 50.4176C139.821 50.8864 138.783 51.8461 138.208 53.0861C137.633 54.3261 137.57 55.7454 138.031 57.0327L171.627 150.494L172.199 152.092L207.464 168.214L217.376 172.745L218.984 173.48L260.951 192.67L262.576 192.074L290.103 182.009L331.624 166.823L337.218 164.776C338.494 164.307 339.533 163.348 340.109 162.108C340.684 160.868 340.749 159.449 340.29 158.16Z" fill="#E6E6E6"/>
<path id="Vector_15" d="M282.84 80.3106C282.157 78.4185 280.757 76.877 278.949 76.0241C277.14 75.1712 275.07 75.0765 273.193 75.7608L218.984 95.594L192.806 105.167C191.876 105.506 191.021 106.027 190.291 106.7C189.56 107.372 188.969 108.183 188.549 109.087C188.129 109.99 187.891 110.968 187.846 111.965C187.801 112.961 187.952 113.957 188.289 114.895C188.626 115.833 189.143 116.695 189.811 117.431C190.478 118.167 191.283 118.763 192.179 119.186C193.075 119.608 194.045 119.848 195.033 119.892C196.021 119.936 197.008 119.783 197.937 119.442L218.984 111.746L278.33 90.0419C280.205 89.3525 281.734 87.9409 282.579 86.1167C283.425 84.2925 283.518 82.2045 282.84 80.3106Z" fill="white"/>
<path id="Vector_16" d="M292.385 106.868C291.701 104.976 290.302 103.435 288.494 102.582C286.685 101.729 284.615 101.634 282.738 102.319L273.554 105.678L218.984 125.638L202.351 131.719C200.476 132.407 198.947 133.817 198.102 135.641C197.257 137.465 197.164 139.552 197.844 141.445C198.524 143.337 199.921 144.88 201.728 145.735C203.536 146.589 205.605 146.684 207.482 146L218.984 141.79L287.875 116.594C288.031 116.539 288.182 116.472 288.332 116.405C290.081 115.631 291.473 114.215 292.226 112.444C292.978 110.673 293.035 108.68 292.385 106.868Z" fill="white"/>
<path id="Vector_17" d="M302.032 133.705C301.35 131.814 299.952 130.272 298.144 129.419C296.337 128.566 294.268 128.471 292.391 129.156L266.635 138.577L246.696 145.873L218.984 156.005L211.998 158.562C210.384 159.155 209.019 160.287 208.128 161.769C207.238 163.251 206.876 164.996 207.102 166.714C207.171 167.225 207.292 167.728 207.464 168.214L217.376 172.746L218.984 172.157H218.996L269.285 153.763L297.521 143.437C299.398 142.749 300.928 141.337 301.773 139.513C302.619 137.688 302.712 135.599 302.032 133.705H302.032Z" fill="white"/>
<path id="Vector_18" d="M245.588 54.2026C244.905 52.3106 243.506 50.7691 241.697 49.9162C239.889 49.0633 237.819 48.9686 235.941 49.6529L204.808 61.0364C202.932 61.7241 201.404 63.1347 200.559 64.9584C199.714 66.7821 199.621 68.8697 200.301 70.7623C200.981 72.655 202.378 74.1978 204.185 75.052C205.992 75.9061 208.062 76.0016 209.939 75.3175L219.791 71.7154L226.312 69.3281L241.078 63.9279C242.953 63.2398 244.482 61.8294 245.327 60.0062C246.173 58.1829 246.267 56.0957 245.588 54.2026Z" fill="white"/>
</g>
<g id="boletin-derecho">
<path id="Vector_19" d="M369.833 69.3281H224.102C223.243 69.329 222.397 69.5481 221.644 69.9653C220.89 70.3825 220.253 70.9844 219.791 71.7154C219.262 72.543 218.982 73.507 218.984 74.4914V173.481L260.951 192.67L266.864 195.373L276.204 199.644C276.751 199.893 277.344 200.022 277.944 200.022C278.544 200.022 279.138 199.893 279.685 199.644L289.025 195.373L318.255 182.01L345.498 169.551L374.951 156.09V74.4914C374.951 73.1223 374.411 71.8095 373.451 70.8414C372.492 69.8733 371.19 69.329 369.833 69.3281Z" fill="#992211"/>
<path id="Vector_20" d="M339.723 138.577H254.212C252.267 138.578 250.399 139.338 248.998 140.698C247.597 142.058 246.772 143.913 246.696 145.872C246.686 145.971 246.682 146.071 246.684 146.17C246.687 148.183 247.481 150.113 248.892 151.536C250.303 152.959 252.216 153.76 254.212 153.763H339.723C341.719 153.763 343.634 152.963 345.046 151.539C346.457 150.115 347.251 148.184 347.251 146.17C347.251 144.156 346.457 142.225 345.046 140.801C343.634 139.377 341.719 138.577 339.723 138.577Z" fill="white"/>
<path id="Vector_21" d="M344.595 168.633C343.238 167.462 341.509 166.82 339.723 166.823H254.212C252.215 166.823 250.301 167.623 248.889 169.047C247.477 170.471 246.684 172.403 246.684 174.416C246.684 176.43 247.477 178.361 248.889 179.785C250.301 181.209 252.215 182.009 254.212 182.009H318.255L345.498 169.551C345.223 169.22 344.921 168.913 344.595 168.633Z" fill="white"/>
<path id="Vector_22" d="M266.864 195.373L276.204 199.644C276.751 199.893 277.344 200.022 277.944 200.022C278.544 200.022 279.138 199.893 279.685 199.644L289.025 195.373H266.864Z" fill="white"/>
<path id="Vector_23" d="M320.598 106.206C320.068 104.744 319.105 103.482 317.841 102.59C316.576 101.698 315.071 101.22 313.528 101.219H280.407C278.961 101.22 277.546 101.641 276.331 102.432C275.116 103.223 274.152 104.349 273.554 105.678C273.108 106.661 272.878 107.73 272.88 108.812C272.883 110.825 273.677 112.755 275.088 114.178C276.499 115.601 278.412 116.402 280.407 116.405H313.528C314.739 116.405 315.932 116.111 317.006 115.546C318.08 114.982 319.003 114.165 319.697 113.164C320.391 112.163 320.835 111.007 320.992 109.796C321.149 108.585 321.013 107.353 320.598 106.206Z" fill="white"/>
</g>
<path id="Vector_24" d="M315.334 182.009L286.104 195.373L279.185 198.538C278.795 198.715 278.372 198.807 277.944 198.807C277.517 198.807 277.094 198.715 276.704 198.538L269.785 195.373H266.864L276.204 199.644C276.751 199.893 277.344 200.022 277.944 200.022C278.545 200.022 279.138 199.893 279.685 199.644L289.025 195.373L318.255 182.009H315.334ZM315.334 182.009L286.104 195.373L279.185 198.538C278.795 198.715 278.372 198.807 277.944 198.807C277.517 198.807 277.094 198.715 276.704 198.538L269.785 195.373H266.864L276.204 199.644C276.751 199.893 277.344 200.022 277.944 200.022C278.545 200.022 279.138 199.893 279.685 199.644L289.025 195.373L318.255 182.009H315.334ZM315.334 182.009L286.104 195.373L279.185 198.538C278.795 198.715 278.372 198.807 277.944 198.807C277.517 198.807 277.094 198.715 276.704 198.538L269.785 195.373H266.864L276.204 199.644C276.751 199.893 277.344 200.022 277.944 200.022C278.545 200.022 279.138 199.893 279.685 199.644L289.025 195.373L318.255 182.009H315.334ZM413.438 140.223C413.216 140 412.971 139.801 412.709 139.628C412.117 139.241 411.439 139.011 410.736 138.959C410.032 138.907 409.328 139.035 408.686 139.33L344.595 168.633L315.334 182.009L286.104 195.373L279.185 198.538C278.795 198.715 278.372 198.807 277.944 198.807C277.517 198.807 277.094 198.715 276.704 198.538L269.785 195.373L262.576 192.075L218.996 172.157L218.984 172.151L207.102 166.714L171.627 150.495L147.202 139.33C146.954 139.214 146.693 139.127 146.425 139.069C145.836 138.92 145.22 138.908 144.625 139.033C143.672 139.229 142.816 139.751 142.201 140.51C141.586 141.269 141.249 142.219 141.247 143.2V295.748C141.248 296.875 141.692 297.956 142.483 298.753C143.273 299.55 144.344 299.999 145.462 300H410.427C411.544 299.999 412.616 299.55 413.406 298.753C414.196 297.956 414.641 296.875 414.642 295.748V143.2C414.644 142.086 414.211 141.017 413.438 140.223V140.223ZM413.438 295.748C413.437 296.553 413.12 297.326 412.555 297.895C411.991 298.465 411.225 298.785 410.427 298.785H145.462C144.663 298.785 143.898 298.465 143.333 297.895C142.769 297.326 142.451 296.553 142.451 295.748V143.2C142.451 142.692 142.577 142.193 142.818 141.747C143.059 141.301 143.407 140.924 143.83 140.648C144.127 140.456 144.455 140.317 144.799 140.235C144.901 140.213 145.003 140.197 145.107 140.187C145.224 140.17 145.343 140.161 145.462 140.162C145.89 140.163 146.313 140.256 146.702 140.436L172.199 152.093L207.464 168.214L217.376 172.746L218.983 173.481L260.951 192.67L266.864 195.373L276.204 199.644C276.751 199.893 277.344 200.022 277.944 200.022C278.544 200.022 279.138 199.893 279.685 199.644L289.025 195.373L318.255 182.009L345.498 169.551L409.186 140.436C409.644 140.226 410.147 140.136 410.649 140.173C411.151 140.21 411.636 140.374 412.059 140.648C412.107 140.677 412.153 140.71 412.197 140.746C412.245 140.777 412.29 140.813 412.33 140.855C412.676 141.138 412.955 141.495 413.147 141.901C413.339 142.306 413.438 142.75 413.438 143.2L413.438 295.748ZM315.334 182.009L286.104 195.373L279.185 198.538C278.795 198.715 278.372 198.807 277.944 198.807C277.517 198.807 277.094 198.715 276.704 198.538L269.785 195.373H266.864L276.204 199.644C276.751 199.893 277.344 200.022 277.944 200.022C278.545 200.022 279.138 199.893 279.685 199.644L289.025 195.373L318.255 182.009H315.334ZM315.334 182.009L286.104 195.373L279.185 198.538C278.795 198.715 278.372 198.807 277.944 198.807C277.517 198.807 277.094 198.715 276.704 198.538L269.785 195.373H266.864L276.204 199.644C276.751 199.893 277.344 200.022 277.944 200.022C278.545 200.022 279.138 199.893 279.685 199.644L289.025 195.373L318.255 182.009H315.334ZM217.376 172.746L218.983 173.481V172.157L217.376 172.746ZM315.334 182.009L286.104 195.373L279.185 198.538C278.795 198.715 278.372 198.807 277.944 198.807C277.517 198.807 277.094 198.715 276.704 198.538L269.785 195.373H266.864L276.204 199.644C276.751 199.893 277.344 200.022 277.944 200.022C278.545 200.022 279.138 199.893 279.685 199.644L289.025 195.373L318.255 182.009H315.334Z" fill="#992211"/>
<path id="Vector_25" d="M105.701 300H37.6527C37.493 300 37.3398 299.936 37.2268 299.822C37.1139 299.708 37.0505 299.554 37.0505 299.393C37.0505 299.231 37.1139 299.077 37.2268 298.963C37.3398 298.849 37.493 298.785 37.6527 298.785H105.701C105.86 298.785 106.013 298.849 106.126 298.963C106.239 299.077 106.303 299.231 106.303 299.393C106.303 299.554 106.239 299.708 106.126 299.822C106.013 299.936 105.86 300 105.701 300Z" fill="#992211"/>
<path id="Vector_26" d="M67.6791 104.168C66.5681 103.6 65.6444 102.718 65.0196 101.631C64.3949 100.544 64.096 99.2972 64.159 98.0422C64.2221 96.7871 64.6445 95.5774 65.375 94.5594C66.1055 93.5414 67.1128 92.7589 68.2751 92.3064C72.7383 90.5691 77.7418 94.1147 82.4202 93.1067C87.0831 92.1019 89.7806 86.4786 88.6676 81.8017C87.5546 77.1248 83.5035 73.602 79.0366 71.9197C76.1192 70.8237 72.9948 70.4035 69.8946 70.6901C66.7945 70.9767 63.7979 71.9629 61.1266 73.5757C58.4829 75.2357 56.2812 77.5219 54.7127 80.2356C53.1443 82.9493 52.2567 86.0083 52.1271 89.1468C52.0664 92.2881 52.8272 95.3901 54.333 98.1404C55.8388 100.891 58.0364 103.192 60.7045 104.813C61.8936 105.505 63.2776 106.06 64.6149 105.748C65.7128 105.389 66.7471 104.855 67.6791 104.168Z" fill="#2F2E41"/>
<path id="Vector_27" d="M62.886 73.212C58.9504 67.9464 53.6377 63.6206 47.4557 61.4759C41.2737 59.3313 34.2091 59.5034 28.4031 62.5343C22.597 65.5651 18.2671 71.5844 17.8151 78.1631C17.0629 89.1122 26.3377 98.4193 27.2895 109.353C27.5912 112.818 27.0336 116.305 25.6669 119.499C24.3002 122.693 22.1673 125.494 19.4604 127.649C16.7534 129.805 13.5575 131.247 10.1603 131.846C6.76318 132.446 3.27158 132.183 0 131.083C2.33021 133.018 5.0319 134.446 7.93536 135.277C10.8388 136.108 13.8813 136.325 16.8717 135.913C19.8572 135.461 22.7056 134.344 25.2102 132.644C27.7149 130.944 29.8131 128.703 31.3528 126.084C33.4401 122.425 34.2972 118.176 34.6302 113.968C35.1531 107.315 34.445 100.622 32.5419 94.2301C31.5016 90.7427 30.0908 87.1538 30.7505 83.5732C31.1265 81.7108 32.0368 80.0009 33.3681 78.656C34.6995 77.311 36.3933 76.3903 38.239 76.0083C41.2219 75.4445 44.2716 76.3628 47.1198 77.4197C49.968 78.4765 52.8396 79.6995 55.8736 79.7695C58.9075 79.8395 62.2121 78.4386 63.3846 75.615L62.886 73.212Z" fill="#2F2E41"/>
<path id="BOLETINES" d="M198.414 244.896C199.878 245.304 201.006 246.048 201.798 247.128C202.614 248.208 203.022 249.528 203.022 251.088C203.022 253.248 202.242 254.94 200.682 256.164C199.146 257.388 197.022 258 194.31 258H185.022C184.326 258 183.774 257.808 183.366 257.424C182.982 257.04 182.79 256.5 182.79 255.804V234.816C182.79 234.12 182.982 233.58 183.366 233.196C183.774 232.812 184.326 232.62 185.022 232.62H193.95C196.59 232.62 198.654 233.208 200.142 234.384C201.654 235.536 202.41 237.156 202.41 239.244C202.41 240.588 202.05 241.752 201.33 242.736C200.634 243.72 199.662 244.44 198.414 244.896ZM187.326 243.312H193.194C196.386 243.312 197.982 242.124 197.982 239.748C197.982 238.548 197.586 237.66 196.794 237.084C196.002 236.508 194.802 236.22 193.194 236.22H187.326V243.312ZM193.806 254.4C195.486 254.4 196.71 254.1 197.478 253.5C198.246 252.9 198.63 251.964 198.63 250.692C198.63 249.42 198.234 248.472 197.442 247.848C196.674 247.224 195.462 246.912 193.806 246.912H187.326V254.4H193.806ZM218.668 258.324C216.196 258.324 214.048 257.796 212.224 256.74C210.424 255.684 209.032 254.172 208.048 252.204C207.064 250.236 206.572 247.932 206.572 245.292C206.572 242.652 207.052 240.36 208.012 238.416C208.996 236.448 210.4 234.936 212.224 233.88C214.048 232.824 216.196 232.296 218.668 232.296C221.14 232.296 223.276 232.824 225.076 233.88C226.9 234.936 228.292 236.448 229.252 238.416C230.236 240.36 230.728 242.652 230.728 245.292C230.728 247.932 230.236 250.236 229.252 252.204C228.268 254.172 226.864 255.684 225.04 256.74C223.24 257.796 221.116 258.324 218.668 258.324ZM218.668 254.616C220.996 254.616 222.808 253.812 224.104 252.204C225.424 250.596 226.084 248.292 226.084 245.292C226.084 242.292 225.424 240 224.104 238.416C222.808 236.808 220.996 236.004 218.668 236.004C216.316 236.004 214.48 236.808 213.16 238.416C211.864 240 211.216 242.292 211.216 245.292C211.216 248.292 211.864 250.596 213.16 252.204C214.48 253.812 216.316 254.616 218.668 254.616ZM237.615 258C236.919 258 236.379 257.808 235.995 257.424C235.611 257.04 235.419 256.512 235.419 255.84V234.744C235.419 234.048 235.623 233.496 236.031 233.088C236.463 232.656 237.027 232.44 237.723 232.44C238.443 232.44 239.007 232.656 239.415 233.088C239.847 233.496 240.063 234.048 240.063 234.744V254.184H250.179C251.619 254.184 252.339 254.82 252.339 256.092C252.339 257.364 251.619 258 250.179 258H237.615ZM257.619 258C256.923 258 256.371 257.808 255.963 257.424C255.579 257.04 255.387 256.5 255.387 255.804V234.816C255.387 234.12 255.579 233.58 255.963 233.196C256.371 232.812 256.923 232.62 257.619 232.62H270.615C271.311 232.62 271.851 232.776 272.235 233.088C272.619 233.4 272.811 233.844 272.811 234.42C272.811 235.02 272.619 235.488 272.235 235.824C271.851 236.136 271.311 236.292 270.615 236.292H259.923V243.276H269.895C270.591 243.276 271.131 243.432 271.515 243.744C271.899 244.056 272.091 244.512 272.091 245.112C272.091 245.688 271.899 246.132 271.515 246.444C271.131 246.756 270.591 246.912 269.895 246.912H259.923V254.328H270.615C271.311 254.328 271.851 254.496 272.235 254.832C272.619 255.144 272.811 255.6 272.811 256.2C272.811 256.776 272.619 257.22 272.235 257.532C271.851 257.844 271.311 258 270.615 258H257.619ZM284.938 258.18C284.218 258.18 283.642 257.976 283.21 257.568C282.802 257.136 282.598 256.572 282.598 255.876V236.436H276.046C274.606 236.436 273.886 235.8 273.886 234.528C273.886 233.256 274.606 232.62 276.046 232.62H293.794C295.234 232.62 295.954 233.256 295.954 234.528C295.954 235.8 295.234 236.436 293.794 236.436H287.242V255.876C287.242 256.572 287.026 257.136 286.594 257.568C286.186 257.976 285.634 258.18 284.938 258.18ZM301.004 258.216C300.308 258.216 299.744 258 299.312 257.568C298.904 257.136 298.7 256.572 298.7 255.876V234.744C298.7 234.048 298.904 233.496 299.312 233.088C299.744 232.656 300.308 232.44 301.004 232.44C301.724 232.44 302.288 232.656 302.696 233.088C303.128 233.496 303.344 234.048 303.344 234.744V255.876C303.344 256.572 303.128 257.136 302.696 257.568C302.288 258 301.724 258.216 301.004 258.216ZM328.049 232.44C328.721 232.44 329.249 232.656 329.633 233.088C330.041 233.496 330.245 234.048 330.245 234.744V255.876C330.245 256.572 330.041 257.136 329.633 257.568C329.225 258 328.697 258.216 328.049 258.216C327.281 258.216 326.693 257.94 326.285 257.388L313.145 240.288V255.876C313.145 256.572 312.953 257.136 312.569 257.568C312.185 258 311.657 258.216 310.985 258.216C310.313 258.216 309.785 258 309.401 257.568C309.017 257.136 308.825 256.572 308.825 255.876V234.744C308.825 234.048 309.029 233.496 309.437 233.088C309.845 232.656 310.385 232.44 311.057 232.44C311.801 232.44 312.377 232.716 312.785 233.268L325.889 250.296V234.744C325.889 234.048 326.081 233.496 326.465 233.088C326.873 232.656 327.401 232.44 328.049 232.44ZM337.951 258C337.255 258 336.703 257.808 336.295 257.424C335.911 257.04 335.719 256.5 335.719 255.804V234.816C335.719 234.12 335.911 233.58 336.295 233.196C336.703 232.812 337.255 232.62 337.951 232.62H350.947C351.643 232.62 352.183 232.776 352.567 233.088C352.951 233.4 353.143 233.844 353.143 234.42C353.143 235.02 352.951 235.488 352.567 235.824C352.183 236.136 351.643 236.292 350.947 236.292H340.255V243.276H350.227C350.923 243.276 351.463 243.432 351.847 243.744C352.231 244.056 352.423 244.512 352.423 245.112C352.423 245.688 352.231 246.132 351.847 246.444C351.463 246.756 350.923 246.912 350.227 246.912H340.255V254.328H350.947C351.643 254.328 352.183 254.496 352.567 254.832C352.951 255.144 353.143 255.6 353.143 256.2C353.143 256.776 352.951 257.22 352.567 257.532C352.183 257.844 351.643 258 350.947 258H337.951ZM365.351 258.324C363.503 258.324 361.751 258.084 360.095 257.604C358.463 257.1 357.131 256.428 356.099 255.588C355.547 255.18 355.271 254.604 355.271 253.86C355.271 253.356 355.415 252.924 355.703 252.564C356.015 252.18 356.375 251.988 356.783 251.988C357.215 251.988 357.707 252.156 358.259 252.492C359.291 253.236 360.371 253.776 361.499 254.112C362.627 254.448 363.875 254.616 365.243 254.616C366.995 254.616 368.339 254.316 369.275 253.716C370.211 253.092 370.679 252.192 370.679 251.016C370.679 250.104 370.235 249.408 369.347 248.928C368.483 248.424 367.031 247.944 364.991 247.488C362.879 247.032 361.163 246.504 359.843 245.904C358.523 245.304 357.527 244.536 356.855 243.6C356.183 242.664 355.847 241.476 355.847 240.036C355.847 238.548 356.267 237.216 357.107 236.04C357.947 234.864 359.111 233.952 360.599 233.304C362.111 232.632 363.803 232.296 365.675 232.296C369.107 232.296 371.903 233.208 374.063 235.032C374.375 235.296 374.591 235.56 374.711 235.824C374.855 236.064 374.927 236.376 374.927 236.76C374.927 237.264 374.771 237.708 374.459 238.092C374.171 238.452 373.823 238.632 373.415 238.632C373.175 238.632 372.947 238.596 372.731 238.524C372.539 238.452 372.275 238.32 371.939 238.128C370.955 237.408 369.995 236.88 369.059 236.544C368.147 236.184 367.019 236.004 365.675 236.004C364.043 236.004 362.747 236.34 361.787 237.012C360.851 237.66 360.383 238.572 360.383 239.748C360.383 240.732 360.803 241.488 361.643 242.016C362.483 242.544 363.911 243.036 365.927 243.492C368.063 243.972 369.791 244.512 371.111 245.112C372.455 245.688 373.475 246.432 374.171 247.344C374.891 248.256 375.251 249.396 375.251 250.764C375.251 252.252 374.831 253.572 373.991 254.724C373.175 255.852 372.011 256.74 370.499 257.388C369.011 258.012 367.295 258.324 365.351 258.324Z" fill="#992211"/>
</g>
<defs>
<clipPath id="clip0">
<rect width="458" height="300" fill="white"/>
</clipPath>
</defs>
</svg>
