<svg width="42" height="26" viewBox="0 0 52 36" fill="none" xmlns="http://www.w3.org/2000/svg">
<path d="M50.4685 1.80482C47.3168 0.497411 44.1627 9.66502e-08 41.0103 9.66502e-08C31.0029 -0.000803475 20.9963 5.00946 10.9889 5.00946C8.47912 5.00946 5.97097 4.69446 3.4612 3.90696C3.17926 3.81857 2.89652 3.77679 2.62027 3.77679C1.22198 3.77679 0 4.84714 0 6.33295V31.8271C0 32.842 0.587428 33.8038 1.53073 34.1944C4.68236 35.5026 7.83644 36 10.9889 36C20.9963 36 31.0037 30.9897 41.0111 30.9897C43.5209 30.9897 46.029 31.3047 48.5388 32.0922C48.8207 32.1806 49.1035 32.2224 49.3797 32.2224C50.778 32.2224 52 31.1521 52 29.6662V4.17295C51.9992 3.15723 51.4118 2.19616 50.4685 1.80482V1.80482ZM25.9996 25.7143C22.4092 25.7143 19.4997 22.2597 19.4997 18C19.4997 13.7395 22.41 10.2857 25.9996 10.2857C29.5892 10.2857 32.4995 13.7395 32.4995 18C32.4995 22.2613 29.5884 25.7143 25.9996 25.7143Z" fill="white"/>
</svg>
