<svg width="44" height="40" viewBox="0 0 54 50" fill="none" xmlns="http://www.w3.org/2000/svg">
<path d="M46.6078 5.33362C45.19 4.0142 43.3259 3.20417 41.3396 3.04432C39.3532 2.88446 37.3702 3.38489 35.7351 4.45862C40.9911 6.51885 45.2848 10.29 47.8322 15.0836C48.8155 13.5636 49.2293 11.7771 49.0073 10.0097C48.7853 8.24224 47.9405 6.59586 46.6078 5.33362Z" fill="white"/>
<path d="M17.0293 4.76382C15.401 3.54628 13.3556 2.93201 11.2791 3.03691C9.20272 3.14182 7.2389 3.95866 5.75833 5.33326C4.28997 6.7248 3.42032 8.57856 3.31682 10.5376C3.21332 12.4967 3.88329 14.4225 5.19773 15.9444C7.56483 10.9861 11.7716 7.01083 17.0293 4.76382Z" fill="white"/>
<path d="M26.7366 5.55566C22.6588 5.56359 18.6747 6.70779 15.2865 8.84404C11.8984 10.9803 9.2577 14.013 7.69738 17.5599C6.13706 21.1068 5.72691 25.0092 6.51863 28.7752C7.31034 32.5413 9.26849 36.0024 12.1463 38.7223L8.38436 42.264C8.24777 42.3953 8.14 42.5507 8.0672 42.7212C7.99439 42.8917 7.95798 43.0741 7.96003 43.2579C7.96209 43.4417 8.00257 43.6233 8.07917 43.7923C8.15578 43.9614 8.267 44.1146 8.40649 44.2432C8.54597 44.3717 8.711 44.4732 8.89214 44.5418C9.07327 44.6103 9.26698 44.6446 9.46219 44.6426C9.6574 44.6407 9.8503 44.6026 10.0299 44.5305C10.2094 44.4584 10.3721 44.3537 10.5087 44.2223L14.4329 40.5279C18.0215 43.0845 22.4038 44.4587 26.9041 44.4386C31.4043 44.4186 35.7726 43.0053 39.3353 40.4168L43.3775 44.2223C43.6597 44.4499 44.0227 44.5688 44.394 44.5553C44.7653 44.5418 45.1175 44.3969 45.3803 44.1495C45.643 43.9021 45.7969 43.5706 45.8113 43.221C45.8256 42.8715 45.6993 42.5297 45.4576 42.264L41.4892 38.5834C44.3265 35.8474 46.2439 32.3844 47.0017 28.6277C47.7594 24.8711 47.3239 20.9875 45.7494 17.4626C44.175 13.9378 41.5316 10.9283 38.1498 8.81042C34.7681 6.69258 30.7982 5.56046 26.7366 5.55566ZM37.7568 29.764C37.5878 30.0949 37.2865 30.3493 36.9188 30.4716C36.5511 30.5939 36.147 30.5742 35.7947 30.4168L25.2613 25.6112V13.4584C25.2613 13.0901 25.4167 12.7368 25.6934 12.4763C25.9701 12.2159 26.3453 12.0696 26.7366 12.0696C27.1278 12.0696 27.5031 12.2159 27.7797 12.4763C28.0564 12.7368 28.2118 13.0901 28.2118 13.4584V23.8751L37.0634 27.9168C37.24 27.9931 37.3988 28.1014 37.5308 28.2357C37.6628 28.3699 37.7653 28.5273 37.8325 28.699C37.8997 28.8706 37.9301 29.0531 37.9222 29.2358C37.9143 29.4186 37.8681 29.5981 37.7863 29.764H37.7568Z" fill="white"/>
</svg>
