<svg width="100%" height="300" viewBox="0 0 502 334" fill="none" xmlns="http://www.w3.org/2000/svg">
<g id="private">
<path id="Vector" opacity="0.1" d="M57.2877 297.975C80.1 297.975 98.593 295.002 98.593 291.334C98.593 287.666 80.1 284.693 57.2877 284.693C34.4754 284.693 15.9824 287.666 15.9824 291.334C15.9824 295.002 34.4754 297.975 57.2877 297.975Z" fill="#6C63FF"/>
<path id="Vector_2" opacity="0.1" d="M427.836 334C468.285 334 501.075 330.813 501.075 326.881C501.075 322.949 468.285 319.762 427.836 319.762C387.388 319.762 354.598 322.949 354.598 326.881C354.598 330.813 387.388 334 427.836 334Z" fill="#6C63FF"/>
<path id="Vector_3" d="M494.146 0.463867H61.1848C57.9572 0.463867 55.3408 3.08283 55.3408 6.31348V246.738C55.3408 249.969 57.9572 252.588 61.1848 252.588H494.146C497.374 252.588 499.99 249.969 499.99 246.738V6.31348C499.99 3.08283 497.374 0.463867 494.146 0.463867Z" fill="url(#paint0_linear)"/>
<path id="Vector_4" d="M493.491 4.00977H61.8908C58.6633 4.00977 56.0469 6.62873 56.0469 9.85938V245.9C56.0469 249.131 58.6633 251.75 61.8908 251.75H493.491C496.718 251.75 499.335 249.131 499.335 245.9V9.85938C499.335 6.62873 496.718 4.00977 493.491 4.00977Z" fill="white"/>
<path id="Vector_5" d="M493.491 4.00977H61.8908C58.6633 4.00977 56.0469 6.62873 56.0469 9.85938V245.9C56.0469 249.131 58.6633 251.75 61.8908 251.75H493.491C496.718 251.75 499.335 249.131 499.335 245.9V9.85938C499.335 6.62873 496.718 4.00977 493.491 4.00977Z" fill="white"/>
<path id="Vector_6" opacity="0.04" d="M493.491 4.00977H61.8908C58.6633 4.00977 56.0469 6.62873 56.0469 9.85938V245.9C56.0469 249.131 58.6633 251.75 61.8908 251.75H493.491C496.718 251.75 499.335 249.131 499.335 245.9V9.85938C499.335 6.62873 496.718 4.00977 493.491 4.00977Z" fill="white"/>
<path id="Vector_7" d="M497.084 1.1665H58.2974C57.7005 1.1665 57.1281 1.40385 56.7061 1.82632C56.284 2.24879 56.0469 2.82178 56.0469 3.41925V12.9407H499.316V3.41925C499.316 2.82501 499.081 2.25484 498.663 1.8329C498.245 1.41097 497.678 1.17145 497.084 1.1665Z" fill="#5A5773"/>
<g id="buttons">
<path id="Vector_8" d="M64.8997 10.0982C66.5793 10.0982 67.941 8.73529 67.941 7.054C67.941 5.37272 66.5793 4.00977 64.8997 4.00977C63.22 4.00977 61.8584 5.37272 61.8584 7.054C61.8584 8.73529 63.22 10.0982 64.8997 10.0982Z" fill="white"/>
<path id="Vector_9" d="M73.0882 10.0982C74.7678 10.0982 76.1294 8.73529 76.1294 7.054C76.1294 5.37272 74.7678 4.00977 73.0882 4.00977C71.4085 4.00977 70.0469 5.37272 70.0469 7.054C70.0469 8.73529 71.4085 10.0982 73.0882 10.0982Z" fill="white"/>
<path id="Vector_10" d="M81.2757 10.0982C82.9553 10.0982 84.3169 8.73529 84.3169 7.054C84.3169 5.37272 82.9553 4.00977 81.2757 4.00977C79.596 4.00977 78.2344 5.37272 78.2344 7.054C78.2344 8.73529 79.596 10.0982 81.2757 10.0982Z" fill="white"/>
</g>
<path id="Vector_11" opacity="0.2" d="M211.518 35.084H92.5566V45.1909H211.518V35.084Z" fill="#6C63FF"/>
<path id="Vector_12" opacity="0.1" d="M462.826 75.6099H92.5566V231.081H462.826V75.6099Z" fill="#5A5773"/>
<g id="candado">
<path id="Vector_13" d="M333.856 75.0122H327.516V62.6854C327.516 48.7756 316.437 37.2122 302.54 37.0014C299.19 36.9662 295.865 37.5951 292.758 38.8519C289.651 40.1086 286.823 41.9685 284.438 44.3242C282.052 46.6799 280.156 49.4849 278.858 52.5775C277.56 55.6701 276.887 58.9892 276.877 62.3435V75.0122H270.551C267.755 75.0209 265.077 76.1363 263.1 78.1151C261.123 80.0938 260.009 82.775 260 85.5734V136.258C260.009 139.056 261.123 141.737 263.1 143.716C265.077 145.695 267.755 146.81 270.551 146.819H333.856C336.652 146.81 339.33 145.694 341.306 143.716C343.282 141.737 344.395 139.055 344.403 136.258V85.5734C344.395 82.7755 343.282 80.0942 341.306 78.1153C339.33 76.1365 336.652 75.0209 333.856 75.0122ZM305.9 107.96V126.113C305.906 127.074 305.547 128.002 304.895 128.708C304.244 129.414 303.349 129.846 302.391 129.916C301.891 129.94 301.391 129.861 300.922 129.686C300.453 129.511 300.025 129.242 299.663 128.896C299.301 128.55 299.012 128.134 298.815 127.674C298.618 127.213 298.517 126.717 298.517 126.216V107.951C296.805 107.115 295.427 105.724 294.607 104.003C293.787 102.283 293.574 100.335 294.002 98.4775C294.43 96.6201 295.475 94.9629 296.965 93.7762C298.456 92.5895 300.304 91.9435 302.208 91.9435C304.113 91.9435 305.961 92.5895 307.451 93.7762C308.942 94.9629 309.986 96.6201 310.414 98.4775C310.843 100.335 310.63 102.283 309.81 104.003C308.99 105.724 307.612 107.115 305.9 107.951V107.96ZM320.142 75.0122H284.26V62.3435C284.26 57.5824 286.15 53.0164 289.513 49.6498C292.876 46.2832 297.438 44.3919 302.194 44.3919C306.951 44.3919 311.512 46.2832 314.876 49.6498C318.239 53.0164 320.128 57.5824 320.128 62.3435L320.142 75.0122Z" fill="#992211"/>
</g>
<path id="Vector_14" opacity="0.1" d="M462.826 60.6465H425.348V69.5029H462.826V60.6465Z" fill="#5A5773"/>
<path id="Vector_15" d="M475.58 329.026C475.333 327.784 474.911 326.584 474.326 325.462L468.711 317.069H468.744C468.744 317.069 467.86 312.854 468.744 310.784C469.629 308.714 465.591 303.623 465.591 303.623C465.591 303.623 465.099 302.344 466.381 300.771C467.663 299.197 465.591 294.589 465.591 294.589C465.591 294.589 464.608 284.964 464.51 283.494C464.412 282.023 463.621 273.874 463.621 273.874L461.749 256.597L458.418 210.807L458.357 209.95C458.769 209.748 458.989 209.622 458.989 209.622L458.324 184.303L458.9 183.783C463.925 179.231 475.515 168.693 475.398 168.464C475.281 168.234 473.994 150.868 473.844 146.522C473.716 143.433 473.041 140.392 471.851 137.539C471.561 136.963 470.723 133.165 470.377 131.558C470.284 131.118 470.223 130.842 470.223 130.842C470.223 130.842 466.826 124.36 467.121 121.414C467.415 118.468 468.005 116.262 460.762 115.232C460.762 115.232 454.679 114.323 451.058 111.846C448.916 110.362 446.575 109.188 444.105 108.361C444.105 108.361 442.074 104.614 440.661 105.884C440.063 104.547 439.616 103.147 439.328 101.711L439.286 101.448C441.968 99.5761 443.898 96.8107 444.732 93.6457C444.779 93.4677 444.816 93.2851 444.858 93.1071C444.999 93.1547 445.145 93.1816 445.294 93.1867C446.524 93.1867 447.282 91.8145 448.433 91.3789C448.901 91.1963 449.476 91.1682 449.837 90.7982C449.956 90.6556 450.044 90.4903 450.097 90.3123C450.15 90.1344 450.167 89.9476 450.146 89.7631C450.157 89.6354 450.157 89.5069 450.146 89.3791C450.148 89.3339 450.148 89.2885 450.146 89.2433V89.2901C449.832 87.5853 448.513 86.0726 448.658 84.3397C448.798 82.7099 450.23 81.2768 450.113 79.6891C450.111 79.5635 450.1 79.4383 450.08 79.3144V79.3706C449.906 78.7507 449.585 78.182 449.144 77.7127C448.641 77.0258 447.98 76.47 447.217 76.0922C446.566 75.8065 445.813 75.7409 445.205 75.399C443.417 74.4249 443.422 71.8864 442.36 70.1536C441.905 69.4302 441.259 68.8466 440.494 68.4673C439.728 68.088 438.873 67.9276 438.023 68.0039C436.694 68.135 435.491 68.8422 434.177 69.0717C432.38 69.3902 430.55 68.8047 428.847 68.135C427.144 67.4653 425.418 66.73 423.588 66.73C421.759 66.73 419.78 67.6667 419.227 69.3949C418.933 70.3315 419.078 71.3385 418.853 72.2892C418.451 73.9659 416.982 75.1649 415.461 75.9985C414.525 76.5184 413.412 77.1132 413.121 78.0967C413.121 78.0686 413.121 78.0452 413.121 78.0218C413.101 78.1002 413.085 78.18 413.075 78.2606C413.065 78.365 413.065 78.47 413.075 78.5744C413.075 79.2488 413.43 79.8904 413.669 80.5321C414.114 81.7528 414.104 83.093 413.641 84.3069C413.295 85.1968 412.705 85.9789 412.368 86.8641C412.209 87.2764 412.106 87.7079 412.059 88.1474V88.0724C412.048 88.2721 412.048 88.4722 412.059 88.6719C412.054 89.3559 412.214 90.031 412.527 90.6389C412.742 91.0587 413.038 91.4313 413.399 91.7345C413.76 92.0378 414.178 92.2656 414.628 92.4046C415.564 92.62 416.149 91.7021 417.136 91.9363C417.313 91.9788 417.486 92.0336 417.655 92.1002C417.688 92.3109 417.721 92.5217 417.758 92.7278C418.355 95.8798 420.033 98.7241 422.503 100.769C422.503 100.882 422.54 100.994 422.554 101.111C422.853 102.978 422.983 104.869 422.942 106.759C422.942 106.759 421.469 104.6 419.447 108.769C419.447 108.769 414.174 111.813 412.354 112.159C410.534 112.506 404.072 114.759 404.072 114.759C403.098 115.464 401.925 115.843 400.722 115.841C398.706 115.841 397.031 120.257 397.274 122.66C397.517 125.062 397.129 126.833 395.253 126.931C393.377 127.029 394.401 130.837 394.415 130.902L394.242 131.722C393.877 133.399 393.082 136.996 392.801 137.558C391.611 140.411 390.935 143.452 390.803 146.54C390.658 150.887 389.399 168.187 389.254 168.482C389.156 168.674 397.096 175.938 402.678 181.015L403.488 181.746L400.919 205.763C400.994 206.688 401.269 207.586 401.724 208.395C402.18 209.203 402.805 209.903 403.558 210.446C403.558 210.727 403.558 211.013 403.53 211.308C403.417 214.118 403.193 217.518 402.744 218.408C401.958 219.982 402.154 228.421 402.154 228.421C402.154 228.421 401.363 245.6 400.381 247.469C399.398 249.337 399.197 253.257 399.492 254.025C399.787 254.794 398.505 275.424 398.505 275.424L397.522 284.655C397.522 284.655 397.817 293.488 396.928 293.685C396.039 293.882 395.548 299.97 395.548 299.97C395.548 299.97 392.399 304.288 393.774 305.857C395.15 307.426 393.573 308.119 393.428 308.508C393.283 308.897 390.424 310.381 392.492 315.87C392.511 315.924 392.533 315.978 392.558 316.03C390.621 318.723 384.482 327.41 384.856 328.731C385.133 329.571 385.718 330.275 386.494 330.698C387.94 331.564 390.419 331.967 394.364 330.698C400.914 328.586 400.446 327.064 400.446 327.064C400.48 326.352 400.785 325.68 401.298 325.187C401.812 324.694 402.495 324.417 403.207 324.413C405.916 324.216 407.937 321.715 407.937 321.715L407.619 320.53L407.184 318.891C407.235 318.423 407.568 317.603 409.056 317.149C411.325 316.46 410.731 312.142 410.731 312.142C410.731 312.142 410.534 307.627 411.517 307.037C412.499 306.447 412.111 298.986 412.111 298.986C412.111 298.986 413.196 293.586 414.768 289.952C416.341 286.318 418.221 264.727 418.221 264.727C418.221 264.727 419.499 254.124 420.683 251.08C421.866 248.035 422.952 239.497 422.952 239.497C422.952 239.497 430.246 225.358 430.34 222.216C430.34 222.216 431.276 219.27 432.211 222.511C433.147 225.752 435.777 233.507 435.777 233.507L438.336 243.029L441.391 257.262L443.366 269.242C443.366 269.242 443.066 273.757 443.834 275.33C444.601 276.904 445.705 280.529 445.116 281.217C444.526 281.906 446.295 285.147 446.791 285.831C447.287 286.514 446.791 301.047 446.791 301.047C446.791 301.047 449.055 313.416 452.307 315.566C452.534 315.715 452.775 315.841 453.028 315.941C452.981 317.28 452.934 319.074 452.995 320.01C452.988 320.22 453.023 320.428 453.098 320.624C453.393 321.017 456.743 323.668 457.435 323.668C458.128 323.668 460.584 325.387 460.687 326.221C460.79 327.054 467.888 330.586 468.894 330.689C469.9 330.792 474.775 331.668 475.444 330.295C475.61 329.894 475.657 329.453 475.58 329.026ZM458.142 152.123L458.647 152.559C458.647 152.559 459.166 156.61 459.536 157.823C459.906 159.036 459.461 161.396 459.461 161.396C459.495 162.277 459.671 163.147 459.981 163.972C460.42 164.857 459.092 166.782 459.092 166.782H457.908L457.538 151.617L458.142 152.123ZM422.942 106.844V106.755C422.933 106.783 422.928 106.816 422.928 106.844H422.942ZM404.765 165.223C404.583 164.83 404.556 164.384 404.69 163.972C404.795 163.75 404.878 163.518 404.938 163.279C405.083 162.664 405.174 162.037 405.209 161.406C405.21 161.398 405.21 161.39 405.209 161.382C405.167 161.158 404.788 158.984 405.139 157.832C405.49 156.68 406.024 152.568 406.024 152.568L406.36 152.282L407.142 151.603C407.142 151.603 407.142 151.35 407.198 150.934C407.362 154.493 407.493 158.427 407.282 158.624C406.889 159.012 405.457 162.839 405.804 162.989C405.916 163.04 405.762 164.572 405.5 166.632C405.205 166.19 404.959 165.717 404.765 165.223Z" fill="url(#paint1_linear)"/>
<path id="Vector_16" d="M442.477 110.586V116.412L430.537 122.421C430.537 122.421 418.68 115.241 421.605 112.384C423.476 110.576 423.116 105.612 422.611 102.198C422.316 100.212 421.974 98.7555 421.974 98.7555C421.974 98.7555 443.272 92.667 440.053 97.2896C438.977 98.8351 438.893 100.835 439.253 102.816C439.983 106.745 442.477 110.586 442.477 110.586Z" fill="#C37098"/>
<path id="Vector_17" d="M409.767 167.56L408.228 186.537C408.228 186.537 405.921 184.444 402.936 181.718C397.401 176.665 389.54 169.438 389.634 169.246C389.779 168.951 391.037 151.735 391.173 147.407C391.301 144.335 391.969 141.31 393.147 138.471C393.428 137.909 394.219 134.331 394.551 132.659C394.663 132.139 394.734 131.802 394.734 131.802L397.316 130.762C397.316 130.762 408.078 142.78 408.078 143C408.078 143.22 407.343 152.451 407.343 152.451L406.581 153.116L406.248 153.402C406.248 153.402 405.734 157.434 405.369 158.643C405.004 159.851 405.397 161.949 405.439 162.174C405.405 162.805 405.315 163.432 405.172 164.047C405.111 164.284 405.028 164.515 404.924 164.736C404.792 165.146 404.819 165.59 404.999 165.982C405.207 166.525 405.477 167.042 405.804 167.523L409.767 167.56Z" fill="#3F3D56"/>
<path id="Vector_18" d="M474.986 169.246C475.099 169.475 463.621 179.961 458.648 184.49L456.393 186.537L454.867 167.56H458.821C458.821 167.56 460.14 165.653 459.7 164.773C459.394 163.952 459.222 163.087 459.19 162.211C459.19 162.211 459.626 159.869 459.261 158.656C458.896 157.443 458.381 153.416 458.381 153.416L457.88 152.985L457.286 152.465C457.286 152.465 456.552 143.234 456.552 143.014C456.552 142.794 467.313 130.776 467.313 130.776L469.877 131.802C469.877 131.802 469.933 132.078 470.027 132.518C470.373 134.115 471.201 137.895 471.487 138.471C472.665 141.31 473.333 144.335 473.461 147.407C473.583 151.734 474.837 168.951 474.986 169.246Z" fill="#3F3D56"/>
<path id="Vector_19" d="M475.033 330.328C474.345 331.696 469.516 330.797 468.52 330.722C467.523 330.647 460.486 327.101 460.388 326.272C460.29 325.443 457.852 323.734 457.169 323.734C456.486 323.734 453.168 321.092 452.874 320.704C452.799 320.51 452.766 320.303 452.775 320.095C452.672 318.489 452.874 314.353 452.874 314.353L467.027 315.135L473.905 325.49C474.485 326.607 474.904 327.801 475.15 329.036C475.233 329.469 475.193 329.917 475.033 330.328Z" fill="#3F3D56"/>
<path id="Vector_20" opacity="0.1" d="M475.033 330.328C474.345 331.696 469.516 330.797 468.52 330.722C467.523 330.647 460.486 327.101 460.388 326.272C460.29 325.443 457.852 323.734 457.169 323.734C456.486 323.734 453.168 321.092 452.874 320.704C452.799 320.51 452.766 320.303 452.775 320.095C452.672 318.489 452.874 314.353 452.874 314.353L467.027 315.135L473.905 325.49C474.485 326.607 474.904 327.801 475.15 329.036C475.233 329.469 475.193 329.917 475.033 330.328Z" fill="black"/>
<path id="Vector_21" opacity="0.1" d="M475.033 330.328C474.345 331.696 469.516 330.796 468.52 330.721C467.523 330.647 460.486 327.101 460.388 326.272C460.289 325.443 457.852 323.734 457.169 323.734C456.485 323.734 453.168 321.092 452.873 320.704C452.799 320.51 452.765 320.302 452.775 320.095L457.36 322.998C457.36 322.998 460.289 324.872 461.071 325.982C461.852 327.092 468.01 329.401 468.52 329.448C468.899 329.485 472.941 328.708 475.15 329.035C475.233 329.469 475.192 329.917 475.033 330.328Z" fill="black"/>
<path id="Vector_22" d="M408.125 321.781C408.125 321.781 406.122 324.273 403.446 324.465C402.739 324.47 402.062 324.747 401.554 325.237C401.045 325.728 400.744 326.395 400.713 327.102C400.713 327.102 401.181 328.619 394.71 330.722C390.803 331.982 388.347 331.584 386.915 330.722C386.147 330.297 385.567 329.598 385.292 328.764C384.852 327.205 393.489 315.332 393.489 315.332L401.35 314.864L406.964 317.402L407.825 320.62L408.125 321.781Z" fill="#3F3D56"/>
<path id="Vector_23" opacity="0.1" d="M408.125 321.781C408.125 321.781 406.122 324.273 403.446 324.465C402.739 324.47 402.062 324.747 401.554 325.237C401.045 325.728 400.744 326.395 400.713 327.102C400.713 327.102 401.181 328.619 394.71 330.722C390.803 331.982 388.347 331.584 386.915 330.722C386.147 330.297 385.567 329.598 385.292 328.764C384.852 327.205 393.489 315.332 393.489 315.332L401.35 314.864L406.964 317.402L407.825 320.62L408.125 321.781Z" fill="black"/>
<path id="Vector_24" opacity="0.1" d="M408.124 321.781C408.124 321.781 406.122 324.272 403.446 324.464C402.739 324.47 402.062 324.746 401.554 325.237C401.045 325.728 400.744 326.395 400.713 327.101C400.713 327.101 401.181 328.619 394.71 330.721C390.803 331.981 388.347 331.583 386.915 330.721C390.597 330.337 398.734 328.01 399.548 327.204C400.526 326.225 401.747 323.537 402.575 323.49C403.151 323.453 406.075 321.692 407.83 320.601L408.124 321.781Z" fill="black"/>
<path id="Vector_25" d="M468.394 310.887C467.514 312.939 468.394 317.14 468.394 317.14C468.394 317.14 455.293 317.823 452.093 315.674C448.892 313.524 446.628 301.211 446.628 301.211C446.628 301.211 447.096 286.753 446.628 286.07C446.16 285.386 444.382 282.164 444.967 281.48C445.552 280.796 444.499 277.181 443.699 275.616C442.899 274.052 443.231 269.561 443.231 269.561L441.275 257.637L438.253 243.474L435.684 233.995C435.684 233.995 433.05 226.276 432.156 223.054C431.262 219.832 430.317 222.759 430.317 222.759C430.224 225.887 422.999 239.957 422.999 239.957C422.999 239.957 421.923 248.457 420.753 251.483C419.584 254.508 418.311 265.064 418.311 265.064C418.311 265.064 416.44 286.557 414.895 290.172C413.351 293.788 412.289 299.16 412.289 299.16C412.289 299.16 412.682 306.588 411.704 307.173C410.727 307.759 410.886 312.255 410.886 312.255C410.886 312.255 411.471 316.55 409.225 317.238C406.979 317.926 407.353 319.388 407.353 319.388C407.353 319.388 394.86 321.439 392.811 315.964C390.762 310.489 393.592 309.033 393.747 308.639C393.901 308.246 395.459 307.567 394.093 305.998C392.727 304.429 395.848 300.139 395.848 300.139C395.848 300.139 396.339 294.083 397.214 293.886C398.089 293.69 397.803 284.899 397.803 284.899L398.777 275.715C398.777 275.715 400.049 255.196 399.755 254.414C399.46 253.632 399.656 249.731 400.634 247.858C401.612 245.984 402.389 228.899 402.389 228.899C402.389 228.899 402.192 220.502 402.974 218.937C403.442 218.052 403.638 214.647 403.75 211.87C403.835 209.748 403.853 207.992 403.853 207.992L414.783 203.889L428.82 199.398L440.629 205.065L457.909 208.385L458.124 211.369L461.422 256.943L463.294 274.136C463.294 274.136 464.075 282.243 464.174 283.709C464.272 285.175 465.245 294.753 465.245 294.753C465.245 294.753 467.294 299.343 466.026 300.907C464.758 302.471 465.245 303.717 465.245 303.717C465.245 303.717 469.274 308.836 468.394 310.887Z" fill="#3F3D56"/>
<path id="Vector_26" opacity="0.1" d="M440.063 97.2894C438.987 98.8349 438.902 100.835 439.263 102.816C436.804 104.552 433.843 105.432 430.836 105.319C427.829 105.207 424.942 104.108 422.62 102.193C422.325 100.207 421.983 98.7506 421.983 98.7506C421.983 98.7506 443.282 92.6715 440.063 97.2894Z" fill="black"/>
<path id="Vector_27" d="M445.041 91.3134C445.041 94.0275 444.237 96.6806 442.731 98.9373C441.225 101.194 439.083 102.953 436.578 103.991C434.073 105.03 431.317 105.302 428.658 104.772C425.998 104.243 423.556 102.936 421.638 101.017C419.721 99.0976 418.415 96.6525 417.886 93.9906C417.358 91.3287 417.629 88.5695 418.667 86.0621C419.704 83.5546 421.461 81.4115 423.716 79.9036C425.97 78.3958 428.621 77.591 431.332 77.591C433.135 77.5823 434.922 77.9313 436.589 78.6179C438.256 79.3044 439.771 80.3149 441.045 81.5908C442.32 82.8668 443.33 84.383 444.015 86.0518C444.701 87.7206 445.05 89.509 445.041 91.3134Z" fill="#C37098"/>
<path id="Vector_28" opacity="0.1" d="M447.895 114.117L443.404 194.18L419.003 189.052L414.17 156.956L418.956 113.869L422.559 114.332L428.913 115.143L435.206 115.531L442.028 114.773L447.895 114.117Z" fill="black"/>
<path id="Vector_29" d="M447.895 114.703L443.404 194.766L419.003 189.638L414.17 157.542L418.956 114.459L422.559 114.918L428.913 115.728L435.206 116.117L442.028 115.358L447.895 114.703Z" fill="#992211"/>
<path id="Vector_30" d="M427.837 116.853L436.624 117.148L434.153 120.609C434.153 120.609 434.327 127.601 435.501 129.606C436.675 131.61 436.329 162.577 436.329 162.577L433.99 167.022L429.989 162.038L430.041 121.152L427.837 116.853Z" fill="#3F3D56"/>
<path id="Vector_31" opacity="0.1" d="M427.837 116.853L436.624 117.148L434.153 120.609C434.153 120.609 434.327 127.601 435.501 129.606C436.675 131.61 436.329 162.577 436.329 162.577L433.99 167.022L429.989 162.038L430.041 121.152L427.837 116.853Z" fill="black"/>
<path id="Vector_32" opacity="0.1" d="M441.597 107.767L433.399 116.853L438.083 121.737L445.845 114.164L441.597 107.767Z" fill="black"/>
<path id="Vector_33" d="M441.597 107.181L433.399 116.267L438.083 121.152L445.845 113.579L441.597 107.181Z" fill="#992211"/>
<path id="Vector_34" opacity="0.1" d="M429.937 116.412L421.637 108.108L420.855 112.455L424.664 121.981L429.937 116.412Z" fill="black"/>
<path id="Vector_35" d="M430.228 115.827L421.932 107.523L421.15 111.869L424.959 121.395L430.228 115.827Z" fill="#992211"/>
<path id="Vector_36" opacity="0.1" d="M458.166 211.383C454.182 213.283 449.915 214.518 445.533 215.041C437.48 216.066 432.212 205.81 432.212 205.81L429.138 209.814C428.16 214.067 413.276 215.139 407.227 213.528C405.971 213.218 404.791 212.659 403.755 211.884C403.839 209.763 403.858 208.006 403.858 208.006L414.788 203.904L428.824 199.412L440.634 205.079L457.913 208.4L458.166 211.383Z" fill="black"/>
<path id="Vector_37" opacity="0.1" d="M447.895 114.707L443.408 194.766L419.003 189.638L414.16 157.547L418.942 114.459L422.545 114.927C422.453 116.497 422.276 118.06 422.016 119.611C421.431 122.351 425.043 141.792 425.043 141.792C425.043 141.792 431.907 163.593 434.995 160.45C438.083 157.308 442.482 140.714 442.482 140.714C445.462 134.56 442.533 117.297 442.313 116.951C442.16 116.44 442.066 115.914 442.032 115.382L447.895 114.707Z" fill="black"/>
<path id="Vector_38" opacity="0.1" d="M458.437 176.66L458.643 184.505L456.388 186.551L454.867 167.56H458.236L458.437 176.66Z" fill="black"/>
<path id="Vector_39" opacity="0.1" d="M405.444 162.188C405.409 162.819 405.32 163.446 405.177 164.061C405.177 163.888 405.177 163.79 405.139 163.776C404.999 163.738 405.167 163.022 405.444 162.188Z" fill="black"/>
<path id="Vector_40" opacity="0.1" d="M409.767 167.56L408.227 186.537C408.227 186.537 405.921 184.444 402.936 181.718L403.291 178.355C403.291 178.355 404.55 170.094 405.008 166.019C405.216 166.562 405.486 167.079 405.813 167.56H409.767Z" fill="black"/>
<path id="Vector_41" d="M423.004 107.813C423.004 107.813 421.544 105.664 419.541 109.813C419.541 109.813 414.32 112.843 412.523 113.185C410.726 113.527 404.335 115.775 404.335 115.775C403.37 116.474 402.208 116.849 401.017 116.848C399.015 116.848 397.354 121.245 397.597 123.639C397.84 126.032 397.452 127.793 395.599 127.891C393.746 127.99 394.766 131.844 394.766 131.844L407.114 146.011C407.114 146.011 407.895 159.055 407.507 159.448C407.119 159.842 405.701 163.663 406.043 163.794C406.384 163.926 404.171 178.351 404.171 178.351L401.195 206.344C401.195 206.344 401.195 211.027 407.25 212.643C413.304 214.259 428.197 213.191 429.156 208.938L432.23 204.929C432.23 204.929 437.499 215.191 445.551 214.165C453.604 213.139 458.732 210.207 458.732 210.207L457.852 176.66L457.267 152.479L469.839 131.802C469.839 131.802 466.47 125.353 466.765 122.435C467.06 119.517 467.64 117.307 460.467 116.281C460.467 116.281 454.418 115.377 450.852 112.909C448.734 111.436 446.418 110.27 443.974 109.443C443.974 109.443 441.962 105.696 440.563 106.98C440.563 106.98 441.967 112.277 441.85 113.068C441.733 113.86 442.07 117.438 442.29 117.808C442.51 118.178 445.439 135.417 442.458 141.572C442.458 141.572 438.084 158.165 434.972 161.308C431.861 164.45 425.02 142.649 425.02 142.649C425.02 142.649 421.408 123.203 421.993 120.468C422.578 117.733 423.004 107.813 423.004 107.813Z" fill="#3F3D56"/>
<path id="Vector_42" d="M433.446 171.859C434.633 171.859 435.594 170.897 435.594 169.71C435.594 168.523 434.633 167.56 433.446 167.56C432.26 167.56 431.299 168.523 431.299 169.71C431.299 170.897 432.26 171.859 433.446 171.859Z" fill="#3F3D56"/>
<path id="Vector_43" d="M433.446 181.994C434.633 181.994 435.594 181.032 435.594 179.845C435.594 178.657 434.633 177.695 433.446 177.695C432.26 177.695 431.299 178.657 431.299 179.845C431.299 181.032 432.26 181.994 433.446 181.994Z" fill="#3F3D56"/>
<path id="Vector_44" opacity="0.1" d="M433.446 171.859C434.633 171.859 435.594 170.897 435.594 169.71C435.594 168.523 434.633 167.56 433.446 167.56C432.26 167.56 431.299 168.523 431.299 169.71C431.299 170.897 432.26 171.859 433.446 171.859Z" fill="black"/>
<path id="Vector_45" opacity="0.1" d="M433.446 181.994C434.633 181.994 435.594 181.032 435.594 179.845C435.594 178.657 434.633 177.695 433.446 177.695C432.26 177.695 431.299 178.657 431.299 179.845C431.299 181.032 432.26 181.994 433.446 181.994Z" fill="black"/>
<path id="Vector_46" opacity="0.1" d="M452.747 307.956C452.747 307.956 461.562 308.639 462.437 309.323C463.312 310.007 452.747 307.956 452.747 307.956Z" fill="black" stroke="#6C63FF" stroke-miterlimit="10"/>
<path id="Vector_47" opacity="0.1" d="M400.264 301.019C400.264 301.019 402.135 303.361 401.34 304.438C400.544 305.515 400.264 301.019 400.264 301.019Z" fill="black" stroke="#6C63FF" stroke-miterlimit="10"/>
<path id="Vector_48" opacity="0.1" d="M402.51 309.463C402.51 309.463 405.925 307.215 407.292 308.709C408.658 310.203 402.51 309.463 402.51 309.463Z" fill="black" stroke="#6C63FF" stroke-miterlimit="10"/>
<path id="Vector_49" opacity="0.1" d="M445.041 91.3134C445.043 92.4843 444.896 93.6507 444.601 94.7838C444.312 94.6521 444.071 94.4353 443.909 94.1625C443.746 93.8896 443.671 93.5737 443.693 93.257C443.754 92.6997 444.124 92.1892 444.044 91.6365C443.927 90.7842 442.898 90.4376 442.355 89.7632C441.686 88.9482 441.831 87.7633 441.887 86.7096C441.943 85.6558 441.677 84.3678 440.689 84.0072C440.395 83.8995 440.072 83.8901 439.786 83.7684C439.01 83.4405 438.771 82.4757 438.252 81.8107C437.213 80.4712 435.15 80.4993 433.573 81.1363C432.887 81.4656 432.184 81.7595 431.467 82.0168C431.109 82.1434 430.728 82.1942 430.348 82.166C429.969 82.1378 429.6 82.0312 429.264 81.8528C428.955 81.6561 428.707 81.3845 428.389 81.1878C427.331 80.5508 425.946 81.1878 425.029 82.0074C424.112 82.827 423.378 83.9276 422.222 84.4287C421.702 84.6629 421.061 84.8034 420.818 85.3092C420.698 85.5846 420.646 85.8852 420.668 86.185C420.668 88.0069 420.884 89.8568 420.505 91.6412C420.261 92.7887 419.457 94.0907 418.292 93.9502C418.146 93.9287 418.004 93.8926 417.866 93.8425C417.515 91.9667 417.559 90.0383 417.995 88.1805C418.431 86.3227 419.249 84.5764 420.397 83.0531C421.546 81.5297 422.999 80.2628 424.664 79.3334C426.329 78.4039 428.169 77.8323 430.068 77.655C431.966 77.4778 433.88 77.6988 435.688 78.3039C437.496 78.9091 439.158 79.8851 440.568 81.1695C441.978 82.454 443.105 84.0187 443.877 85.7637C444.649 87.5087 445.048 89.3957 445.05 91.304L445.041 91.3134Z" fill="black"/>
<path id="Vector_50" d="M417.254 93.0649C417.605 93.1445 417.937 93.3272 418.297 93.374C419.462 93.5145 420.267 92.2125 420.51 91.0651C420.889 89.2807 420.693 87.4307 420.679 85.6089C420.653 85.3094 420.703 85.0081 420.824 84.7331C421.09 84.2273 421.731 84.0868 422.227 83.8526C423.36 83.3468 424.099 82.2696 425.035 81.4312C425.971 80.5929 427.332 79.9747 428.39 80.6116C428.703 80.799 428.956 81.08 429.265 81.2767C429.602 81.4525 429.972 81.5576 430.352 81.5858C430.732 81.614 431.113 81.5646 431.473 81.4406C432.198 81.2252 432.877 80.8458 433.574 80.5601C435.136 79.9232 437.205 79.8998 438.253 81.2298C438.772 81.8996 439.011 82.8597 439.787 83.1875C440.073 83.3093 440.396 83.3234 440.69 83.4311C441.678 83.8011 441.93 85.0796 441.888 86.1334C441.846 87.1872 441.706 88.3721 442.356 89.187C442.899 89.8521 443.928 90.1986 444.045 91.0604C444.12 91.613 443.755 92.1282 443.694 92.6809C443.68 92.8863 443.707 93.0924 443.773 93.2873C443.84 93.4822 443.944 93.662 444.08 93.8162C444.217 93.9704 444.382 94.0961 444.567 94.1858C444.752 94.2755 444.953 94.3275 445.159 94.3388C446.375 94.3388 447.128 92.9759 448.265 92.5404C448.733 92.3577 449.299 92.3296 449.669 91.9596C449.807 91.7818 449.904 91.5761 449.954 91.357C450.004 91.1378 450.006 90.9104 449.959 90.6904C449.73 88.8966 448.294 87.3371 448.448 85.5386C448.593 83.8151 450.188 82.3117 449.852 80.6163C449.68 79.9912 449.359 79.4173 448.916 78.9443C448.414 78.2639 447.76 77.7105 447.007 77.3286C446.356 77.0475 445.603 76.982 445.009 76.6401C443.24 75.6706 443.245 73.1416 442.202 71.4181C441.754 70.7058 441.119 70.1306 440.366 69.7556C439.613 69.3805 438.772 69.2201 437.934 69.2918C436.62 69.4229 435.427 70.1207 434.126 70.3549C432.343 70.6734 430.537 70.0879 428.848 69.4182C427.159 68.7485 425.451 68.0132 423.64 68.0132C421.83 68.0132 419.869 68.9499 419.317 70.664C419.027 71.6007 419.172 72.603 418.948 73.5443C418.555 75.2163 417.076 76.4059 415.588 77.2349C414.563 77.8063 413.333 78.4619 413.211 79.6281C413.132 80.3681 413.539 81.0332 413.796 81.7497C414.234 82.962 414.224 84.2909 413.768 85.4965C413.426 86.3816 412.856 87.1591 412.509 88.0396C412.264 88.6372 412.147 89.2801 412.168 89.926C412.189 90.5719 412.347 91.206 412.631 91.7863C412.849 92.2095 413.151 92.5835 413.519 92.8855C413.887 93.1876 414.312 93.4112 414.769 93.5426C415.691 93.7627 416.271 92.8495 417.254 93.0649Z" fill="#3F3D56"/>
<g id="Group" opacity="0.1">
<path id="Vector_51" opacity="0.1" d="M420.51 90.0442C420.267 91.1916 419.457 92.4936 418.292 92.3531C417.932 92.3063 417.604 92.1236 417.249 92.044C416.271 91.8286 415.691 92.7465 414.769 92.5124C414.311 92.381 413.885 92.1574 413.517 91.8554C413.148 91.5534 412.845 91.1793 412.626 90.7561C412.381 90.2794 412.233 89.7588 412.191 89.2246C412.098 90.0539 412.249 90.8923 412.626 91.6366C412.845 92.0598 413.148 92.4339 413.517 92.7359C413.885 93.0379 414.311 93.2614 414.769 93.3928C415.705 93.6083 416.271 92.6903 417.249 92.9245C417.591 93.0438 417.939 93.1454 418.292 93.2289C419.457 93.3741 420.267 92.0721 420.51 90.9247C420.702 89.9109 420.777 88.8785 420.735 87.8477C420.73 88.5853 420.655 89.3209 420.51 90.0442Z" fill="black"/>
<path id="Vector_52" opacity="0.1" d="M414.1 82.9906C414.16 82.2231 414.054 81.4518 413.791 80.7285C413.58 80.2476 413.4 79.7532 413.253 79.2485C413.233 79.3272 413.217 79.4069 413.206 79.4874C413.127 80.2227 413.539 80.8924 413.791 81.609C413.955 82.0539 414.058 82.5184 414.1 82.9906Z" fill="black"/>
<path id="Vector_53" opacity="0.1" d="M449.847 80.5225C449.627 81.8526 448.551 83.103 448.443 84.5034C448.417 84.7431 448.417 84.9849 448.443 85.2246C448.677 83.5901 450.123 82.1429 449.847 80.5225Z" fill="black"/>
<path id="Vector_54" opacity="0.1" d="M449.926 90.4048C449.887 90.6006 449.794 90.782 449.66 90.9293C449.313 91.2993 448.724 91.3274 448.256 91.5101C447.119 91.9456 446.384 93.3226 445.149 93.3085C444.833 93.2906 444.53 93.1772 444.279 92.9832C444.028 92.7892 443.842 92.5238 443.746 92.222C443.717 92.3235 443.695 92.4267 443.68 92.5311C443.667 92.7361 443.694 92.9417 443.761 93.1361C443.827 93.3304 443.932 93.5097 444.068 93.6634C444.204 93.8171 444.369 93.9423 444.554 94.0317C444.739 94.1211 444.94 94.173 445.144 94.1843C446.366 94.1843 447.114 92.8215 448.251 92.3906C448.719 92.2079 449.29 92.1798 449.655 91.8098C449.792 91.632 449.89 91.4263 449.94 91.2072C449.99 90.988 449.992 90.7606 449.945 90.5406C449.94 90.4844 449.931 90.4469 449.926 90.4048Z" fill="black"/>
<path id="Vector_55" opacity="0.1" d="M444.059 90.016C443.942 89.1636 442.913 88.817 442.37 88.1426C442.037 87.6996 441.857 87.1607 441.855 86.6064C441.818 87.4776 441.832 88.3674 442.37 89.0231C442.908 89.6788 443.727 89.9598 443.989 90.6342C444.055 90.4353 444.079 90.2247 444.059 90.016Z" fill="black"/>
<path id="Vector_56" opacity="0.1" d="M441.883 85.1123C441.92 84.0585 441.668 82.7706 440.68 82.4099C440.39 82.3022 440.068 82.2882 439.782 82.1711C439.005 81.8432 438.762 80.8785 438.247 80.2134C437.204 78.8786 435.141 78.902 433.569 79.539C432.867 79.8247 432.198 80.204 431.468 80.4195C431.109 80.5461 430.728 80.5969 430.349 80.5687C429.969 80.5405 429.6 80.4339 429.264 80.2556C428.955 80.0589 428.702 79.7872 428.389 79.5905C427.327 78.9536 425.942 79.5905 425.03 80.4101C424.117 81.2297 423.378 82.3256 422.222 82.8314C421.698 83.0656 421.062 83.2061 420.79 83.7119C420.671 83.9876 420.622 84.2883 420.645 84.5877C420.645 84.7704 420.645 84.953 420.645 85.1357C420.652 84.947 420.698 84.7618 420.781 84.5924C421.053 84.0866 421.689 83.9461 422.213 83.7119C423.345 83.2061 424.084 82.1289 425.02 81.2906C425.956 80.4523 427.318 79.834 428.38 80.471C428.693 80.6583 428.946 80.9393 429.255 81.1314C429.59 81.3108 429.96 81.418 430.339 81.4463C430.719 81.4745 431.1 81.4231 431.458 81.2953C432.173 81.0405 432.875 80.7481 433.559 80.4195C435.127 79.7825 437.19 79.7544 438.238 81.0892C438.753 81.7543 438.996 82.719 439.773 83.0469C440.058 83.1686 440.381 83.1827 440.671 83.2904C441.471 83.5902 441.789 84.4894 441.86 85.3792L441.883 85.1123Z" fill="black"/>
</g>
<g id="Group_2" opacity="0.1">
<path id="Vector_57" opacity="0.1" d="M418.839 90.0159C418.866 89.2386 419.144 88.491 419.632 87.8854C420.12 87.2799 420.79 86.8491 421.544 86.6579C423.63 86.1474 425.819 86.2466 427.851 86.9436C432.291 88.4142 427.289 93.7065 427.289 93.7065C427.289 93.7065 423.963 96.9849 420.861 94.6947C419.944 94.0015 419.303 93.006 419.05 91.8846C418.898 91.2737 418.827 90.6454 418.839 90.0159Z" fill="black"/>
<path id="Vector_58" opacity="0.1" d="M443.249 90.0158C443.222 89.2378 442.943 88.4897 442.454 87.8841C441.966 87.2784 441.294 86.8481 440.54 86.6577C438.455 86.1481 436.268 86.2473 434.237 86.9434C429.797 88.414 434.799 93.7063 434.799 93.7063C434.799 93.7063 438.121 96.9847 441.227 94.6945C442.144 94.0013 442.785 93.0058 443.038 91.8844C443.19 91.2735 443.261 90.6452 443.249 90.0158Z" fill="black"/>
<path id="Vector_59" opacity="0.1" d="M427.014 86.5129V86.733H435.122V86.4707L427.014 86.5129Z" fill="black"/>
<path id="Vector_60" opacity="0.1" d="M429.601 88.859H429.858V88.1143C429.858 88.1143 430.681 87.4727 432.048 88.1143V88.7794H432.515V88.3438H432.286C432.286 88.3438 432.38 87.4399 430.854 87.5851C430.854 87.5851 429.629 87.468 429.657 88.2455H429.376L429.601 88.859Z" fill="black"/>
</g>
<path id="Vector_61" d="M418.839 89.7117C418.866 88.9344 419.144 88.1867 419.632 87.5812C420.12 86.9756 420.791 86.5449 421.544 86.3537C423.63 85.8466 425.818 85.9457 427.851 86.6394C432.291 88.1146 427.289 93.4023 427.289 93.4023C427.289 93.4023 423.963 96.6807 420.861 94.3905C419.943 93.699 419.301 92.7027 419.05 91.5804C418.898 90.9695 418.827 90.3412 418.839 89.7117Z" fill="#992211"/>
<path id="Vector_62" d="M443.249 89.7118C443.222 88.9338 442.943 88.1857 442.454 87.5801C441.966 86.9745 441.294 86.5441 440.54 86.3538C438.454 85.8465 436.268 85.9457 434.237 86.6395C429.797 88.1147 434.799 93.4024 434.799 93.4024C434.799 93.4024 438.121 96.6808 441.227 94.3906C442.145 93.6991 442.787 92.7028 443.038 91.5805C443.191 90.9696 443.261 90.3413 443.249 89.7118Z" fill="#992211"/>
<path id="Vector_63" d="M427.014 86.2179V86.4427H435.122V86.1758L427.014 86.2179Z" fill="#6C63FF"/>
<path id="Vector_64" d="M429.601 88.5642H429.858V87.8195C429.858 87.8195 430.681 87.1826 432.048 87.8195V88.4892H432.515V88.049H432.286C432.286 88.049 432.38 87.1498 430.854 87.2903C430.854 87.2903 429.629 87.1779 429.657 87.9507H429.376L429.601 88.5642Z" fill="#6C63FF"/>
<path id="Vector_65" d="M58.6156 164.122H55.958V224.023H58.6156V164.122Z" fill="#535461"/>
<path id="Vector_66" d="M75.3202 223.841L75.1517 226.538L74.9178 230.346L74.8195 231.934L74.5856 235.746L74.4827 237.334L74.2487 241.141L71.5677 284.449C71.4533 286.313 70.6331 288.063 69.2742 289.342C67.9153 290.621 66.1201 291.334 64.2546 291.334H50.3209C48.4559 291.334 46.6612 290.621 45.303 289.342C43.9449 288.062 43.1256 286.312 43.0124 284.449L40.3174 241.141L40.0834 237.334L39.9852 235.746L39.7559 231.924L39.6576 230.337L39.4237 226.529L39.2553 223.831C39.2233 223.314 39.2977 222.795 39.4737 222.307C39.6497 221.819 39.9238 221.372 40.2788 220.995C40.6339 220.617 41.0626 220.316 41.5384 220.11C42.0141 219.904 42.5269 219.798 43.0452 219.799H71.535C72.0538 219.798 72.5673 219.905 73.0435 220.111C73.5197 220.317 73.9485 220.619 74.3034 220.998C74.6582 221.377 74.9316 221.825 75.1065 222.314C75.2814 222.803 75.3541 223.322 75.3202 223.841Z" fill="#3F3D56"/>
<path id="Vector_67" d="M75.1507 226.539L74.9167 230.346H39.6519L39.418 226.539H75.1507Z" fill="#9D9CB5"/>
<path id="Vector_68" d="M74.8183 231.934L74.5844 235.746H39.9886L39.75 231.934H74.8183Z" fill="#9D9CB5"/>
<path id="Vector_69" d="M74.4824 237.334L74.2485 241.142H40.3265L40.0879 237.334H74.4824Z" fill="#9D9CB5"/>
<path id="Vector_70" d="M35.362 186.575C50.8398 197.782 57.2873 215.317 57.2873 215.317C57.2873 215.317 38.6325 214.675 23.1313 203.468C7.63017 192.26 1.20605 174.726 1.20605 174.726C1.20605 174.726 19.8795 175.367 35.362 186.575Z" fill="#992211"/>
<path id="Vector_71" d="M1.22949 174.726C1.22949 174.726 20.5908 185.498 26.7996 194.396C33.0085 203.295 57.2873 215.322 57.2873 215.322" stroke="#535461" stroke-width="2" stroke-miterlimit="10"/>
<path id="Vector_72" d="M45.3516 164.015C53.7736 170.103 57.2874 179.657 57.2874 179.657C57.2874 179.657 47.1342 179.311 38.7075 173.208C30.2809 167.106 26.7764 157.565 26.7764 157.565C26.7764 157.565 36.9296 157.889 45.3516 164.015Z" fill="#992211"/>
<path id="Vector_73" d="M26.7764 157.542C26.7764 157.542 37.3132 163.396 40.6914 168.244C44.0696 173.091 57.2874 179.634 57.2874 179.634" stroke="#535461" stroke-width="2" stroke-miterlimit="10"/>
<path id="Vector_74" d="M69.532 179.151C59.8513 189.797 57.8066 203.706 57.8066 203.706C57.8066 203.706 71.4503 200.358 81.1263 189.712C90.8022 179.067 92.8516 165.152 92.8516 165.152C92.8516 165.152 79.2079 168.501 69.532 179.151Z" fill="#992211"/>
<path id="Vector_75" d="M92.8516 165.152C92.8516 165.152 80.2466 176.065 77.0416 183.586C73.8365 191.108 57.8066 203.725 57.8066 203.725" stroke="#535461" stroke-width="2" stroke-miterlimit="10"/>
<path id="&#195;&#154;NETE a nuestro grupo privado de FACEBOOK" d="M106.212 103.324C102.732 103.324 100.092 102.424 98.292 100.624C96.492 98.824 95.592 96.196 95.592 92.74V79.744C95.592 79.048 95.796 78.496 96.204 78.088C96.612 77.656 97.164 77.44 97.86 77.44C98.556 77.44 99.108 77.656 99.516 78.088C99.924 78.496 100.128 79.048 100.128 79.744V92.992C100.128 95.176 100.644 96.832 101.676 97.96C102.708 99.064 104.22 99.616 106.212 99.616C108.18 99.616 109.68 99.052 110.712 97.924C111.744 96.796 112.26 95.152 112.26 92.992V79.744C112.26 79.048 112.464 78.496 112.872 78.088C113.28 77.656 113.832 77.44 114.528 77.44C115.224 77.44 115.776 77.656 116.184 78.088C116.592 78.496 116.796 79.048 116.796 79.744V92.74C116.796 96.172 115.896 98.8 114.096 100.624C112.296 102.424 109.668 103.324 106.212 103.324ZM106.788 75.496C106.596 75.592 106.404 75.64 106.212 75.64C105.9 75.64 105.636 75.544 105.42 75.352C105.204 75.136 105.096 74.896 105.096 74.632C105.096 74.368 105.228 74.104 105.492 73.84L108.768 70.456C109.224 69.976 109.74 69.736 110.316 69.736C110.796 69.736 111.204 69.916 111.54 70.276C111.9 70.612 112.08 71.008 112.08 71.464C112.08 71.776 111.972 72.076 111.756 72.364C111.564 72.652 111.264 72.904 110.856 73.12L106.788 75.496ZM141.362 77.44C142.034 77.44 142.562 77.656 142.946 78.088C143.354 78.496 143.558 79.048 143.558 79.744V100.876C143.558 101.572 143.354 102.136 142.946 102.568C142.538 103 142.01 103.216 141.362 103.216C140.594 103.216 140.006 102.94 139.598 102.388L126.458 85.288V100.876C126.458 101.572 126.266 102.136 125.882 102.568C125.498 103 124.97 103.216 124.298 103.216C123.626 103.216 123.098 103 122.714 102.568C122.33 102.136 122.138 101.572 122.138 100.876V79.744C122.138 79.048 122.342 78.496 122.75 78.088C123.158 77.656 123.698 77.44 124.37 77.44C125.114 77.44 125.69 77.716 126.098 78.268L139.202 95.296V79.744C139.202 79.048 139.394 78.496 139.778 78.088C140.186 77.656 140.714 77.44 141.362 77.44ZM151.265 103C150.569 103 150.017 102.808 149.609 102.424C149.225 102.04 149.033 101.5 149.033 100.804V79.816C149.033 79.12 149.225 78.58 149.609 78.196C150.017 77.812 150.569 77.62 151.265 77.62H164.261C164.957 77.62 165.497 77.776 165.881 78.088C166.265 78.4 166.457 78.844 166.457 79.42C166.457 80.02 166.265 80.488 165.881 80.824C165.497 81.136 164.957 81.292 164.261 81.292H153.569V88.276H163.541C164.237 88.276 164.777 88.432 165.161 88.744C165.545 89.056 165.737 89.512 165.737 90.112C165.737 90.688 165.545 91.132 165.161 91.444C164.777 91.756 164.237 91.912 163.541 91.912H153.569V99.328H164.261C164.957 99.328 165.497 99.496 165.881 99.832C166.265 100.144 166.457 100.6 166.457 101.2C166.457 101.776 166.265 102.22 165.881 102.532C165.497 102.844 164.957 103 164.261 103H151.265ZM178.583 103.18C177.863 103.18 177.287 102.976 176.855 102.568C176.447 102.136 176.243 101.572 176.243 100.876V81.436H169.691C168.251 81.436 167.531 80.8 167.531 79.528C167.531 78.256 168.251 77.62 169.691 77.62H187.439C188.879 77.62 189.599 78.256 189.599 79.528C189.599 80.8 188.879 81.436 187.439 81.436H180.887V100.876C180.887 101.572 180.671 102.136 180.239 102.568C179.831 102.976 179.279 103.18 178.583 103.18ZM194.577 103C193.881 103 193.329 102.808 192.921 102.424C192.537 102.04 192.345 101.5 192.345 100.804V79.816C192.345 79.12 192.537 78.58 192.921 78.196C193.329 77.812 193.881 77.62 194.577 77.62H207.573C208.269 77.62 208.809 77.776 209.193 78.088C209.577 78.4 209.769 78.844 209.769 79.42C209.769 80.02 209.577 80.488 209.193 80.824C208.809 81.136 208.269 81.292 207.573 81.292H196.881V88.276H206.853C207.549 88.276 208.089 88.432 208.473 88.744C208.857 89.056 209.049 89.512 209.049 90.112C209.049 90.688 208.857 91.132 208.473 91.444C208.089 91.756 207.549 91.912 206.853 91.912H196.881V99.328H207.573C208.269 99.328 208.809 99.496 209.193 99.832C209.577 100.144 209.769 100.6 209.769 101.2C209.769 101.776 209.577 102.22 209.193 102.532C208.809 102.844 208.269 103 207.573 103H194.577ZM102.972 133.964C105.42 133.964 107.232 134.576 108.408 135.8C109.608 137 110.208 138.836 110.208 141.308V150.092C110.208 150.74 110.016 151.256 109.632 151.64C109.248 152 108.72 152.18 108.048 152.18C107.424 152.18 106.908 151.988 106.5 151.604C106.116 151.22 105.924 150.716 105.924 150.092V149.3C105.516 150.236 104.868 150.968 103.98 151.496C103.116 152.024 102.108 152.288 100.956 152.288C99.78 152.288 98.712 152.048 97.752 151.568C96.792 151.088 96.036 150.428 95.484 149.588C94.932 148.748 94.656 147.812 94.656 146.78C94.656 145.484 94.98 144.464 95.628 143.72C96.3 142.976 97.38 142.436 98.868 142.1C100.356 141.764 102.408 141.596 105.024 141.596H105.924V140.768C105.924 139.592 105.672 138.74 105.168 138.212C104.664 137.66 103.848 137.384 102.72 137.384C102.024 137.384 101.316 137.492 100.596 137.708C99.876 137.9 99.024 138.188 98.04 138.572C97.416 138.884 96.96 139.04 96.672 139.04C96.24 139.04 95.88 138.884 95.592 138.572C95.328 138.26 95.196 137.852 95.196 137.348C95.196 136.94 95.292 136.592 95.484 136.304C95.7 135.992 96.048 135.704 96.528 135.44C97.368 134.984 98.364 134.624 99.516 134.36C100.692 134.096 101.844 133.964 102.972 133.964ZM101.856 149.048C103.056 149.048 104.028 148.652 104.772 147.86C105.54 147.044 105.924 146 105.924 144.728V143.972H105.276C103.668 143.972 102.42 144.044 101.532 144.188C100.644 144.332 100.008 144.584 99.624 144.944C99.24 145.304 99.048 145.796 99.048 146.42C99.048 147.188 99.312 147.824 99.84 148.328C100.392 148.808 101.064 149.048 101.856 149.048ZM134.779 133.964C136.891 133.964 138.463 134.564 139.495 135.764C140.527 136.964 141.043 138.776 141.043 141.2V150.056C141.043 150.728 140.839 151.256 140.431 151.64C140.047 152.024 139.507 152.216 138.811 152.216C138.115 152.216 137.563 152.024 137.155 151.64C136.747 151.256 136.543 150.728 136.543 150.056V141.452C136.543 140.084 136.279 139.088 135.751 138.464C135.247 137.84 134.443 137.528 133.339 137.528C132.043 137.528 130.999 137.936 130.207 138.752C129.439 139.568 129.055 140.66 129.055 142.028V150.056C129.055 150.728 128.851 151.256 128.443 151.64C128.035 152.024 127.483 152.216 126.787 152.216C126.091 152.216 125.539 152.024 125.131 151.64C124.747 151.256 124.555 150.728 124.555 150.056V136.124C124.555 135.5 124.759 134.996 125.167 134.612C125.575 134.228 126.127 134.036 126.823 134.036C127.447 134.036 127.951 134.228 128.335 134.612C128.743 134.972 128.947 135.452 128.947 136.052V137.024C129.547 136.04 130.351 135.284 131.359 134.756C132.367 134.228 133.507 133.964 134.779 133.964ZM159.509 134.036C160.205 134.036 160.757 134.228 161.165 134.612C161.573 134.996 161.777 135.512 161.777 136.16V150.128C161.777 150.752 161.561 151.256 161.129 151.64C160.721 152.024 160.181 152.216 159.509 152.216C158.861 152.216 158.345 152.036 157.961 151.676C157.577 151.316 157.385 150.824 157.385 150.2V149.3C156.833 150.26 156.089 151.004 155.153 151.532C154.217 152.036 153.161 152.288 151.985 152.288C147.665 152.288 145.505 149.864 145.505 145.016V136.16C145.505 135.512 145.709 134.996 146.117 134.612C146.525 134.228 147.065 134.036 147.737 134.036C148.433 134.036 148.985 134.228 149.393 134.612C149.801 134.996 150.005 135.512 150.005 136.16V145.052C150.005 146.3 150.257 147.224 150.761 147.824C151.265 148.424 152.057 148.724 153.137 148.724C154.385 148.724 155.381 148.316 156.125 147.5C156.893 146.66 157.277 145.556 157.277 144.188V136.16C157.277 135.512 157.481 134.996 157.889 134.612C158.297 134.228 158.837 134.036 159.509 134.036ZM180.393 147.176C180.801 147.176 181.125 147.332 181.365 147.644C181.629 147.956 181.761 148.376 181.761 148.904C181.761 149.648 181.317 150.272 180.429 150.776C179.613 151.232 178.689 151.604 177.657 151.892C176.625 152.156 175.641 152.288 174.705 152.288C171.873 152.288 169.629 151.472 167.973 149.84C166.317 148.208 165.489 145.976 165.489 143.144C165.489 141.344 165.849 139.748 166.569 138.356C167.289 136.964 168.297 135.884 169.593 135.116C170.913 134.348 172.401 133.964 174.057 133.964C175.641 133.964 177.021 134.312 178.197 135.008C179.373 135.704 180.285 136.688 180.933 137.96C181.581 139.232 181.905 140.732 181.905 142.46C181.905 143.492 181.449 144.008 180.537 144.008H169.917C170.061 145.664 170.529 146.888 171.321 147.68C172.113 148.448 173.265 148.832 174.777 148.832C175.545 148.832 176.217 148.736 176.793 148.544C177.393 148.352 178.065 148.088 178.809 147.752C179.529 147.368 180.057 147.176 180.393 147.176ZM174.165 137.132C172.941 137.132 171.957 137.516 171.213 138.284C170.493 139.052 170.061 140.156 169.917 141.596H178.053C178.005 140.132 177.645 139.028 176.973 138.284C176.301 137.516 175.365 137.132 174.165 137.132ZM191.958 152.288C189.342 152.288 187.23 151.772 185.622 150.74C184.854 150.284 184.47 149.636 184.47 148.796C184.47 148.316 184.602 147.932 184.866 147.644C185.13 147.332 185.454 147.176 185.838 147.176C186.246 147.176 186.81 147.368 187.53 147.752C188.298 148.112 188.994 148.388 189.618 148.58C190.266 148.772 191.082 148.868 192.066 148.868C193.074 148.868 193.854 148.7 194.406 148.364C194.982 148.028 195.27 147.56 195.27 146.96C195.27 146.552 195.15 146.228 194.91 145.988C194.694 145.748 194.286 145.532 193.686 145.34C193.11 145.124 192.222 144.884 191.022 144.62C188.886 144.188 187.35 143.576 186.414 142.784C185.502 141.992 185.046 140.9 185.046 139.508C185.046 138.452 185.358 137.504 185.982 136.664C186.606 135.8 187.458 135.14 188.538 134.684C189.642 134.204 190.89 133.964 192.282 133.964C193.29 133.964 194.262 134.096 195.198 134.36C196.134 134.6 196.974 134.96 197.718 135.44C198.486 135.92 198.87 136.556 198.87 137.348C198.87 137.828 198.738 138.236 198.474 138.572C198.21 138.884 197.886 139.04 197.502 139.04C197.238 139.04 196.974 138.992 196.71 138.896C196.47 138.776 196.158 138.608 195.774 138.392C195.078 138.032 194.478 137.768 193.974 137.6C193.47 137.408 192.846 137.312 192.102 137.312C191.214 137.312 190.506 137.492 189.978 137.852C189.474 138.212 189.222 138.704 189.222 139.328C189.222 139.928 189.486 140.384 190.014 140.696C190.542 141.008 191.562 141.32 193.074 141.632C194.682 141.968 195.942 142.352 196.854 142.784C197.766 143.216 198.414 143.756 198.798 144.404C199.206 145.052 199.41 145.88 199.41 146.888C199.41 148.52 198.726 149.828 197.358 150.812C196.014 151.796 194.214 152.288 191.958 152.288ZM212.027 148.868C213.227 148.94 213.827 149.48 213.827 150.488C213.827 151.064 213.587 151.508 213.107 151.82C212.651 152.108 211.991 152.228 211.127 152.18L210.155 152.108C206.123 151.82 204.107 149.66 204.107 145.628V137.78H202.307C201.659 137.78 201.155 137.636 200.795 137.348C200.459 137.06 200.291 136.64 200.291 136.088C200.291 135.536 200.459 135.116 200.795 134.828C201.155 134.54 201.659 134.396 202.307 134.396H204.107V131.084C204.107 130.436 204.311 129.92 204.719 129.536C205.127 129.152 205.679 128.96 206.375 128.96C207.047 128.96 207.587 129.152 207.995 129.536C208.403 129.92 208.607 130.436 208.607 131.084V134.396H211.667C212.315 134.396 212.807 134.54 213.143 134.828C213.503 135.116 213.683 135.536 213.683 136.088C213.683 136.64 213.503 137.06 213.143 137.348C212.807 137.636 212.315 137.78 211.667 137.78H208.607V145.952C208.607 147.728 209.423 148.676 211.055 148.796L212.027 148.868ZM226 134.036C226.624 133.988 227.116 134.12 227.476 134.432C227.836 134.744 228.016 135.212 228.016 135.836C228.016 136.484 227.86 136.964 227.548 137.276C227.236 137.588 226.672 137.792 225.856 137.888L224.776 137.996C223.36 138.14 222.316 138.62 221.644 139.436C220.996 140.252 220.672 141.272 220.672 142.496V150.056C220.672 150.752 220.456 151.292 220.024 151.676C219.592 152.036 219.052 152.216 218.404 152.216C217.756 152.216 217.216 152.036 216.784 151.676C216.376 151.292 216.172 150.752 216.172 150.056V136.124C216.172 135.452 216.376 134.936 216.784 134.576C217.216 134.216 217.744 134.036 218.368 134.036C218.992 134.036 219.496 134.216 219.88 134.576C220.264 134.912 220.456 135.404 220.456 136.052V137.492C220.912 136.436 221.584 135.62 222.472 135.044C223.384 134.468 224.392 134.144 225.496 134.072L226 134.036ZM237.63 152.288C235.83 152.288 234.246 151.916 232.878 151.172C231.534 150.428 230.49 149.36 229.746 147.968C229.002 146.576 228.63 144.956 228.63 143.108C228.63 141.26 229.002 139.652 229.746 138.284C230.49 136.892 231.534 135.824 232.878 135.08C234.246 134.336 235.83 133.964 237.63 133.964C239.43 133.964 241.002 134.336 242.346 135.08C243.714 135.824 244.758 136.892 245.478 138.284C246.222 139.652 246.594 141.26 246.594 143.108C246.594 144.956 246.222 146.576 245.478 147.968C244.758 149.36 243.714 150.428 242.346 151.172C241.002 151.916 239.43 152.288 237.63 152.288ZM237.594 148.796C239.058 148.796 240.174 148.316 240.942 147.356C241.71 146.396 242.094 144.98 242.094 143.108C242.094 141.26 241.71 139.856 240.942 138.896C240.174 137.912 239.07 137.42 237.63 137.42C236.19 137.42 235.074 137.912 234.282 138.896C233.514 139.856 233.13 141.26 233.13 143.108C233.13 144.98 233.514 146.396 234.282 147.356C235.05 148.316 236.154 148.796 237.594 148.796ZM110.244 183.036C110.916 183.036 111.456 183.228 111.864 183.612C112.272 183.996 112.476 184.512 112.476 185.16V199.38C112.476 202.14 111.708 204.228 110.172 205.644C108.636 207.06 106.368 207.768 103.368 207.768C100.752 207.768 98.568 207.276 96.816 206.292C95.928 205.764 95.484 205.128 95.484 204.384C95.484 203.856 95.604 203.436 95.844 203.124C96.108 202.812 96.444 202.656 96.852 202.656C97.068 202.656 97.332 202.704 97.644 202.8C97.956 202.92 98.28 203.052 98.616 203.196C99.48 203.556 100.248 203.832 100.92 204.024C101.616 204.216 102.408 204.312 103.296 204.312C106.44 204.312 108.012 202.776 108.012 199.704V197.4C107.484 198.384 106.716 199.152 105.708 199.704C104.7 200.232 103.548 200.496 102.252 200.496C100.716 200.496 99.348 200.136 98.148 199.416C96.972 198.672 96.048 197.64 95.376 196.32C94.704 195 94.368 193.476 94.368 191.748C94.368 190.02 94.692 188.496 95.34 187.176C96.012 185.832 96.948 184.8 98.148 184.08C99.348 183.336 100.716 182.964 102.252 182.964C103.548 182.964 104.7 183.24 105.708 183.792C106.716 184.32 107.484 185.076 108.012 186.06V185.124C108.012 184.5 108.216 183.996 108.624 183.612C109.032 183.228 109.572 183.036 110.244 183.036ZM103.44 197.004C104.88 197.004 105.996 196.536 106.788 195.6C107.604 194.664 108.012 193.38 108.012 191.748C108.012 190.092 107.604 188.796 106.788 187.86C105.996 186.924 104.88 186.456 103.44 186.456C102.024 186.456 100.908 186.924 100.092 187.86C99.276 188.796 98.868 190.092 98.868 191.748C98.868 193.38 99.276 194.664 100.092 195.6C100.908 196.536 102.024 197.004 103.44 197.004ZM126.965 183.036C127.589 182.988 128.081 183.12 128.441 183.432C128.801 183.744 128.981 184.212 128.981 184.836C128.981 185.484 128.825 185.964 128.513 186.276C128.201 186.588 127.637 186.792 126.821 186.888L125.741 186.996C124.325 187.14 123.281 187.62 122.609 188.436C121.961 189.252 121.637 190.272 121.637 191.496V199.056C121.637 199.752 121.421 200.292 120.989 200.676C120.557 201.036 120.017 201.216 119.369 201.216C118.721 201.216 118.181 201.036 117.749 200.676C117.341 200.292 117.137 199.752 117.137 199.056V185.124C117.137 184.452 117.341 183.936 117.749 183.576C118.181 183.216 118.709 183.036 119.333 183.036C119.957 183.036 120.461 183.216 120.845 183.576C121.229 183.912 121.421 184.404 121.421 185.052V186.492C121.877 185.436 122.549 184.62 123.437 184.044C124.349 183.468 125.357 183.144 126.461 183.072L126.965 183.036ZM144.814 183.036C145.51 183.036 146.062 183.228 146.47 183.612C146.878 183.996 147.082 184.512 147.082 185.16V199.128C147.082 199.752 146.866 200.256 146.434 200.64C146.026 201.024 145.486 201.216 144.814 201.216C144.166 201.216 143.65 201.036 143.266 200.676C142.882 200.316 142.69 199.824 142.69 199.2V198.3C142.138 199.26 141.394 200.004 140.458 200.532C139.522 201.036 138.466 201.288 137.29 201.288C132.97 201.288 130.81 198.864 130.81 194.016V185.16C130.81 184.512 131.014 183.996 131.422 183.612C131.83 183.228 132.37 183.036 133.042 183.036C133.738 183.036 134.29 183.228 134.698 183.612C135.106 183.996 135.31 184.512 135.31 185.16V194.052C135.31 195.3 135.562 196.224 136.066 196.824C136.57 197.424 137.362 197.724 138.442 197.724C139.69 197.724 140.686 197.316 141.43 196.5C142.198 195.66 142.582 194.556 142.582 193.188V185.16C142.582 184.512 142.786 183.996 143.194 183.612C143.602 183.228 144.142 183.036 144.814 183.036ZM161.882 182.964C163.394 182.964 164.738 183.348 165.914 184.116C167.114 184.884 168.038 185.976 168.686 187.392C169.358 188.784 169.694 190.392 169.694 192.216C169.694 194.04 169.358 195.636 168.686 197.004C168.038 198.372 167.126 199.428 165.95 200.172C164.774 200.916 163.418 201.288 161.882 201.288C160.634 201.288 159.518 201.024 158.534 200.496C157.55 199.968 156.794 199.236 156.266 198.3V205.644C156.266 206.268 156.062 206.76 155.654 207.12C155.246 207.48 154.706 207.66 154.034 207.66C153.362 207.66 152.81 207.468 152.378 207.084C151.97 206.7 151.766 206.196 151.766 205.572V185.16C151.766 184.512 151.958 183.996 152.342 183.612C152.75 183.228 153.29 183.036 153.962 183.036C154.634 183.036 155.174 183.228 155.582 183.612C155.99 183.996 156.194 184.512 156.194 185.16V186.06C156.722 185.076 157.478 184.32 158.462 183.792C159.47 183.24 160.61 182.964 161.882 182.964ZM160.694 197.796C162.11 197.796 163.214 197.316 164.006 196.356C164.798 195.372 165.194 193.992 165.194 192.216C165.194 190.392 164.798 188.976 164.006 187.968C163.214 186.96 162.11 186.456 160.694 186.456C159.254 186.456 158.138 186.948 157.346 187.932C156.578 188.916 156.194 190.32 156.194 192.144C156.194 193.944 156.578 195.336 157.346 196.32C158.138 197.304 159.254 197.796 160.694 197.796ZM181.415 201.288C179.615 201.288 178.031 200.916 176.663 200.172C175.319 199.428 174.275 198.36 173.531 196.968C172.787 195.576 172.415 193.956 172.415 192.108C172.415 190.26 172.787 188.652 173.531 187.284C174.275 185.892 175.319 184.824 176.663 184.08C178.031 183.336 179.615 182.964 181.415 182.964C183.215 182.964 184.787 183.336 186.131 184.08C187.499 184.824 188.543 185.892 189.263 187.284C190.007 188.652 190.379 190.26 190.379 192.108C190.379 193.956 190.007 195.576 189.263 196.968C188.543 198.36 187.499 199.428 186.131 200.172C184.787 200.916 183.215 201.288 181.415 201.288ZM181.379 197.796C182.843 197.796 183.959 197.316 184.727 196.356C185.495 195.396 185.879 193.98 185.879 192.108C185.879 190.26 185.495 188.856 184.727 187.896C183.959 186.912 182.855 186.42 181.415 186.42C179.975 186.42 178.859 186.912 178.067 187.896C177.299 188.856 176.915 190.26 176.915 192.108C176.915 193.98 177.299 195.396 178.067 196.356C178.835 197.316 179.939 197.796 181.379 197.796ZM213.983 182.964C215.495 182.964 216.839 183.348 218.015 184.116C219.215 184.884 220.139 185.976 220.787 187.392C221.459 188.784 221.795 190.392 221.795 192.216C221.795 194.04 221.459 195.636 220.787 197.004C220.139 198.372 219.227 199.428 218.051 200.172C216.875 200.916 215.519 201.288 213.983 201.288C212.735 201.288 211.619 201.024 210.635 200.496C209.651 199.968 208.895 199.236 208.367 198.3V205.644C208.367 206.268 208.163 206.76 207.755 207.12C207.347 207.48 206.807 207.66 206.135 207.66C205.463 207.66 204.911 207.468 204.479 207.084C204.071 206.7 203.867 206.196 203.867 205.572V185.16C203.867 184.512 204.059 183.996 204.443 183.612C204.851 183.228 205.391 183.036 206.063 183.036C206.735 183.036 207.275 183.228 207.683 183.612C208.091 183.996 208.295 184.512 208.295 185.16V186.06C208.823 185.076 209.579 184.32 210.563 183.792C211.571 183.24 212.711 182.964 213.983 182.964ZM212.795 197.796C214.211 197.796 215.315 197.316 216.107 196.356C216.899 195.372 217.295 193.992 217.295 192.216C217.295 190.392 216.899 188.976 216.107 187.968C215.315 186.96 214.211 186.456 212.795 186.456C211.355 186.456 210.239 186.948 209.447 187.932C208.679 188.916 208.295 190.32 208.295 192.144C208.295 193.944 208.679 195.336 209.447 196.32C210.239 197.304 211.355 197.796 212.795 197.796ZM235.316 183.036C235.94 182.988 236.432 183.12 236.792 183.432C237.152 183.744 237.332 184.212 237.332 184.836C237.332 185.484 237.176 185.964 236.864 186.276C236.552 186.588 235.988 186.792 235.172 186.888L234.092 186.996C232.676 187.14 231.632 187.62 230.96 188.436C230.312 189.252 229.988 190.272 229.988 191.496V199.056C229.988 199.752 229.772 200.292 229.34 200.676C228.908 201.036 228.368 201.216 227.72 201.216C227.072 201.216 226.532 201.036 226.1 200.676C225.692 200.292 225.488 199.752 225.488 199.056V185.124C225.488 184.452 225.692 183.936 226.1 183.576C226.532 183.216 227.06 183.036 227.684 183.036C228.308 183.036 228.812 183.216 229.196 183.576C229.58 183.912 229.772 184.404 229.772 185.052V186.492C230.228 185.436 230.9 184.62 231.788 184.044C232.7 183.468 233.708 183.144 234.812 183.072L235.316 183.036ZM241.502 201.216C240.854 201.216 240.314 201.036 239.882 200.676C239.474 200.292 239.27 199.752 239.27 199.056V185.16C239.27 184.464 239.474 183.936 239.882 183.576C240.314 183.216 240.854 183.036 241.502 183.036C242.15 183.036 242.69 183.216 243.122 183.576C243.554 183.936 243.77 184.464 243.77 185.16V199.056C243.77 199.752 243.554 200.292 243.122 200.676C242.69 201.036 242.15 201.216 241.502 201.216ZM241.502 179.832C240.686 179.832 240.038 179.616 239.558 179.184C239.078 178.728 238.838 178.14 238.838 177.42C238.838 176.7 239.078 176.124 239.558 175.692C240.038 175.26 240.686 175.044 241.502 175.044C242.294 175.044 242.93 175.26 243.41 175.692C243.914 176.124 244.166 176.7 244.166 177.42C244.166 178.14 243.926 178.728 243.446 179.184C242.966 179.616 242.318 179.832 241.502 179.832ZM260.686 184.332C260.878 183.9 261.13 183.576 261.442 183.36C261.778 183.144 262.138 183.036 262.522 183.036C263.074 183.036 263.566 183.228 263.998 183.612C264.454 183.972 264.682 184.428 264.682 184.98C264.682 185.268 264.61 185.556 264.466 185.844L257.806 199.776C257.59 200.232 257.278 200.58 256.87 200.82C256.486 201.06 256.054 201.18 255.574 201.18C255.118 201.18 254.674 201.06 254.242 200.82C253.834 200.58 253.522 200.232 253.306 199.776L246.61 185.844C246.49 185.604 246.43 185.328 246.43 185.016C246.43 184.464 246.658 183.996 247.114 183.612C247.594 183.228 248.134 183.036 248.734 183.036C249.598 183.036 250.234 183.456 250.642 184.296L255.682 195.42L260.686 184.332ZM274.745 182.964C277.193 182.964 279.005 183.576 280.181 184.8C281.381 186 281.981 187.836 281.981 190.308V199.092C281.981 199.74 281.789 200.256 281.405 200.64C281.021 201 280.493 201.18 279.821 201.18C279.197 201.18 278.681 200.988 278.273 200.604C277.889 200.22 277.697 199.716 277.697 199.092V198.3C277.289 199.236 276.641 199.968 275.753 200.496C274.889 201.024 273.881 201.288 272.729 201.288C271.553 201.288 270.485 201.048 269.525 200.568C268.565 200.088 267.809 199.428 267.257 198.588C266.705 197.748 266.429 196.812 266.429 195.78C266.429 194.484 266.753 193.464 267.401 192.72C268.073 191.976 269.153 191.436 270.641 191.1C272.129 190.764 274.181 190.596 276.797 190.596H277.697V189.768C277.697 188.592 277.445 187.74 276.941 187.212C276.437 186.66 275.621 186.384 274.493 186.384C273.797 186.384 273.089 186.492 272.369 186.708C271.649 186.9 270.797 187.188 269.813 187.572C269.189 187.884 268.733 188.04 268.445 188.04C268.013 188.04 267.653 187.884 267.365 187.572C267.101 187.26 266.969 186.852 266.969 186.348C266.969 185.94 267.065 185.592 267.257 185.304C267.473 184.992 267.821 184.704 268.301 184.44C269.141 183.984 270.137 183.624 271.289 183.36C272.465 183.096 273.617 182.964 274.745 182.964ZM273.629 198.048C274.829 198.048 275.801 197.652 276.545 196.86C277.313 196.044 277.697 195 277.697 193.728V192.972H277.049C275.441 192.972 274.193 193.044 273.305 193.188C272.417 193.332 271.781 193.584 271.397 193.944C271.013 194.304 270.821 194.796 270.821 195.42C270.821 196.188 271.085 196.824 271.613 197.328C272.165 197.808 272.837 198.048 273.629 198.048ZM301.243 175.44C301.915 175.44 302.467 175.632 302.899 176.016C303.331 176.4 303.547 176.904 303.547 177.528V199.056C303.547 199.704 303.343 200.22 302.935 200.604C302.527 200.988 301.987 201.18 301.315 201.18C300.643 201.18 300.103 200.988 299.695 200.604C299.287 200.22 299.083 199.704 299.083 199.056V198.156C298.555 199.14 297.787 199.908 296.779 200.46C295.795 201.012 294.667 201.288 293.395 201.288C291.883 201.288 290.527 200.904 289.327 200.136C288.151 199.368 287.227 198.288 286.555 196.896C285.907 195.48 285.583 193.86 285.583 192.036C285.583 190.212 285.907 188.616 286.555 187.248C287.227 185.88 288.151 184.824 289.327 184.08C290.503 183.336 291.859 182.964 293.395 182.964C294.667 182.964 295.795 183.228 296.779 183.756C297.763 184.284 298.519 185.028 299.047 185.988V177.456C299.047 176.856 299.239 176.376 299.623 176.016C300.031 175.632 300.571 175.44 301.243 175.44ZM294.583 197.796C296.023 197.796 297.127 197.304 297.895 196.32C298.687 195.336 299.083 193.932 299.083 192.108C299.083 190.284 298.687 188.892 297.895 187.932C297.127 186.948 296.035 186.456 294.619 186.456C293.179 186.456 292.063 186.936 291.271 187.896C290.479 188.856 290.083 190.236 290.083 192.036C290.083 193.86 290.479 195.276 291.271 196.284C292.063 197.292 293.167 197.796 294.583 197.796ZM316.204 201.288C314.404 201.288 312.82 200.916 311.452 200.172C310.108 199.428 309.064 198.36 308.32 196.968C307.576 195.576 307.204 193.956 307.204 192.108C307.204 190.26 307.576 188.652 308.32 187.284C309.064 185.892 310.108 184.824 311.452 184.08C312.82 183.336 314.404 182.964 316.204 182.964C318.004 182.964 319.576 183.336 320.92 184.08C322.288 184.824 323.332 185.892 324.052 187.284C324.796 188.652 325.168 190.26 325.168 192.108C325.168 193.956 324.796 195.576 324.052 196.968C323.332 198.36 322.288 199.428 320.92 200.172C319.576 200.916 318.004 201.288 316.204 201.288ZM316.168 197.796C317.632 197.796 318.748 197.316 319.516 196.356C320.284 195.396 320.668 193.98 320.668 192.108C320.668 190.26 320.284 188.856 319.516 187.896C318.748 186.912 317.644 186.42 316.204 186.42C314.764 186.42 313.648 186.912 312.856 187.896C312.088 188.856 311.704 190.26 311.704 192.108C311.704 193.98 312.088 195.396 312.856 196.356C313.624 197.316 314.728 197.796 316.168 197.796ZM110.028 224.44C110.7 224.44 111.252 224.632 111.684 225.016C112.116 225.4 112.332 225.904 112.332 226.528V248.056C112.332 248.704 112.128 249.22 111.72 249.604C111.312 249.988 110.772 250.18 110.1 250.18C109.428 250.18 108.888 249.988 108.48 249.604C108.072 249.22 107.868 248.704 107.868 248.056V247.156C107.34 248.14 106.572 248.908 105.564 249.46C104.58 250.012 103.452 250.288 102.18 250.288C100.668 250.288 99.312 249.904 98.112 249.136C96.936 248.368 96.012 247.288 95.34 245.896C94.692 244.48 94.368 242.86 94.368 241.036C94.368 239.212 94.692 237.616 95.34 236.248C96.012 234.88 96.936 233.824 98.112 233.08C99.288 232.336 100.644 231.964 102.18 231.964C103.452 231.964 104.58 232.228 105.564 232.756C106.548 233.284 107.304 234.028 107.832 234.988V226.456C107.832 225.856 108.024 225.376 108.408 225.016C108.816 224.632 109.356 224.44 110.028 224.44ZM103.368 246.796C104.808 246.796 105.912 246.304 106.68 245.32C107.472 244.336 107.868 242.932 107.868 241.108C107.868 239.284 107.472 237.892 106.68 236.932C105.912 235.948 104.82 235.456 103.404 235.456C101.964 235.456 100.848 235.936 100.056 236.896C99.264 237.856 98.868 239.236 98.868 241.036C98.868 242.86 99.264 244.276 100.056 245.284C100.848 246.292 101.952 246.796 103.368 246.796ZM130.893 245.176C131.301 245.176 131.625 245.332 131.865 245.644C132.129 245.956 132.261 246.376 132.261 246.904C132.261 247.648 131.817 248.272 130.929 248.776C130.113 249.232 129.189 249.604 128.157 249.892C127.125 250.156 126.141 250.288 125.205 250.288C122.373 250.288 120.129 249.472 118.473 247.84C116.817 246.208 115.989 243.976 115.989 241.144C115.989 239.344 116.349 237.748 117.069 236.356C117.789 234.964 118.797 233.884 120.093 233.116C121.413 232.348 122.901 231.964 124.557 231.964C126.141 231.964 127.521 232.312 128.697 233.008C129.873 233.704 130.785 234.688 131.433 235.96C132.081 237.232 132.405 238.732 132.405 240.46C132.405 241.492 131.949 242.008 131.037 242.008H120.417C120.561 243.664 121.029 244.888 121.821 245.68C122.613 246.448 123.765 246.832 125.277 246.832C126.045 246.832 126.717 246.736 127.293 246.544C127.893 246.352 128.565 246.088 129.309 245.752C130.029 245.368 130.557 245.176 130.893 245.176ZM124.665 235.132C123.441 235.132 122.457 235.516 121.713 236.284C120.993 237.052 120.561 238.156 120.417 239.596H128.553C128.505 238.132 128.145 237.028 127.473 236.284C126.801 235.516 125.865 235.132 124.665 235.132ZM148.56 250.216C147.864 250.216 147.3 250 146.868 249.568C146.46 249.136 146.256 248.572 146.256 247.876V226.816C146.256 226.12 146.448 225.58 146.832 225.196C147.24 224.812 147.792 224.62 148.488 224.62H161.124C162.588 224.62 163.32 225.244 163.32 226.492C163.32 227.716 162.588 228.328 161.124 228.328H150.828V235.24H160.404C161.868 235.24 162.6 235.864 162.6 237.112C162.6 238.336 161.868 238.948 160.404 238.948H150.828V247.876C150.828 248.572 150.624 249.136 150.216 249.568C149.808 250 149.256 250.216 148.56 250.216ZM187.576 247.228C187.72 247.54 187.792 247.852 187.792 248.164C187.792 248.716 187.564 249.184 187.108 249.568C186.676 249.952 186.172 250.144 185.596 250.144C185.212 250.144 184.852 250.048 184.516 249.856C184.18 249.64 183.916 249.316 183.724 248.884L181.564 244.06H168.892L166.732 248.884C166.54 249.316 166.276 249.64 165.94 249.856C165.604 250.048 165.232 250.144 164.824 250.144C164.272 250.144 163.768 249.952 163.312 249.568C162.856 249.184 162.628 248.716 162.628 248.164C162.628 247.852 162.7 247.54 162.844 247.228L172.78 225.88C172.996 225.4 173.32 225.04 173.752 224.8C174.208 224.536 174.688 224.404 175.192 224.404C175.696 224.404 176.164 224.536 176.596 224.8C177.052 225.04 177.388 225.4 177.604 225.88L187.576 247.228ZM170.476 240.46H179.98L175.228 229.768L170.476 240.46ZM201.822 250.324C199.374 250.324 197.226 249.796 195.378 248.74C193.554 247.684 192.15 246.172 191.166 244.204C190.182 242.236 189.69 239.932 189.69 237.292C189.69 234.652 190.182 232.36 191.166 230.416C192.15 228.448 193.554 226.936 195.378 225.88C197.226 224.824 199.374 224.296 201.822 224.296C203.406 224.296 204.894 224.536 206.286 225.016C207.678 225.472 208.914 226.144 209.994 227.032C210.306 227.272 210.522 227.524 210.642 227.788C210.762 228.052 210.822 228.376 210.822 228.76C210.822 229.288 210.678 229.732 210.39 230.092C210.102 230.452 209.754 230.632 209.346 230.632C208.866 230.632 208.374 230.464 207.87 230.128C206.838 229.36 205.878 228.832 204.99 228.544C204.102 228.232 203.118 228.076 202.038 228.076C199.542 228.076 197.646 228.856 196.35 230.416C195.078 231.976 194.442 234.268 194.442 237.292C194.442 240.34 195.078 242.644 196.35 244.204C197.646 245.764 199.542 246.544 202.038 246.544C203.07 246.544 204.018 246.388 204.882 246.076C205.77 245.764 206.766 245.236 207.87 244.492C208.11 244.348 208.35 244.228 208.59 244.132C208.83 244.036 209.082 243.988 209.346 243.988C209.754 243.988 210.102 244.168 210.39 244.528C210.678 244.888 210.822 245.332 210.822 245.86C210.822 246.22 210.762 246.544 210.642 246.832C210.522 247.096 210.306 247.348 209.994 247.588C208.914 248.476 207.678 249.16 206.286 249.64C204.894 250.096 203.406 250.324 201.822 250.324ZM217.113 250C216.417 250 215.865 249.808 215.457 249.424C215.073 249.04 214.881 248.5 214.881 247.804V226.816C214.881 226.12 215.073 225.58 215.457 225.196C215.865 224.812 216.417 224.62 217.113 224.62H230.109C230.805 224.62 231.345 224.776 231.729 225.088C232.113 225.4 232.305 225.844 232.305 226.42C232.305 227.02 232.113 227.488 231.729 227.824C231.345 228.136 230.805 228.292 230.109 228.292H219.417V235.276H229.389C230.085 235.276 230.625 235.432 231.009 235.744C231.393 236.056 231.585 236.512 231.585 237.112C231.585 237.688 231.393 238.132 231.009 238.444C230.625 238.756 230.085 238.912 229.389 238.912H219.417V246.328H230.109C230.805 246.328 231.345 246.496 231.729 246.832C232.113 247.144 232.305 247.6 232.305 248.2C232.305 248.776 232.113 249.22 231.729 249.532C231.345 249.844 230.805 250 230.109 250H217.113ZM251.704 236.896C253.168 237.304 254.296 238.048 255.088 239.128C255.904 240.208 256.312 241.528 256.312 243.088C256.312 245.248 255.532 246.94 253.972 248.164C252.436 249.388 250.312 250 247.6 250H238.312C237.616 250 237.064 249.808 236.656 249.424C236.272 249.04 236.08 248.5 236.08 247.804V226.816C236.08 226.12 236.272 225.58 236.656 225.196C237.064 224.812 237.616 224.62 238.312 224.62H247.24C249.88 224.62 251.944 225.208 253.432 226.384C254.944 227.536 255.7 229.156 255.7 231.244C255.7 232.588 255.34 233.752 254.62 234.736C253.924 235.72 252.952 236.44 251.704 236.896ZM240.616 235.312H246.484C249.676 235.312 251.272 234.124 251.272 231.748C251.272 230.548 250.876 229.66 250.084 229.084C249.292 228.508 248.092 228.22 246.484 228.22H240.616V235.312ZM247.096 246.4C248.776 246.4 250 246.1 250.768 245.5C251.536 244.9 251.92 243.964 251.92 242.692C251.92 241.42 251.524 240.472 250.732 239.848C249.964 239.224 248.752 238.912 247.096 238.912H240.616V246.4H247.096ZM271.958 250.324C269.486 250.324 267.338 249.796 265.514 248.74C263.714 247.684 262.322 246.172 261.338 244.204C260.354 242.236 259.862 239.932 259.862 237.292C259.862 234.652 260.342 232.36 261.302 230.416C262.286 228.448 263.69 226.936 265.514 225.88C267.338 224.824 269.486 224.296 271.958 224.296C274.43 224.296 276.566 224.824 278.366 225.88C280.19 226.936 281.582 228.448 282.542 230.416C283.526 232.36 284.018 234.652 284.018 237.292C284.018 239.932 283.526 242.236 282.542 244.204C281.558 246.172 280.154 247.684 278.33 248.74C276.53 249.796 274.406 250.324 271.958 250.324ZM271.958 246.616C274.286 246.616 276.098 245.812 277.394 244.204C278.714 242.596 279.374 240.292 279.374 237.292C279.374 234.292 278.714 232 277.394 230.416C276.098 228.808 274.286 228.004 271.958 228.004C269.606 228.004 267.77 228.808 266.45 230.416C265.154 232 264.506 234.292 264.506 237.292C264.506 240.292 265.154 242.596 266.45 244.204C267.77 245.812 269.606 246.616 271.958 246.616ZM300.013 250.324C297.541 250.324 295.393 249.796 293.569 248.74C291.769 247.684 290.377 246.172 289.393 244.204C288.409 242.236 287.917 239.932 287.917 237.292C287.917 234.652 288.397 232.36 289.357 230.416C290.341 228.448 291.745 226.936 293.569 225.88C295.393 224.824 297.541 224.296 300.013 224.296C302.485 224.296 304.621 224.824 306.421 225.88C308.245 226.936 309.637 228.448 310.597 230.416C311.581 232.36 312.073 234.652 312.073 237.292C312.073 239.932 311.581 242.236 310.597 244.204C309.613 246.172 308.209 247.684 306.385 248.74C304.585 249.796 302.461 250.324 300.013 250.324ZM300.013 246.616C302.341 246.616 304.153 245.812 305.449 244.204C306.769 242.596 307.429 240.292 307.429 237.292C307.429 234.292 306.769 232 305.449 230.416C304.153 228.808 302.341 228.004 300.013 228.004C297.661 228.004 295.825 228.808 294.505 230.416C293.209 232 292.561 234.292 292.561 237.292C292.561 240.292 293.209 242.596 294.505 244.204C295.825 245.812 297.661 246.616 300.013 246.616ZM336.455 246.508C336.935 246.964 337.175 247.48 337.175 248.056C337.175 248.608 336.959 249.1 336.527 249.532C336.119 249.94 335.627 250.144 335.051 250.144C334.451 250.144 333.899 249.892 333.395 249.388L321.407 238.156V247.876C321.407 248.572 321.191 249.136 320.759 249.568C320.351 250 319.787 250.216 319.067 250.216C318.371 250.216 317.807 250 317.375 249.568C316.967 249.136 316.763 248.572 316.763 247.876V226.744C316.763 226.048 316.967 225.496 317.375 225.088C317.807 224.656 318.371 224.44 319.067 224.44C319.787 224.44 320.351 224.656 320.759 225.088C321.191 225.496 321.407 226.048 321.407 226.744V235.996L332.999 225.124C333.431 224.692 333.923 224.476 334.475 224.476C335.027 224.476 335.507 224.692 335.915 225.124C336.347 225.532 336.563 226.012 336.563 226.564C336.563 227.116 336.323 227.62 335.843 228.076L326.159 236.932L336.455 246.508Z" fill="#992211"/>
<g id="facebook">
<path id="Vector_76" fill-rule="evenodd" clip-rule="evenodd" d="M409 55.6793C409.001 62.9876 406.304 70.0565 401.392 75.6146C396.481 81.1728 389.678 84.8553 382.208 86V64.5574H389.605L391.015 55.6793H382.208C381.911 48.286 381.614 44.1389 391.386 45.1321V37.5853C376.75 34.4723 370.645 41.6403 372.288 55.6793H364.223V64.5574H372.288V85.9897C334.326 80.3475 338.788 24.857 377.237 25.0003C381.408 24.9995 385.538 25.7924 389.391 27.3338C393.244 28.8751 396.745 31.1348 399.695 33.9836C402.644 36.8324 404.984 40.2147 406.581 43.9373C408.177 47.6598 408.999 51.6498 409 55.6793Z" fill="#3F3D56"/>
</g>
</g>
<defs>
<linearGradient id="paint0_linear" x1="277.663" y1="252.588" x2="277.663" y2="0.463867" gradientUnits="userSpaceOnUse">
<stop stop-color="#808080" stop-opacity="0.25"/>
<stop offset="0.54" stop-color="#808080" stop-opacity="0.12"/>
<stop offset="1" stop-color="#808080" stop-opacity="0.1"/>
</linearGradient>
<linearGradient id="paint1_linear" x1="86108.4" y1="226363" x2="86108.4" y2="76663.8" gradientUnits="userSpaceOnUse">
<stop stop-color="#808080" stop-opacity="0.25"/>
<stop offset="0.54" stop-color="#808080" stop-opacity="0.12"/>
<stop offset="1" stop-color="#808080" stop-opacity="0.1"/>
</linearGradient>
</defs>
</svg>
