<svg width="50" height="50" viewBox="0 0 56 56" fill="none" xmlns="http://www.w3.org/2000/svg">
<path d="M46.6667 25.6642H51.3334C51.3334 13.6942 42.2964 4.6665 30.3101 4.6665V9.33317C39.7881 9.33317 46.6667 16.2002 46.6667 25.6642Z" fill="black"/>
<path d="M30.3335 18.6669C35.2405 18.6669 37.3335 20.7599 37.3335 25.6669H42.0002C42.0002 18.1419 37.8585 14.0002 30.3335 14.0002V18.6669ZM38.3182 31.3672C37.8698 30.9597 37.2806 30.7424 36.6751 30.7611C36.0695 30.7798 35.4948 31.0331 35.0725 31.4676L29.4888 37.2099C28.1448 36.9532 25.4428 36.1109 22.6615 33.3366C19.8802 30.5529 19.0378 27.8439 18.7882 26.5092L24.5258 20.9232C24.9608 20.5012 25.2145 19.9265 25.2332 19.3207C25.2519 18.7149 25.0342 18.1257 24.6262 17.6776L16.0045 8.19723C15.5963 7.74773 15.0289 7.47508 14.4229 7.43717C13.8168 7.39927 13.2199 7.5991 12.7588 7.99423L7.6955 12.3366C7.2921 12.7414 7.05132 13.2803 7.01884 13.8509C6.98384 14.4342 6.3165 28.2522 17.0312 38.9716C26.3785 48.3166 38.0872 49.0002 41.3118 49.0002C41.7832 49.0002 42.0725 48.9862 42.1495 48.9816C42.72 48.9496 43.2586 48.7078 43.6615 48.3026L48.0015 43.2369C48.3969 42.7761 48.5972 42.1794 48.5597 41.5733C48.5222 40.9673 48.25 40.3998 47.8008 39.9912L38.3182 31.3672Z" fill="black"/>
</svg>
