<svg width="21" height="20" viewBox="0 0 26 25" fill="none" xmlns="http://www.w3.org/2000/svg">
<path d="M13.3729 0C20.2792 0 25.8729 5.59375 25.8729 12.5C25.8729 19.4063 20.2792 25 13.3729 25C6.46667 25 0.872925 19.4063 0.872925 12.5C0.872925 5.59375 6.46667 0 13.3729 0ZM13.3729 21.875C18.5448 21.875 22.7479 17.6719 22.7479 12.5C22.7479 7.32813 18.5448 3.125 13.3729 3.125C8.20105 3.125 3.99792 7.32813 3.99792 12.5C3.99792 17.6719 8.20105 21.875 13.3729 21.875ZM12.2636 13.6094C12.3729 13.6875 12.4823 13.7656 12.6229 13.8437L12.5917 13.875L19.6229 17.1875L14.8886 12.2031L13.3729 4.6875L11.8573 12.2031H11.8729C11.8729 12.2344 11.8573 12.2813 11.8417 12.3438C11.8261 12.4062 11.8104 12.4531 11.8104 12.5C11.8104 12.9375 11.9667 13.3125 12.2636 13.6094Z" fill="#877777"/>
</svg>
