<svg width="72" height="65" viewBox="0 0 102 95" fill="none" xmlns="http://www.w3.org/2000/svg">
<ellipse cx="50.7022" cy="47.5" rx="50.7022" ry="47.5" fill="#00E676"/>
<path d="M36.2635 71.2096L37.2852 71.7181C41.543 74.2604 46.3113 75.4468 51.0799 75.4468C66.0664 75.4468 78.3281 63.2438 78.3281 48.329C78.3281 41.2106 75.4329 34.2617 70.324 29.177C65.2149 24.0923 58.4026 21.2112 51.0799 21.2112C36.0933 21.2112 23.8313 33.4142 24.0018 48.4986C24.0018 53.583 25.5345 58.4983 28.0889 62.7352L28.7701 63.7523L26.0455 73.7521L36.2635 71.2096Z" fill="#00E676"/>
<path d="M73.4749 25.9796C67.6846 20.0477 59.6804 16.8274 51.5059 16.8274C34.1353 16.8274 20.1704 30.8946 20.3406 48.0125C20.3406 53.4361 21.8733 58.6903 24.428 63.4358L20 79.5369L36.5193 75.2997C41.1174 77.8422 46.2263 79.0286 51.3357 79.0286C68.5361 79.0286 82.501 64.9611 82.501 47.8434C82.501 39.5385 79.2651 31.7421 73.4751 25.9796H73.4749ZM51.5059 73.7746C46.9077 73.7746 42.3096 72.5884 38.3926 70.2156L37.3708 69.707L27.4934 72.2492L30.0479 62.5888L29.3667 61.5717C21.8733 49.5384 25.4497 33.6064 37.7114 26.1489C49.9731 18.6917 65.8113 22.251 73.3047 34.4539C80.7979 46.6568 77.2214 62.4189 64.96 69.8764C61.0427 72.4186 56.2744 73.7744 51.5059 73.7744V73.7746ZM66.4924 54.9619L64.6191 54.1145C64.6191 54.1145 61.8945 52.9281 60.1914 52.0806C60.021 52.0806 59.8508 51.911 59.6804 51.911C59.1694 51.911 58.8289 52.0806 58.4883 52.2502C58.4883 52.2502 58.3181 52.4195 55.9338 55.1313C55.7634 55.4702 55.4229 55.6398 55.0823 55.6398H54.9119C54.7417 55.6398 54.4011 55.4702 54.2307 55.3009L53.3792 54.9619C51.5059 54.1145 49.803 53.0974 48.4404 51.7416C48.0999 51.4027 47.5889 51.0637 47.2483 50.7248C46.0562 49.5384 44.864 48.1824 44.0127 46.657L43.8423 46.3181C43.6721 46.1485 43.6721 45.9791 43.5017 45.6402C43.5017 45.3012 43.5017 44.9623 43.6721 44.7927C43.6721 44.7927 44.3533 43.9452 44.864 43.4369C45.2048 43.0977 45.375 42.5895 45.7156 42.2505C46.0562 41.742 46.2266 41.0641 46.0562 40.5556C45.886 39.7081 43.8423 35.132 43.3315 34.1152C42.9907 33.6066 42.6504 33.4373 42.1394 33.2677H40.2661C39.9253 33.2677 39.585 33.4373 39.2441 33.4373L39.0737 33.6066C38.7332 33.7762 38.3926 34.1152 38.052 34.2845C37.7114 34.6237 37.541 34.9624 37.2004 35.3016C36.0083 36.8269 35.3271 38.6912 35.3271 40.5556C35.3271 41.9113 35.6677 43.2673 36.1787 44.4538L36.3491 44.9623C37.8818 48.1824 39.9253 51.0637 42.6504 53.6059L43.3315 54.2838C43.8423 54.7924 44.3533 55.1313 44.6938 55.6396C48.2703 58.6906 52.3574 60.8938 56.9556 62.0802C57.4666 62.2496 58.1477 62.2496 58.6587 62.4192H60.3616C61.2131 62.4192 62.2349 62.0802 62.9163 61.7413C63.427 61.4023 63.7676 61.4023 64.1082 61.0634L64.449 60.7242C64.7896 60.3853 65.1301 60.2159 65.4707 59.877C65.8113 59.538 66.1519 59.1991 66.3223 58.8599C66.6628 58.182 66.833 57.3345 67.0034 56.4873V55.3009C67.0034 55.3009 66.833 55.1313 66.4924 54.9619Z" fill="white"/>
</svg>
