<svg width="201" height="199" viewBox="0 0 201 199" fill="none" xmlns="http://www.w3.org/2000/svg">
<g id="Estudiante-medio">
<path id="Vector" d="M76.3729 181.841C75.569 179.96 74.807 177.796 75.6109 175.914C76.1357 174.806 77.0371 173.934 78.1446 173.464C79.2405 173.004 80.3956 172.711 81.5736 172.593C85.271 172.094 89.0124 172.042 92.7216 172.437C92.9921 174.64 92.4206 176.874 91.9291 179.003C91.4834 180.963 91.2281 181.253 89.2621 181.355C87.9896 181.426 76.6739 182.535 76.3729 181.841Z" fill="#FBBEBE"/>
<path id="Vector_2" d="M110.301 169.147C140.391 169.147 164.784 162.127 164.784 153.466C164.784 144.805 140.391 137.785 110.301 137.785C80.2109 137.785 55.818 144.805 55.818 153.466C55.818 162.127 80.2109 169.147 110.301 169.147Z" fill="#464353"/>
<path id="Vector_3" opacity="0.1" d="M110.301 169.147C140.391 169.147 164.784 162.127 164.784 153.466C164.784 144.805 140.391 137.785 110.301 137.785C80.2109 137.785 55.818 144.805 55.818 153.466C55.818 162.127 80.2109 169.147 110.301 169.147Z" fill="black"/>
<path id="Vector_4" d="M120.07 70.6842C118.202 74.3974 115.101 77.2968 111.33 78.8542C109.11 79.6868 106.773 80.1449 104.411 80.2106C101.824 80.3322 99.1835 80.1597 96.7527 79.2502C93.4914 78.0349 90.7825 75.5494 88.7517 72.6522C86.721 69.7551 85.3227 66.4463 84.1073 63.1101C83.4673 61.3734 82.8576 59.523 83.1586 57.6883C85.1208 57.2296 87.2696 56.5553 88.2831 54.7637C89.148 53.227 88.9079 51.3844 88.4088 49.6281C88.2679 49.1302 88.104 48.6363 87.9402 48.1619C87.5592 47.025 86.2447 44.8649 87.1591 43.8927C87.7421 43.2772 90.1843 42.9635 91.0263 42.5637C93.6209 41.3327 96.0136 39.5529 98.8635 38.9687C101.329 38.463 103.874 38.9374 106.335 39.4627C106.661 39.5115 106.975 39.6275 107.257 39.8038C107.578 40.0825 107.816 40.4497 107.943 40.8622C108.644 42.6186 109.055 44.5591 109.619 46.3899C110.206 48.307 110.96 50.1064 112.374 51.4667C113.475 52.5292 114.877 53.1956 116.249 53.8425L119.624 55.4341C120.225 55.6655 120.769 56.0279 121.221 56.4965C121.662 57.1209 121.926 57.8593 121.983 58.6292C122.587 62.7545 121.918 66.9711 120.07 70.6842Z" fill="#FBBEBE"/>
<path id="Vector_5" opacity="0.1" d="M109.604 46.3899C106.917 49.2661 103.378 51.1442 99.5432 51.7301C95.7079 52.3161 91.792 51.5768 88.4087 49.6281C88.2677 49.1303 88.1039 48.6363 87.94 48.1619C87.559 47.025 86.2446 44.8649 87.159 43.8927C87.7419 43.2772 90.1841 42.9636 91.0261 42.5637C93.6208 41.3327 96.0135 39.5529 98.8633 38.9687C101.328 38.463 103.874 38.9374 106.335 39.4627C106.661 39.5115 106.975 39.6275 107.257 39.8038C107.578 40.0825 107.816 40.4497 107.943 40.8623C108.628 42.6186 109.04 44.5591 109.604 46.3899Z" fill="black"/>
<path id="Vector_6" d="M96.966 51.1453C106.645 51.1453 114.492 43.0714 114.492 33.1118C114.492 23.1521 106.645 15.0782 96.966 15.0782C87.2866 15.0782 79.4399 23.1521 79.4399 33.1118C79.4399 43.0714 87.2866 51.1453 96.966 51.1453Z" fill="#FBBEBE"/>
<path id="Vector_7" d="M150.363 91.6385L148.923 82.6609C148.195 78.1564 147.445 73.5657 145.41 69.5082C144.073 66.8502 141.951 64.3176 139.089 63.7923C138.526 63.7406 137.972 63.6087 137.443 63.4003C136.605 62.9847 136.148 62.0517 135.504 61.3617C133.843 59.5897 131.138 59.5623 128.913 58.6606C126.947 57.8765 125.339 56.3672 123.548 55.2146C121.758 54.062 119.529 53.2544 117.548 53.9915C117.227 57.5002 116.888 61.0873 115.441 64.2824C114.498 66.3624 113.116 68.1994 111.395 69.659C109.674 71.1187 107.658 72.164 105.493 72.7187C103.329 73.2733 101.072 73.3232 98.8865 72.8648C96.7011 72.4063 94.643 71.451 92.8626 70.0688C89.4678 67.4382 87.2923 63.3807 86.2789 59.135C86.0312 58.1 85.7493 56.9121 84.8235 56.4378C83.8214 55.9203 82.6175 56.5475 81.7755 57.3081C80.2324 58.7155 79.0056 60.7305 77.0015 61.2049C76.2776 61.3774 75.4775 61.3421 74.8755 61.7929C74.4755 62.1729 74.1406 62.6195 73.8849 63.1141C73.4464 63.7517 72.8605 64.2669 72.18 64.6133C71.4995 64.9596 70.746 65.1261 69.9873 65.0978C69.2901 65.0625 68.4633 64.8979 67.9871 65.4193C67.6327 65.8113 67.6061 66.4229 67.2251 66.7875C66.7107 67.301 65.8763 67.0501 65.16 67.0227C63.8037 66.9639 62.5426 67.8577 61.7653 68.9828C60.9881 70.108 60.6223 71.4997 60.2413 72.8483C64.4057 82.3904 68.2157 91.9442 72.38 101.486C72.5751 101.846 72.6786 102.251 72.681 102.662C72.5975 103.09 72.4202 103.492 72.1628 103.839C70.1207 107.214 70.1854 111.46 70.4102 115.427C70.635 119.394 70.9093 123.585 69.1872 127.141C68.7186 128.117 68.109 129.011 67.6632 129.987C66.6193 132.198 66.2421 139.271 66.8517 141.646H152.958C151.316 137.001 151.94 127.678 152.283 122.746C152.523 119.296 151.902 115.85 151.636 112.401C151.076 105.356 151.495 98.6716 150.363 91.6385Z" fill="#F86D70"/>
<path id="Vector_8" d="M154.771 138.902C156.04 138.404 157.438 138.584 158.798 138.773C163.176 139.388 167.619 140.019 171.676 141.819C173.581 142.658 175.395 143.779 176.683 145.429C177.826 146.915 178.492 148.734 179.125 150.526L180.588 154.638C181.144 156.206 181.708 157.806 181.864 159.472C182.321 164.408 179.041 169.061 174.915 171.625C170.788 174.189 165.931 175.102 161.199 176.059C156.467 177.015 151.716 178.074 147.003 179.195C144.804 179.782 142.574 180.234 140.324 180.548C135.279 181.136 130.006 180.269 125.213 181.986C123.308 182.673 121.438 183.692 119.46 184.166C118.149 184.462 116.822 184.682 115.486 184.825L106.415 185.891C104.57 186.145 102.713 186.292 100.852 186.33C96.8897 186.33 92.9921 185.366 89.144 184.401C88.7349 184.327 88.3454 184.166 88.001 183.927C87.3914 183.433 87.258 182.559 87.1704 181.767C86.7818 178.262 86.4414 174.753 86.1493 171.241C86.0579 170.1 85.9893 168.865 86.5951 167.905C87.3571 166.729 88.843 166.36 90.1994 166.133C95.9508 165.164 101.777 164.748 107.603 164.89C109.817 162.612 113.467 162.6 116.366 161.362C117.433 160.858 118.465 160.28 119.456 159.633C124.641 156.52 130.434 154.636 136.415 154.117C137.586 154.08 138.751 153.909 139.886 153.607C142.13 152.89 144.176 150.937 146.481 151.416C146.766 150.604 146.965 149.518 147.624 148.962C147.951 148.675 148.355 148.483 148.656 148.178C149.292 147.515 149.35 146.472 149.254 145.547C149.159 144.622 148.946 143.673 149.178 142.771C149.275 142.43 149.417 142.104 149.601 141.803C150.748 139.741 152.474 138.706 154.771 138.902Z" fill="#464353"/>
<path id="Vector_9" opacity="0.05" d="M154.771 138.902C156.04 138.404 157.438 138.584 158.798 138.773C163.176 139.388 167.619 140.019 171.676 141.819C173.581 142.658 175.395 143.779 176.683 145.429C177.826 146.915 178.492 148.734 179.125 150.526L180.588 154.638C181.144 156.206 181.708 157.806 181.864 159.472C182.321 164.408 179.041 169.061 174.915 171.625C170.788 174.189 165.931 175.102 161.199 176.059C156.467 177.015 151.716 178.074 147.003 179.195C144.804 179.782 142.574 180.234 140.324 180.548C135.279 181.136 130.006 180.269 125.213 181.986C123.308 182.673 121.438 183.692 119.46 184.166C118.149 184.462 116.822 184.682 115.486 184.825L106.415 185.891C104.57 186.145 102.713 186.292 100.852 186.33C96.8897 186.33 92.9921 185.366 89.144 184.401C88.7349 184.327 88.3454 184.166 88.001 183.927C87.3914 183.433 87.258 182.559 87.1704 181.767C86.7818 178.262 86.4414 174.753 86.1493 171.241C86.0579 170.1 85.9893 168.865 86.5951 167.905C87.3571 166.729 88.843 166.36 90.1994 166.133C95.9508 165.164 101.777 164.748 107.603 164.89C109.817 162.612 113.467 162.6 116.366 161.362C117.433 160.858 118.465 160.28 119.456 159.633C124.641 156.52 130.434 154.636 136.415 154.117C137.586 154.08 138.751 153.909 139.886 153.607C142.13 152.89 144.176 150.937 146.481 151.416C146.766 150.604 146.965 149.518 147.624 148.962C147.951 148.675 148.355 148.483 148.656 148.178C149.292 147.515 149.35 146.472 149.254 145.547C149.159 144.622 148.946 143.673 149.178 142.771C149.275 142.43 149.417 142.104 149.601 141.803C150.748 139.741 152.474 138.706 154.771 138.902Z" fill="black"/>
<path id="Vector_10" d="M79.8782 184.264C77.5198 187.075 75.4434 188.079 71.7515 187.989C69.4807 187.934 67.2125 187.812 64.9468 187.624C63.3982 187.452 61.8408 187.377 60.2834 187.4C55.5818 187.589 51.0441 189.804 46.354 189.416C45.6605 189.359 44.9747 189.228 44.308 189.023C43.25 188.72 42.294 188.122 41.5458 187.295C40.6466 186.248 40.2161 184.86 39.9685 183.488C38.715 176.455 42.1516 168.795 48.1676 165.215C48.9525 164.694 49.8448 164.368 50.7736 164.263C51.6844 164.259 52.5848 164.462 53.4101 164.859L53.4673 164.882C55.9114 165.917 58.1313 167.441 59.9976 169.367C60.2808 169.701 60.6187 169.981 60.9958 170.194C61.3723 170.34 61.7708 170.417 62.1731 170.422L67.1795 170.747C68.0277 170.773 68.8707 170.893 69.6941 171.104C70.6018 171.43 71.4855 171.823 72.3382 172.28C75.0319 173.519 78.0189 173.848 80.9298 174.326C81.2103 174.342 81.478 174.452 81.6918 174.64C81.8079 174.788 81.8888 174.963 81.928 175.149C82.3344 176.726 82.3601 178.38 82.0028 179.969C81.6456 181.557 80.9162 183.032 79.8782 184.264Z" fill="#3F3D56"/>
<path id="Vector_11" opacity="0.1" d="M53.452 164.882C51.5097 166.791 49.8246 168.958 48.4419 171.327C46.2229 175.237 44.8287 179.583 44.3499 184.084C44.1684 185.726 44.1543 187.383 44.308 189.027C43.2495 188.723 42.2935 188.123 41.5458 187.295C40.6466 186.248 40.2161 184.86 39.9685 183.488C38.715 176.455 42.1516 168.795 48.1676 165.215C48.9525 164.694 49.8448 164.368 50.7736 164.263C51.6844 164.259 52.5847 164.462 53.4101 164.859L53.452 164.882Z" fill="black"/>
<path id="Vector_12" d="M150.413 174.632C153.213 174.553 156.356 174.408 158.414 176.349C160.376 178.184 160.635 181.21 160.764 183.935L160.913 187.099C160.959 188.063 160.997 189.059 160.62 189.953C159.949 191.521 158.109 192.277 156.429 192.187C154.748 192.097 153.205 191.34 151.67 190.658C147.501 188.81 143.161 187.404 138.716 186.46C138.861 184.272 139.102 182.095 139.44 179.928C139.672 178.427 139.71 175.914 140.686 174.667C141.718 173.35 143.063 174.063 144.465 174.306C146.433 174.615 148.425 174.724 150.413 174.632Z" fill="#FBBEBE"/>
<path id="Vector_13" d="M76.4148 142.846C76.4148 143.238 75.8166 142.846 75.7632 142.426C75.3441 139.255 72.8981 136.64 70.0482 135.37C67.1984 134.1 63.9522 134.033 60.8661 134.335C56.1989 134.79 50.9792 136.628 49.2532 141.117C48.8494 142.168 48.6665 143.305 48.1712 144.312C47.6226 145.418 46.7272 146.3 46.1329 147.374C45.108 149.232 45.0661 151.51 45.4356 153.611C46.43 159.217 50.1562 164.012 54.6711 167.332C59.1859 170.653 64.4628 172.636 69.7244 174.424C83.6372 179.146 97.9116 182.654 112.396 184.911C114.743 185.276 117.113 185.613 119.361 186.389C121.373 187.083 123.255 188.122 125.221 188.937C129.793 190.827 134.712 191.501 139.585 192.164C140.415 192.273 141.368 192.352 141.981 191.772C142.774 191.015 142.511 189.698 142.286 188.612C141.458 184.486 142.15 180.192 144.225 176.561C145.041 175.149 146.1 173.703 145.947 172.068C145.764 170.163 143.92 168.814 142.084 168.508C140.248 168.203 138.381 168.653 136.537 168.9C135.9 168.987 135.207 169.042 134.632 168.708C134.358 168.518 134.109 168.291 133.892 168.034C132.622 166.773 130.996 165.958 129.248 165.707C127.5 165.456 125.719 165.78 124.162 166.634C123.48 167.026 122.447 166.152 121.739 165.823L113.734 162.087C104.529 157.802 95.2781 153.497 85.5397 150.785C84.7627 150.627 84.0243 150.311 83.368 149.855C82.8841 149.463 82.5374 148.93 82.0917 148.495C81.1201 147.55 79.7676 147.174 78.6017 146.504C77.4358 145.833 76.1404 144.191 76.4148 142.846Z" fill="#464353"/>
<path id="Vector_14" d="M199.931 194.081C198.651 196.523 196.167 198.044 193.5 198.671C192.831 198.827 192.15 198.927 191.465 198.969C188.093 199.185 184.764 198.225 181.514 197.276L177.102 195.99C176.343 195.744 175.566 195.566 174.778 195.457C173.705 195.383 172.627 195.421 171.562 195.57C166.347 196.07 161.091 195.827 155.941 194.849C155.51 194.801 155.096 194.649 154.733 194.406C154.415 194.085 154.133 193.729 153.891 193.344C152.691 191.858 151.399 190.991 152.821 189.031C153.64 187.894 155.16 187.326 155.796 186.02C156.432 184.715 156.025 182.861 155.648 181.512C155.133 179.65 153.442 178.846 152.836 177.137C152.382 175.847 153.144 174.35 154.291 173.648C155.438 172.946 156.855 172.891 158.177 173.072C159.499 173.252 160.795 173.636 162.125 173.742C166.034 174.063 170.03 171.99 173.783 173.158C174.61 173.417 175.391 173.828 176.229 174.056C177.863 174.432 179.57 174.28 181.117 173.62C181.666 173.409 182.203 173.154 182.737 172.903C183.765 172.352 184.861 171.945 185.994 171.692C189.656 171.045 193.05 173.652 195.813 176.196C196.761 177.006 197.6 177.942 198.308 178.98C199.07 180.203 199.474 181.626 199.832 183.029C200.842 186.663 201.676 190.748 199.931 194.081Z" fill="#3F3D56"/>
<path id="Vector_15" opacity="0.1" d="M199.931 194.081C198.651 196.523 196.167 198.044 193.5 198.672C194.537 196.598 195.005 194.271 194.853 191.944C194.624 188.216 193.031 184.703 191.001 181.606C189.751 179.7 188.33 177.919 186.756 176.286C185.545 175.032 184.055 174.036 182.752 172.887C183.781 172.336 184.876 171.929 186.01 171.676C189.671 171.029 193.066 173.636 195.828 176.18C196.776 176.99 197.615 177.926 198.323 178.964C199.085 180.187 199.489 181.61 199.847 183.014C200.842 186.663 201.676 190.748 199.931 194.081Z" fill="black"/>
<path id="Vector_16" d="M84.8578 3.84255C83.5776 4.79519 82.7013 6.16338 81.8098 7.4767C80.1677 9.90339 78.3084 12.3262 75.6833 13.6787C74.6889 14.1922 73.5535 14.5803 72.8944 15.4742C72.5032 16.0787 72.2492 16.7661 72.1514 17.4853C71.6486 20.0144 71.3857 22.5878 71.3666 25.1692C71.3666 26.4551 71.4199 27.7801 71.9724 28.9484C72.4943 30.0461 73.4354 30.9752 73.6297 32.1709C73.7783 33.1039 73.443 34.0331 73.3249 34.97C73.2068 35.907 73.4125 37.0164 74.2545 37.4634C74.7082 37.639 75.182 37.7536 75.6642 37.8044C78.1979 38.3846 79.0475 41.4425 79.4323 43.9711C80.2934 43.9202 80.682 42.9048 80.8611 42.0776L83.5014 29.999C83.7872 28.6897 84.2634 27.1725 85.5321 26.7138C86.3818 26.4119 87.3114 26.6942 88.1991 26.7726C91.6853 27.0666 94.6342 24.295 98.0442 23.5305C99.1358 23.3051 100.252 23.23 101.363 23.307C104.053 23.4442 107.181 24.5811 107.752 27.1646C107.847 27.5841 107.904 28.0859 108.285 28.2937C108.666 28.5015 109.047 28.3251 109.467 28.2937C111.173 28.1173 112.179 30.0931 112.671 31.7083L114.461 37.5888C114.728 38.4787 115.178 39.5255 116.115 39.6392C116.98 39.7489 117.715 38.9061 117.845 38.071C117.974 37.236 117.692 36.3696 117.506 35.5306C116.664 31.6691 117.951 27.7174 118.736 23.848C119.521 19.9787 119.662 15.533 117.029 12.5535C116.073 11.4754 114.816 10.6718 113.924 9.53487C113.094 8.46854 112.625 7.15916 111.764 6.11243C109.383 3.22314 103.275 0.992465 99.5301 0.623954C95.2667 0.141752 88.3172 1.25904 84.8578 3.84255Z" fill="#3F3D56"/>
<path id="Vector_17" opacity="0.1" d="M116.13 36.891C115.193 36.7734 114.743 35.7149 114.477 34.8407C113.88 32.8779 113.283 30.9177 112.686 28.9602C112.195 27.3411 111.189 25.3652 109.482 25.5455C109.101 25.5887 108.651 25.7494 108.301 25.5455C107.95 25.3417 107.863 24.836 107.767 24.4165C107.196 21.8291 104.068 20.6961 101.378 20.5589C100.267 20.4838 99.1514 20.5589 98.0595 20.7823C94.6305 21.5664 91.7006 24.3106 88.2144 24.0244C87.3153 23.95 86.3856 23.6677 85.5474 23.9696C84.2635 24.4243 83.8025 25.9297 83.5167 27.2548L80.8764 39.3294C80.6973 40.1605 80.3087 41.1759 79.4476 41.223C79.0666 38.6983 78.2132 35.6404 75.6796 35.0602C75.198 35.0056 74.7246 34.8911 74.2699 34.7191C73.9384 34.5328 73.6789 34.2354 73.5345 33.8762C73.4659 34.2408 73.3859 34.6054 73.3402 34.97C73.2259 35.9031 73.4278 37.0164 74.2699 37.4634C74.7235 37.639 75.1974 37.7536 75.6796 37.8044C78.2132 38.3846 79.0628 41.4425 79.4476 43.9711C80.3087 43.9201 80.6973 42.9048 80.8764 42.0776L83.5167 29.999C83.8025 28.6897 84.2787 27.1725 85.5474 26.7138C86.3971 26.4119 87.3267 26.6942 88.2144 26.7726C91.7006 27.0666 94.6495 24.295 98.0595 23.5305C99.1462 23.3065 100.257 23.2314 101.363 23.307C104.053 23.4442 107.181 24.5811 107.752 27.1646C107.847 27.5841 107.905 28.0859 108.286 28.2937C108.667 28.5015 109.048 28.3251 109.467 28.2937C111.174 28.1173 112.179 30.0931 112.671 31.7083C113.265 33.6711 113.862 35.6313 114.462 37.5888C114.728 38.4787 115.178 39.5255 116.115 39.6391C116.98 39.7489 117.715 38.906 117.845 38.071C117.903 37.3684 117.826 36.6608 117.616 35.9893C117.481 36.2722 117.268 36.5082 117.004 36.6683C116.74 36.8285 116.436 36.9059 116.13 36.891Z" fill="black"/>
<path id="Vector_18" opacity="0.1" d="M73.6335 29.4266C73.4392 28.2309 72.4905 27.3018 71.9761 26.2041C71.6455 25.4638 71.4541 24.6656 71.4123 23.8519C71.4123 24.291 71.3742 24.7301 71.3704 25.1731C71.3704 26.459 71.4237 27.784 71.9761 28.9523C72.3991 29.8422 73.0963 30.6263 73.4468 31.5319C73.6316 30.8474 73.6949 30.1342 73.6335 29.4266Z" fill="black"/>
<path id="Vector_19" opacity="0.1" d="M118.752 21.0842C118.058 24.5027 116.976 27.984 117.311 31.4103C117.529 28.8817 118.245 26.3374 118.752 23.8284C119.174 21.9244 119.323 19.967 119.194 18.0185C119.111 19.0491 118.963 20.0732 118.752 21.0842Z" fill="black"/>
<path id="Vector_20" d="M60.0089 73.1384C59.6377 73.5381 59.3499 74.0117 59.163 74.5301C56.0833 81.6719 54.2642 89.321 53.7909 97.1191C53.7992 97.4993 53.714 97.8756 53.5433 98.2129C53.3749 98.4373 53.1875 98.6459 52.9832 98.8362C52.7977 99.0624 52.6593 99.3254 52.5765 99.6088C52.4937 99.8923 52.4684 100.19 52.5019 100.484C52.5355 100.778 52.6273 101.062 52.7717 101.318C52.9161 101.574 53.11 101.797 53.3414 101.972C53.97 100.753 55.475 100.357 56.8123 100.251C63.2169 99.73 69.4729 102.796 75.8966 102.564C75.4432 100.953 74.7917 99.4046 74.4221 97.7738C72.7876 90.5329 76.8643 82.6491 74.365 75.6748C73.8659 74.2792 73.0315 72.9071 71.717 72.2955C71.1728 72.0693 70.6032 71.9139 70.0216 71.8329C68.3985 71.531 65.1676 70.2413 63.5979 70.7587C63.0188 70.9508 62.7902 71.5114 62.3101 71.8486C61.5976 72.3308 60.6299 72.4994 60.0089 73.1384Z" fill="#F86D70"/>
<g id="antebrazo-estudiante">
<path id="Vector_21" d="M75.1347 108.966C74.6737 116.752 69.1225 123.185 67.008 130.673C66.4822 132.547 66.166 134.492 65.4116 136.275C63.8876 139.862 60.7519 142.466 57.4106 144.3C56.1915 145.025 54.858 145.524 53.471 145.774C51.9464 145.958 50.4036 145.659 49.0484 144.917C47.6932 144.175 46.5898 143.026 45.8853 141.623C45.0128 139.8 44.8909 137.702 44.3613 135.742C43.7708 133.48 42.6658 131.395 41.9458 129.172C40.6199 125.083 40.6465 120.606 41.5648 116.403C42.4348 112.748 43.8116 109.242 45.6529 105.991C45.9196 105.509 46.1901 105.03 46.4682 104.556C47.2542 103.185 48.1366 101.874 49.1086 100.636C51.3946 97.8012 54.3321 95.6215 57.2391 93.4732C57.4611 93.285 57.7216 93.1509 58.0011 93.0811H58.0468C58.3746 93.0693 58.6995 93.1478 58.9879 93.3085C63.0194 95.102 66.889 97.2587 70.5513 99.7535C71.8619 100.651 73.9307 101.655 74.6165 103.184C75.3023 104.713 75.2337 107.304 75.1347 108.966Z" fill="#FBBEBE"/>
</g>
<g id="brazo-estudiante">
<path id="Vector_22" d="M57.5896 86.4871L61.2663 74.6202C61.8149 72.8443 62.3712 71.041 62.4359 69.1749C62.5007 67.3088 62.0245 65.3526 60.7557 64.0196C59.727 62.9416 58.3021 62.3849 57.0829 61.542C54.0349 59.4289 52.5109 55.7281 50.9221 52.3214C49.3334 48.9146 47.2417 45.351 43.7746 44.0887C42.9745 43.7986 41.8696 43.775 41.5114 44.563C41.3876 44.8906 41.3676 45.2501 41.4543 45.5901C41.7896 47.4013 43.0507 48.8479 44.148 50.2945C45.9882 52.7448 47.5274 55.7438 47.0855 58.8095C46.5597 62.4397 43.3898 65.2545 43.0088 68.9044C42.8411 70.5117 43.2412 72.123 43.2374 73.7421C43.2374 74.7457 43.0774 75.7689 43.2945 76.749C43.5199 77.5068 43.7884 78.2503 44.0984 78.9757C44.4378 80.1479 44.6148 81.3634 44.6242 82.5864L45.4281 98.0168C45.8625 106.363 41.4619 114.482 42.6735 122.715C42.9935 124.875 43.6108 126.976 43.9003 129.14C44.2813 131.857 44.1022 134.629 44.6128 137.322C45.1233 140.015 46.5178 142.748 48.9333 143.853C49.8993 144.262 50.9374 144.458 51.9813 144.43C53.91 144.403 55.7994 143.865 57.4676 142.869C59.1358 141.872 60.5267 140.451 61.5063 138.741C63.9066 134.429 63.3275 129.101 62.6722 124.185L61.0567 112.032C60.8908 110.582 60.6465 109.142 60.3252 107.72C59.9213 106.05 59.3117 104.442 58.8012 102.804C57.1667 97.4444 55.9437 91.8109 57.5896 86.4871Z" fill="#FBBEBE"/>
</g>
<path id="Vector_23" d="M155.461 87.4084H76.571C74.8939 87.4084 73.5344 88.8073 73.5344 90.5329V139.953C73.5344 141.678 74.8939 143.077 76.571 143.077H155.461C157.138 143.077 158.497 141.678 158.497 139.953V90.5329C158.497 88.8073 157.138 87.4084 155.461 87.4084Z" fill="#3F3D56"/>
<path id="Vector_24" opacity="0.2" d="M155.461 87.4084H76.571C74.8939 87.4084 73.5344 88.8073 73.5344 90.5329V139.953C73.5344 141.678 74.8939 143.077 76.571 143.077H155.461C157.138 143.077 158.497 141.678 158.497 139.953V90.5329C158.497 88.8073 157.138 87.4084 155.461 87.4084Z" fill="black"/>
<path id="Vector_25" d="M115.825 117.595C117.088 117.595 118.111 116.542 118.111 115.243C118.111 113.944 117.088 112.891 115.825 112.891C114.563 112.891 113.539 113.944 113.539 115.243C113.539 116.542 114.563 117.595 115.825 117.595Z" fill="white"/>
<path id="Vector_26" d="M15.573 160.852H20.1869C22.7131 160.852 25.1358 161.885 26.9221 163.723C28.7083 165.561 29.7119 168.053 29.7119 170.653V185.201H6.04797V170.653C6.04797 168.053 7.0515 165.561 8.83778 163.723C10.6241 161.885 13.0468 160.852 15.573 160.852Z" fill="#3F3D56"/>
<path id="Vector_27" opacity="0.1" d="M15.573 160.852H20.1869C22.7131 160.852 25.1358 161.885 26.9221 163.723C28.7083 165.561 29.7119 168.053 29.7119 170.653V185.201H6.04797V170.653C6.04797 168.053 7.0515 165.561 8.83778 163.723C10.6241 161.885 13.0468 160.852 15.573 160.852Z" fill="black"/>
<path id="Vector_28" d="M16.9369 166.211C17.9827 166.211 18.8305 165.339 18.8305 164.263C18.8305 163.187 17.9827 162.314 16.9369 162.314C15.8911 162.314 15.0433 163.187 15.0433 164.263C15.0433 165.339 15.8911 166.211 16.9369 166.211Z" fill="#3F3D56"/>
<path id="Vector_29" d="M16.9369 163.777C17.9827 163.777 18.8305 162.904 18.8305 161.828C18.8305 160.752 17.9827 159.88 16.9369 159.88C15.8911 159.88 15.0433 160.752 15.0433 161.828C15.0433 162.904 15.8911 163.777 16.9369 163.777Z" fill="#3F3D56"/>
<path id="Vector_30" d="M16.9369 161.342C17.9827 161.342 18.8305 160.47 18.8305 159.394C18.8305 158.318 17.9827 157.445 16.9369 157.445C15.8911 157.445 15.0433 158.318 15.0433 159.394C15.0433 160.47 15.8911 161.342 16.9369 161.342Z" fill="#3F3D56"/>
<path id="Vector_31" d="M16.9369 158.907C17.9827 158.907 18.8305 158.035 18.8305 156.959C18.8305 155.883 17.9827 155.011 16.9369 155.011C15.8911 155.011 15.0433 155.883 15.0433 156.959C15.0433 158.035 15.8911 158.907 16.9369 158.907Z" fill="#3F3D56"/>
<path id="Vector_32" d="M16.9369 156.473C17.9827 156.473 18.8305 155.601 18.8305 154.525C18.8305 153.448 17.9827 152.576 16.9369 152.576C15.8911 152.576 15.0433 153.448 15.0433 154.525C15.0433 155.601 15.8911 156.473 16.9369 156.473Z" fill="#3F3D56"/>
<path id="Vector_33" d="M16.9369 154.038C17.9827 154.038 18.8305 153.166 18.8305 152.09C18.8305 151.014 17.9827 150.142 16.9369 150.142C15.8911 150.142 15.0433 151.014 15.0433 152.09C15.0433 153.166 15.8911 154.038 16.9369 154.038Z" fill="#3F3D56"/>
<path id="Vector_34" d="M16.9369 151.604C17.9827 151.604 18.8305 150.732 18.8305 149.655C18.8305 148.579 17.9827 147.707 16.9369 147.707C15.8911 147.707 15.0433 148.579 15.0433 149.655C15.0433 150.732 15.8911 151.604 16.9369 151.604Z" fill="#3F3D56"/>
<path id="Vector_35" d="M19.7753 152.576C20.8211 152.576 21.6689 151.704 21.6689 150.628C21.6689 149.552 20.8211 148.679 19.7753 148.679C18.7295 148.679 17.8817 149.552 17.8817 150.628C17.8817 151.704 18.7295 152.576 19.7753 152.576Z" fill="#3F3D56"/>
<path id="Vector_36" d="M21.6689 151.604C22.7147 151.604 23.5625 150.732 23.5625 149.655C23.5625 148.579 22.7147 147.707 21.6689 147.707C20.6232 147.707 19.7754 148.579 19.7754 149.655C19.7754 150.732 20.6232 151.604 21.6689 151.604Z" fill="#3F3D56"/>
<path id="Vector_37" d="M23.5625 150.628C24.6083 150.628 25.4561 149.755 25.4561 148.679C25.4561 147.603 24.6083 146.731 23.5625 146.731C22.5167 146.731 21.6689 147.603 21.6689 148.679C21.6689 149.755 22.5167 150.628 23.5625 150.628Z" fill="#3F3D56"/>
<path id="Vector_38" d="M16.9369 149.165C17.9827 149.165 18.8305 148.293 18.8305 147.217C18.8305 146.141 17.9827 145.269 16.9369 145.269C15.8911 145.269 15.0433 146.141 15.0433 147.217C15.0433 148.293 15.8911 149.165 16.9369 149.165Z" fill="#3F3D56"/>
<path id="Vector_39" d="M16.9369 146.731C17.9827 146.731 18.8305 145.859 18.8305 144.782C18.8305 143.706 17.9827 142.834 16.9369 142.834C15.8911 142.834 15.0433 143.706 15.0433 144.782C15.0433 145.859 15.8911 146.731 16.9369 146.731Z" fill="#3F3D56"/>
<path id="Vector_40" d="M16.9369 144.296C17.9827 144.296 18.8305 143.424 18.8305 142.348C18.8305 141.272 17.9827 140.4 16.9369 140.4C15.8911 140.4 15.0433 141.272 15.0433 142.348C15.0433 143.424 15.8911 144.296 16.9369 144.296Z" fill="#3F3D56"/>
<path id="Vector_41" d="M16.9369 141.862C17.9827 141.862 18.8305 140.99 18.8305 139.913C18.8305 138.837 17.9827 137.965 16.9369 137.965C15.8911 137.965 15.0433 138.837 15.0433 139.913C15.0433 140.99 15.8911 141.862 16.9369 141.862Z" fill="#3F3D56"/>
<path id="Vector_42" d="M24.7817 133.629C24.313 133.7 23.8406 133.751 23.3682 133.782C23.8074 133.388 24.2151 132.958 24.5874 132.496C24.3237 131.678 23.9381 130.907 23.4444 130.211C22.975 130.482 22.4561 130.65 21.9204 130.705C21.4517 130.775 20.9793 130.83 20.5069 130.861C21.1418 130.24 21.7458 129.586 22.3166 128.901C20.9469 127.634 19.1955 126.889 17.3557 126.791C15.5159 126.693 13.6993 127.248 12.2098 128.364C10.7203 129.479 9.6484 131.087 9.17341 132.919C8.69843 134.75 8.8492 136.694 9.6005 138.425C10.3518 140.156 11.6581 141.569 13.3006 142.427C14.9432 143.285 16.8225 143.537 18.6239 143.14C20.4253 142.743 22.0396 141.722 23.1966 140.247C24.3536 138.771 24.9831 136.932 24.9798 135.037C24.9799 134.559 24.9391 134.083 24.8579 133.614L24.7817 133.629Z" fill="#6C63FF"/>
<path id="Vector_43" d="M31.1101 143.308C30.6264 143.613 30.0819 143.801 29.5175 143.857C29.0489 143.928 28.5764 143.979 28.104 144.01C28.6061 143.547 29.0747 143.046 29.5061 142.513C28.3644 142.206 27.1528 142.349 26.108 142.913C25.0633 143.477 24.2606 144.422 23.8568 145.563C23.4531 146.704 23.4773 147.958 23.9248 149.081C24.3723 150.205 25.2108 151.116 26.2765 151.637C27.3422 152.158 28.5584 152.251 29.6873 151.898C30.8163 151.546 31.7768 150.772 32.3811 149.73C32.9853 148.687 33.19 147.45 32.9549 146.26C32.7199 145.071 32.062 144.014 31.1101 143.297V143.308Z" fill="#6C63FF"/>
<path id="Vector_44" d="M14.0946 152.576C15.1404 152.576 15.9882 151.704 15.9882 150.628C15.9882 149.552 15.1404 148.679 14.0946 148.679C13.0488 148.679 12.201 149.552 12.201 150.628C12.201 151.704 13.0488 152.576 14.0946 152.576Z" fill="#3F3D56"/>
<path id="Vector_45" d="M12.2011 151.604C13.2469 151.604 14.0947 150.732 14.0947 149.655C14.0947 148.579 13.2469 147.707 12.2011 147.707C11.1553 147.707 10.3075 148.579 10.3075 149.655C10.3075 150.732 11.1553 151.604 12.2011 151.604Z" fill="#3F3D56"/>
<path id="Vector_46" d="M10.3075 150.628C11.3533 150.628 12.2011 149.755 12.2011 148.679C12.2011 147.603 11.3533 146.731 10.3075 146.731C9.26173 146.731 8.41394 147.603 8.41394 148.679C8.41394 149.755 9.26173 150.628 10.3075 150.628Z" fill="#3F3D56"/>
<path id="Vector_47" d="M2.75995 143.308C3.2433 143.614 3.78799 143.801 4.35253 143.857C4.82116 143.928 5.29361 143.979 5.76605 144.01C5.26297 143.548 4.79428 143.047 4.36396 142.513C5.50562 142.206 6.71726 142.349 7.762 142.913C8.80674 143.477 9.60946 144.422 10.0132 145.563C10.417 146.704 10.3927 147.958 9.94524 149.081C9.49776 150.205 8.65922 151.116 7.59352 151.637C6.52783 152.158 5.31162 152.251 4.18268 151.898C3.05374 151.546 2.09324 150.772 1.48895 149.73C0.884664 148.687 0.68004 147.45 0.91509 146.26C1.15014 145.071 1.80796 144.014 2.75995 143.297V143.308Z" fill="#6C63FF"/>
<path id="Vector_48" d="M15.573 162.314H20.1869C22.7131 162.314 25.1358 163.347 26.9221 165.185C28.7083 167.023 29.7119 169.516 29.7119 172.115V185.001C29.7119 185.442 29.5417 185.865 29.2387 186.177C28.9358 186.488 28.5249 186.663 28.0964 186.663H7.66341C7.23497 186.663 6.82407 186.488 6.52112 186.177C6.21817 185.865 6.04797 185.442 6.04797 185.001V172.115C6.04797 169.516 7.0515 167.023 8.83778 165.185C10.6241 163.347 13.0468 162.314 15.573 162.314Z" fill="#3F3D56"/>
<g id="Group" opacity="0.1">
<path id="Vector_49" opacity="0.1" d="M24.9264 134.162C24.7347 134.373 24.5312 134.572 24.3169 134.758C24.534 134.758 24.7474 134.723 24.9645 134.699C24.9569 134.519 24.9455 134.339 24.9264 134.162Z" fill="black"/>
<path id="Vector_50" opacity="0.1" d="M21.4746 131.834C21.9509 131.802 22.4195 131.751 22.8919 131.681C23.3158 131.626 23.73 131.509 24.1226 131.336C23.9299 130.944 23.7082 130.568 23.4596 130.211C23.2227 130.359 22.966 130.471 22.6976 130.544C22.324 131.007 21.915 131.438 21.4746 131.834Z" fill="black"/>
<path id="Vector_51" opacity="0.1" d="M9.83502 136.017C9.83218 134.53 10.2189 133.071 10.9546 131.792C11.6903 130.513 12.7476 129.461 14.0151 128.749C15.2827 128.036 16.7136 127.688 18.1571 127.742C19.6007 127.796 21.0034 128.249 22.2175 129.054L22.3395 128.921C21.5471 128.195 20.623 127.638 19.6205 127.282C18.6179 126.926 17.5568 126.777 16.4982 126.845C15.4396 126.912 14.4044 127.195 13.4524 127.676C12.5003 128.157 11.6502 128.827 10.9509 129.647C10.2517 130.468 9.71717 131.423 9.37818 132.457C9.0392 133.491 8.90244 134.584 8.97579 135.673C9.04914 136.761 9.33114 137.824 9.80555 138.801C10.28 139.777 10.9374 140.647 11.74 141.36C10.5078 139.869 9.83244 137.974 9.83502 136.017Z" fill="black"/>
</g>
<g id="Group_2" opacity="0.1">
<path id="Vector_52" opacity="0.1" d="M28.104 144.982C28.5764 144.951 29.0489 144.9 29.5175 144.829C30.0823 144.775 30.6272 144.587 31.1101 144.281C31.6451 144.686 32.0911 145.203 32.4193 145.797C32.7475 146.391 32.9505 147.05 33.0151 147.73C33.0336 147.56 33.0425 147.388 33.0418 147.217C33.0454 146.456 32.8748 145.704 32.5439 145.023C32.2129 144.342 31.7309 143.751 31.1368 143.297C30.6531 143.601 30.1086 143.789 29.5442 143.845L29.1632 143.893C28.8381 144.283 28.4839 144.648 28.104 144.982Z" fill="black"/>
<path id="Vector_53" opacity="0.1" d="M28.2945 143.32C28.4526 143.322 28.6104 143.334 28.767 143.355C29.0146 143.085 29.2585 142.795 29.5061 142.513C28.8057 142.32 28.0716 142.296 27.3607 142.442C26.6497 142.589 25.981 142.901 25.4064 143.356C24.8317 143.811 24.3665 144.396 24.0468 145.065C23.727 145.735 23.5613 146.471 23.5625 147.217C23.5625 147.382 23.5625 147.542 23.5854 147.703C23.7025 146.502 24.2492 145.388 25.1194 144.578C25.9896 143.768 27.1212 143.32 28.2945 143.32Z" fill="black"/>
</g>
<g id="Group_3" opacity="0.1">
<path id="Vector_54" opacity="0.1" d="M5.76607 144.982C5.29363 144.951 4.82118 144.9 4.35255 144.829C3.78765 144.775 3.24257 144.588 2.75998 144.281C2.22503 144.686 1.77897 145.203 1.45076 145.797C1.12256 146.391 0.919572 147.05 0.854975 147.73C0.836495 147.56 0.827588 147.388 0.828303 147.217C0.824712 146.456 0.99528 145.704 1.32621 145.023C1.65715 144.342 2.13916 143.751 2.7333 143.297C3.21665 143.602 3.76135 143.79 4.32588 143.845L4.70688 143.893C5.02996 144.285 5.38425 144.65 5.76607 144.982Z" fill="black"/>
<path id="Vector_55" opacity="0.1" d="M5.5756 143.32C5.4163 143.322 5.25726 143.334 5.09935 143.355C4.85551 143.085 4.61166 142.795 4.36401 142.513C5.06445 142.32 5.79855 142.296 6.50947 142.442C7.2204 142.589 7.88907 142.901 8.46372 143.356C9.03837 143.811 9.50359 144.396 9.82333 145.065C10.1431 145.735 10.3088 146.471 10.3076 147.217C10.3076 147.382 10.3076 147.542 10.2847 147.703C10.1676 146.502 9.62088 145.388 8.7507 144.578C7.88052 143.768 6.74895 143.32 5.5756 143.32Z" fill="black"/>
</g>
</g>
</svg>
