<svg width="43" height="40" viewBox="0 0 54 50" fill="none" xmlns="http://www.w3.org/2000/svg">
<path d="M47.6963 8.33366H41.7953V12.5003C41.7953 12.9016 41.7113 13.2989 41.5482 13.6696C41.3851 14.0403 41.146 14.3772 40.8447 14.6609C40.5433 14.9447 40.1855 15.1697 39.7917 15.3233C39.3979 15.4768 38.9759 15.5559 38.5497 15.5559C38.1235 15.5559 37.7014 15.4768 37.3077 15.3233C36.9139 15.1697 36.5561 14.9447 36.2547 14.6609C35.9534 14.3772 35.7143 14.0403 35.5512 13.6696C35.3881 13.2989 35.3041 12.9016 35.3041 12.5003V8.33366H18.1174V12.5003C18.1174 13.3107 17.7754 14.0879 17.1668 14.6609C16.5581 15.234 15.7326 15.5559 14.8718 15.5559C14.011 15.5559 13.1855 15.234 12.5768 14.6609C11.9682 14.0879 11.6262 13.3107 11.6262 12.5003V8.33366H5.72518C5.3741 8.32989 5.02579 8.39245 4.70084 8.51763C4.37589 8.64281 4.08091 8.82807 3.83333 9.06244C3.58575 9.29682 3.39061 9.57556 3.25945 9.88217C3.12829 10.1888 3.06378 10.517 3.06972 10.8475V41.9309C3.06385 42.2555 3.12599 42.5781 3.25257 42.8802C3.37915 43.1822 3.56769 43.4579 3.80744 43.6913C4.04718 43.9247 4.33342 44.1114 4.64982 44.2407C4.96621 44.37 5.30656 44.4393 5.65142 44.4448H47.6963C48.0412 44.4393 48.3815 44.37 48.6979 44.2407C49.0143 44.1114 49.3005 43.9247 49.5403 43.6913C49.78 43.4579 49.9686 43.1822 50.0951 42.8802C50.2217 42.5781 50.2839 42.2555 50.278 41.9309V10.8475C50.2839 10.5229 50.2217 10.2003 50.0951 9.89824C49.9686 9.59618 49.78 9.32056 49.5403 9.08712C49.3005 8.85367 49.0143 8.66697 48.6979 8.53769C48.3815 8.40841 48.0412 8.33908 47.6963 8.33366ZM14.8718 36.1114H11.9213V33.3337H14.8718V36.1114ZM14.8718 29.167H11.9213V26.3892H14.8718V29.167ZM14.8718 22.2225H11.9213V19.4448H14.8718V22.2225ZM23.7233 36.1114H20.7728V33.3337H23.7233V36.1114ZM23.7233 29.167H20.7728V26.3892H23.7233V29.167ZM23.7233 22.2225H20.7728V19.4448H23.7233V22.2225ZM32.5749 36.1114H29.6244V33.3337H32.5749V36.1114ZM32.5749 29.167H29.6244V26.3892H32.5749V29.167ZM32.5749 22.2225H29.6244V19.4448H32.5749V22.2225ZM41.4265 36.1114H38.4759V33.3337H41.4265V36.1114ZM41.4265 29.167H38.4759V26.3892H41.4265V29.167ZM41.4265 22.2225H38.4759V19.4448H41.4265V22.2225Z" fill="white"/>
<path d="M14.872 13.8889C15.2633 13.8889 15.6385 13.7426 15.9152 13.4821C16.1918 13.2217 16.3472 12.8684 16.3472 12.5001V4.16672C16.3472 3.79836 16.1918 3.4451 15.9152 3.18463C15.6385 2.92416 15.2633 2.77783 14.872 2.77783C14.4807 2.77783 14.1055 2.92416 13.8288 3.18463C13.5522 3.4451 13.3967 3.79836 13.3967 4.16672V12.5001C13.3967 12.8684 13.5522 13.2217 13.8288 13.4821C14.1055 13.7426 14.4807 13.8889 14.872 13.8889Z" fill="white"/>
<path d="M38.4761 13.8889C38.8674 13.8889 39.2426 13.7426 39.5193 13.4821C39.796 13.2217 39.9514 12.8684 39.9514 12.5001V4.16672C39.9514 3.79836 39.796 3.4451 39.5193 3.18463C39.2426 2.92416 38.8674 2.77783 38.4761 2.77783C38.0849 2.77783 37.7096 2.92416 37.4329 3.18463C37.1563 3.4451 37.0009 3.79836 37.0009 4.16672V12.5001C37.0009 12.8684 37.1563 13.2217 37.4329 13.4821C37.7096 13.7426 38.0849 13.8889 38.4761 13.8889Z" fill="white"/>
</svg>
