<svg width="251" height="300" viewBox="0 0 251 300" fill="none" xmlns="http://www.w3.org/2000/svg">
<g id="HOMBRE">
<g id="flor-izquierda">
<path id="Vector" d="M143.864 283.065C165.504 298.655 193.548 299.438 220.656 297.523C224.441 297.255 228.199 296.942 231.923 296.604C231.945 296.598 231.975 296.6 231.998 296.594C232.177 296.577 232.356 296.56 232.527 296.55C233.296 296.478 234.065 296.406 234.826 296.334L234.646 296.677L234.082 297.742C234.285 297.386 234.487 297.037 234.69 296.68C234.75 296.573 234.817 296.467 234.876 296.36C241.898 284.14 248.863 271.471 250.64 257.517C252.476 243.033 247.315 226.633 234.568 219.514C232.896 218.583 231.126 217.842 229.29 217.303C228.527 217.072 227.755 216.884 226.973 216.718C222.192 215.656 217.215 215.887 212.553 217.387C207.891 218.886 203.713 221.601 200.448 225.25C197.183 228.9 194.949 233.354 193.975 238.153C193.002 242.953 193.325 247.925 194.91 252.558C184.103 241.476 186.119 223.499 189.847 208.474C193.582 193.449 198.104 176.73 190.507 163.235C186.283 155.724 178.857 151.064 170.522 149.186C170.267 149.131 170.011 149.076 169.755 149.028C159.825 147.017 149.501 148.826 140.847 154.094C124.91 164.136 116.725 183.176 114.069 201.828C109.789 231.843 119.261 265.339 143.864 283.065Z" fill="#992211"/>
<path id="Vector_2" d="M165.412 234.95C166.04 241.571 167.631 248.064 170.133 254.226C172.439 259.678 175.547 264.755 179.355 269.288C187.132 278.644 197.417 285.679 208.586 290.365C217.126 293.863 226.074 296.267 235.217 297.521C239.002 297.254 242.76 296.941 246.484 296.603C246.506 296.597 246.536 296.599 246.559 296.593C246.738 296.576 246.917 296.559 247.088 296.549C247.857 296.477 248.626 296.405 249.387 296.333L249.207 296.676L248.643 297.741C248.846 297.384 249.048 297.035 249.251 296.679C249.311 296.572 249.378 296.465 249.437 296.358C242.583 289.529 237.465 281.156 234.513 271.942C231.56 262.727 230.86 252.939 232.47 243.398C234.154 233.924 238.054 224.982 243.851 217.302C243.088 217.07 242.316 216.882 241.534 216.716C239.331 219.728 237.399 222.929 235.759 226.281C229.877 238.236 228.001 251.767 230.407 264.872C232.645 276.73 238.219 287.705 246.476 296.506C245.753 296.455 245.023 296.396 244.309 296.331C230.777 295.184 217.274 292.275 205.001 286.317C194.51 281.347 185.402 273.874 178.48 264.556C171.047 254.305 167.771 241.974 167.209 229.442C166.612 216.025 168.353 202.373 171.415 189.325C174.542 175.948 179.293 163.005 185.564 150.783C185.704 150.506 185.733 150.185 185.643 149.888C185.554 149.59 185.353 149.339 185.083 149.185C184.858 149.033 184.583 148.976 184.316 149.027C184.186 149.061 184.065 149.125 183.962 149.213C183.86 149.3 183.779 149.41 183.724 149.534C182.951 151.044 182.192 152.554 181.461 154.082C175.379 166.807 170.901 180.239 168.13 194.068C165.44 207.409 164.004 221.365 165.412 234.95Z" fill="white"/>
</g>
<g id="Hombre">
<path id="Vector_3" d="M72.4769 287.049H82.059L86.6171 250.09L72.4753 250.091L72.4769 287.049Z" fill="#A0616A"/>
<path id="Vector_4" d="M100.539 295.945L70.424 295.947L70.4235 284.312L88.9029 284.311C91.9887 284.311 94.9482 285.536 97.1303 287.718C99.3125 289.9 100.538 292.859 100.539 295.945V295.945V295.945Z" fill="#2F2E41"/>
<path id="Vector_5" d="M36.5243 287.049H46.1064L50.6645 250.09L36.5227 250.091L36.5243 287.049Z" fill="#A0616A"/>
<path id="Vector_6" d="M64.5864 295.945L34.4719 295.947L34.4713 284.312L52.9507 284.311C56.0366 284.311 58.9961 285.536 61.1782 287.718C63.3603 289.9 64.5863 292.859 64.5864 295.945V295.945V295.945Z" fill="#2F2E41"/>
<path id="Vector_7" d="M37.695 176.973C38.7274 176.309 39.6015 175.427 40.256 174.389C40.9105 173.35 41.3293 172.181 41.4829 170.963C41.6366 169.745 41.5214 168.509 41.1454 167.34C40.7694 166.172 40.1418 165.1 39.3068 164.2L45.616 74.665L27.4421 76.4275L26.943 164.109C25.5245 165.612 24.7067 167.583 24.6445 169.649C24.5822 171.715 25.2798 173.732 26.6052 175.317C27.9305 176.903 29.7915 177.947 31.8354 178.252C33.8794 178.558 35.9642 178.103 37.695 176.973L37.695 176.973Z" fill="#A0616A"/>
<path id="Vector_8" d="M72.7628 268.434C71.9031 268.432 71.0739 268.115 70.4308 267.544C69.7878 266.974 69.3751 266.188 69.2702 265.335L63.7005 218.751C63.6221 218.095 63.309 217.49 62.819 217.047C62.3291 216.604 61.6953 216.353 61.0348 216.341C60.3743 216.328 59.7317 216.556 59.2257 216.98C58.7197 217.405 58.3845 217.998 58.282 218.651L51.2658 263.253C51.1387 264.083 50.7181 264.839 50.0804 265.384C49.4427 265.929 48.6304 266.227 47.7914 266.224H36.4195C35.9554 266.224 35.4959 266.132 35.0675 265.954C34.639 265.775 34.2501 265.514 33.9232 265.184C33.5963 264.855 33.3378 264.464 33.1626 264.034C32.9874 263.604 32.899 263.144 32.9024 262.68L38.3299 163.785C38.332 162.943 38.6377 162.13 39.191 161.495C39.7442 160.86 40.5079 160.447 41.3417 160.33L83.5417 154.204C84.0431 154.131 84.5543 154.168 85.0403 154.311C85.5263 154.454 85.9756 154.701 86.3575 155.034C86.7395 155.367 87.045 155.778 87.2533 156.24C87.4615 156.702 87.5675 157.203 87.564 157.71L86.8279 264.439C86.8217 265.338 86.4709 266.201 85.8479 266.85C85.2248 267.499 84.3767 267.884 83.4781 267.927L72.9298 268.43C72.8739 268.433 72.8182 268.434 72.7628 268.434Z" fill="#2F2E41"/>
<path id="Vector_9" d="M50.8845 167.521C46.8254 167.505 42.7995 166.788 38.9845 165.402C38.3377 165.164 37.776 164.739 37.3702 164.182C36.9643 163.625 36.7324 162.96 36.7038 162.272C36.3398 154.193 34.2099 112.608 28.0092 87.2416C26.804 82.2657 27.0988 77.0443 28.8563 72.2356C30.6139 67.4269 33.7556 63.2461 37.8855 60.2201C38.2191 59.9804 38.5591 59.7451 38.9056 59.5141C42.4919 57.1268 46.6293 55.6967 50.9243 55.3601C55.2194 55.0234 59.5291 55.7913 63.4435 57.5907C67.4874 59.4002 71.001 62.2143 73.65 65.7653C76.299 69.3163 77.9953 73.4862 78.5775 77.878L88.6891 152.949C88.754 153.418 88.723 153.896 88.5979 154.352C88.4728 154.809 88.2562 155.236 87.9613 155.607C87.6728 155.975 87.3125 156.281 86.9023 156.506C86.492 156.731 86.0404 156.87 85.5748 156.914C82.0711 157.264 74.8043 158.622 65.5041 163.789C61.0317 166.267 55.9972 167.552 50.8845 167.521V167.521Z" fill="#6C63FF"/>
<path id="Vector_10" d="M38.5226 105.293L21.8824 100.781C20.9828 100.536 20.217 99.9442 19.7531 99.1353C19.2893 98.3264 19.1653 97.3665 19.4083 96.4663L25.258 74.891C25.8846 72.58 27.3446 70.5827 29.3565 69.2844C31.3685 67.986 33.7899 67.4786 36.1538 67.8599C38.5178 68.2412 40.6568 69.4842 42.1586 71.3492C43.6603 73.2143 44.4183 75.5693 44.2865 77.9602L42.9548 102.092C42.926 102.615 42.7806 103.126 42.5293 103.585C42.278 104.045 41.9271 104.443 41.5023 104.75C41.0775 105.057 40.5894 105.265 40.0739 105.359C39.5584 105.453 39.0284 105.43 38.5226 105.293V105.293Z" fill="#6C63FF"/>
<path id="Vector_11" d="M57.0461 47.3976C67.6479 47.3976 76.2423 38.8031 76.2423 28.2013C76.2423 17.5996 67.6479 9.00513 57.0461 9.00513C46.4443 9.00513 37.8499 17.5996 37.8499 28.2013C37.8499 38.8031 46.4443 47.3976 57.0461 47.3976Z" fill="#A0616A"/>
<path id="Vector_12" d="M123.275 52.2368C123.268 52.6692 123.295 53.1016 123.356 53.5297L94.4798 79.3866L85.5276 76.4664L79.3548 89.4008L98.9978 97.9895L130.272 60.5435C131.919 60.7881 133.602 60.5253 135.097 59.7901C136.592 59.0548 137.827 57.8819 138.639 56.4274C139.451 54.9729 139.801 53.3057 139.642 51.6475C139.483 49.9893 138.824 48.4188 137.75 47.1447C136.677 45.8706 135.242 44.9534 133.635 44.5151C132.028 44.0768 130.325 44.1381 128.754 44.6909C127.183 45.2436 125.817 46.2617 124.838 47.6096C123.859 48.9576 123.314 50.5715 123.275 52.2368Z" fill="#A0616A"/>
<path id="Vector_13" d="M91.8316 79.6815L77.0448 96.8869C76.262 97.3936 75.3102 97.5692 74.3982 97.375C73.4861 97.1809 72.6884 96.6328 72.1799 95.8512L60.0108 77.0996C58.7073 75.091 58.1935 72.671 58.5687 70.306C58.9438 67.9411 60.1813 65.7988 62.0424 64.2922C63.9036 62.7857 66.2566 62.0215 68.6478 62.1471C71.039 62.2728 73.299 63.2793 74.9921 64.9725L92.4043 74.2445C92.7748 74.615 93.0579 75.0637 93.2327 75.5577C93.4076 76.0516 93.4699 76.5785 93.415 77.0996C93.3601 77.6207 93.1894 78.123 92.9155 78.5698C92.6415 79.0165 92.2712 79.3963 91.8316 79.6815Z" fill="#6C63FF"/>
<path id="Vector_14" d="M43.4618 43.3886C47.0429 47.2033 53.6936 45.1555 54.1602 39.9441C54.1968 39.5395 54.1941 39.1323 54.1523 38.7282C53.9113 36.4198 52.5777 34.324 52.8972 31.8866C52.9695 31.28 53.1955 30.7019 53.5538 30.2071C56.4075 26.3857 63.1064 31.9163 65.7996 28.4569C67.4511 26.3357 65.5098 22.996 66.7771 20.6252C68.4497 17.4961 73.4039 19.0397 76.5107 17.326C79.9674 15.4194 79.7606 10.1158 77.4852 6.88994C74.7102 2.95582 69.8448 0.856562 65.0399 0.554024C60.2351 0.251485 55.4634 1.55033 50.9777 3.29847C45.881 5.28471 40.8269 8.02974 37.6904 12.5113C33.8762 17.9613 33.5091 25.2884 35.4167 31.6612C36.5771 35.5378 40.5374 40.2735 43.4618 43.3886Z" fill="#2F2E41"/>
</g>
<path id="piso-izquierda" d="M249.979 299.852H1.18182C1.00863 299.852 0.842544 299.646 0.72008 299.28C0.597617 298.914 0.528809 298.417 0.528809 297.898C0.528809 297.38 0.597617 296.883 0.72008 296.517C0.842544 296.15 1.00863 295.944 1.18182 295.944H249.979C250.152 295.944 250.318 296.15 250.441 296.517C250.563 296.883 250.632 297.38 250.632 297.898C250.632 298.417 250.563 298.914 250.441 299.28C250.318 299.646 250.152 299.852 249.979 299.852Z" fill="#3F3D56"/>
</g>
</svg>
