<svg width="251" height="299" viewBox="0 0 251 299" fill="none" xmlns="http://www.w3.org/2000/svg">
<g id="MUJER">
<g id="flor-derecha">
<path id="Vector" d="M76.7088 286.406C62.323 296.769 43.6801 297.289 25.6597 296.016C23.1434 295.839 20.6449 295.63 18.1696 295.406C18.1546 295.402 18.135 295.403 18.1198 295.399C18.0008 295.388 17.8816 295.377 17.7678 295.37C17.2569 295.322 16.7457 295.274 16.2396 295.226L16.3592 295.454L16.7344 296.162C16.5996 295.925 16.4648 295.693 16.3299 295.456C16.2903 295.385 16.2458 295.314 16.2064 295.243C11.5381 287.12 6.908 278.698 5.72696 269.421C4.50619 259.793 7.93705 248.89 16.4111 244.158C17.5224 243.539 18.6993 243.046 19.92 242.688C20.4268 242.534 20.9405 242.41 21.4599 242.299C24.6381 241.593 27.9468 241.747 31.046 242.744C34.1451 243.741 36.9227 245.545 39.0933 247.971C41.2639 250.398 42.7491 253.358 43.3961 256.549C44.0432 259.74 43.8287 263.045 42.7748 266.125C49.9593 258.758 48.6191 246.807 46.1408 236.819C43.6577 226.831 40.6517 215.717 45.7021 206.745C48.5095 201.752 53.4465 198.654 58.9871 197.406C59.157 197.369 59.3268 197.333 59.4971 197.301C66.0985 195.964 72.9613 197.166 78.7148 200.668C89.3088 207.344 94.75 220.002 96.516 232.401C99.3614 252.354 93.0646 274.622 76.7088 286.406Z" fill="#992211"/>
<path id="Vector_2" d="M71.7254 254.684C71.3078 259.085 70.2506 263.402 68.5872 267.498C67.0542 271.122 64.9878 274.498 62.4568 277.511C57.1947 283.67 50.5305 288.475 43.0247 291.523C37.3475 293.848 31.3991 295.446 25.3211 296.28C22.8047 296.102 20.3062 295.894 17.8309 295.669C17.8159 295.665 17.7963 295.667 17.7811 295.663C17.6621 295.651 17.5429 295.64 17.4291 295.633C16.9182 295.585 16.4071 295.538 15.9009 295.49L16.0205 295.718L16.3958 296.426C16.2609 296.189 16.1261 295.957 15.9912 295.72C15.9516 295.649 15.9071 295.578 15.8677 295.507C20.4244 290.967 23.8265 285.401 25.7891 279.275C27.7516 273.149 28.2173 266.643 27.1472 260.3C26.0274 254.002 23.435 248.058 19.5813 242.952C20.0881 242.798 20.6018 242.673 21.1213 242.562C22.5859 244.565 23.8705 246.692 24.9603 248.921C28.8705 256.868 30.118 265.864 28.5181 274.575C27.0307 282.459 23.325 289.754 17.8362 295.605C18.3168 295.571 18.8021 295.532 19.277 295.488C28.2722 294.726 37.2491 292.792 45.4079 288.831C52.3819 285.528 58.4364 280.56 63.0384 274.365C67.9796 267.551 70.157 259.353 70.531 251.022C70.8188 242.047 69.8781 233.074 67.7348 224.353C65.6563 215.461 62.4976 206.857 58.3289 198.732C58.2357 198.547 58.2168 198.334 58.2763 198.137C58.3358 197.939 58.469 197.771 58.6484 197.669C58.798 197.568 58.9813 197.531 59.1584 197.564C59.2452 197.587 59.3256 197.629 59.3937 197.688C59.4618 197.746 59.5159 197.819 59.5519 197.901C60.0661 198.905 60.5708 199.909 61.0563 200.925C65.0998 209.384 68.0767 218.313 69.9186 227.506C71.7067 236.375 72.6612 245.653 71.7254 254.684Z" fill="white"/>
</g>
<g id="Mujer">
<path id="Vector_3" d="M179.688 149.747C178.627 149.219 177.695 148.464 176.957 147.537C176.218 146.609 175.693 145.532 175.416 144.379C175.14 143.226 175.12 142.027 175.357 140.866C175.594 139.705 176.083 138.609 176.789 137.658L170.727 78.3833H183.828L188.646 136.262C190.167 137.554 191.16 139.359 191.439 141.335C191.717 143.311 191.261 145.321 190.157 146.983C189.053 148.645 187.377 149.845 185.448 150.354C183.518 150.863 181.469 150.647 179.688 149.747V149.747Z" fill="#FFB8B8"/>
<path id="Vector_4" d="M169.144 101.738C168.725 101.488 168.365 101.15 168.088 100.748C167.812 100.346 167.625 99.8892 167.541 99.4084L164.608 82.6174C163.821 80.2476 164.006 77.6625 165.123 75.4291C166.239 73.1956 168.196 71.4961 170.564 70.703C172.931 69.91 175.517 70.0881 177.754 71.1985C179.99 72.3088 181.695 74.2607 182.495 76.6262L190.199 91.893C190.419 92.3287 190.542 92.8067 190.56 93.2944C190.579 93.7821 190.492 94.268 190.306 94.7191C190.119 95.1702 189.838 95.5758 189.481 95.9084C189.124 96.241 188.699 96.4927 188.236 96.6463L171.956 102.046C171.492 102.2 171.001 102.252 170.516 102.199C170.031 102.146 169.563 101.989 169.144 101.738V101.738Z" fill="#6C63FF"/>
<path id="Vector_5" d="M167.659 45.6711C177.896 45.6711 186.195 37.3721 186.195 27.1349C186.195 16.8976 177.896 8.59863 167.659 8.59863C157.421 8.59863 149.123 16.8976 149.123 27.1349C149.123 37.3721 157.421 45.6711 167.659 45.6711Z" fill="#FFB8B8"/>
<path id="Vector_6" d="M163.441 112.824L135.776 106.783C135.049 106.622 134.394 106.228 133.913 105.661C133.431 105.093 133.149 104.383 133.109 103.639C132.79 97.4661 132.56 81.4964 137.315 66.5881C138.234 63.7299 139.716 61.0848 141.675 58.8094C143.633 56.5341 146.028 54.6747 148.718 53.3412C151.408 52.0078 154.338 51.2273 157.335 51.0461C160.331 50.8648 163.334 51.2865 166.165 52.2861V52.2861C169.152 53.3357 171.884 55.0051 174.181 57.1847C176.477 59.3643 178.287 62.0049 179.492 64.9332C180.696 67.8615 181.268 71.0114 181.169 74.1762C181.071 77.341 180.304 80.4493 178.92 83.297C172.785 95.8948 168.921 105.018 167.436 110.413C167.206 111.25 166.663 111.967 165.919 112.415C165.176 112.864 164.289 113.01 163.441 112.824V112.824Z" fill="#6C63FF"/>
<path id="Vector_7" d="M137.379 288.921L128.126 288.92L123.725 253.232H137.381L137.379 288.921Z" fill="#FFB8B8"/>
<path id="Vector_8" d="M121.517 286.277H139.361V297.512H110.282C110.282 296.036 110.573 294.575 111.137 293.212C111.702 291.849 112.53 290.611 113.573 289.567C114.616 288.524 115.855 287.696 117.218 287.132C118.581 286.567 120.042 286.277 121.517 286.277V286.277Z" fill="#2F2E41"/>
<path id="Vector_9" d="M229.899 276.929L221.791 281.387L200.739 252.235L212.705 245.656L229.899 276.929Z" fill="#FFB8B8"/>
<path id="Vector_10" d="M214.726 282.254L230.363 273.658L235.775 283.503L210.293 297.512C209.583 296.219 209.133 294.799 208.971 293.333C208.809 291.866 208.938 290.382 209.35 288.965C209.761 287.548 210.448 286.227 211.37 285.075C212.293 283.924 213.433 282.965 214.726 282.254V282.254Z" fill="#2F2E41"/>
<path id="Vector_11" d="M137.548 269.102L123.304 268.006C122.507 267.946 121.756 267.607 121.185 267.047C120.614 266.488 120.26 265.745 120.184 264.949C118.154 243.776 109.248 136.478 133.336 103.443L133.403 103.351L133.511 103.311C133.727 103.232 155.209 95.5718 167.534 109.61C167.921 110.057 168.185 110.596 168.299 111.175C168.414 111.755 168.376 112.354 168.188 112.914L167.718 114.324C167.583 114.724 167.547 115.151 167.612 115.567C167.677 115.984 167.842 116.379 168.092 116.719C171.512 121.343 183.025 139.152 187.549 174.173C187.578 174.396 187.635 174.614 187.72 174.823L221.126 256.887C221.297 257.306 221.382 257.755 221.376 258.207C221.371 258.66 221.275 259.106 221.095 259.521C220.915 259.936 220.653 260.311 220.326 260.623C219.999 260.936 219.612 261.18 219.19 261.341L208.678 265.346C207.913 265.633 207.069 265.636 206.302 265.354C205.534 265.073 204.893 264.525 204.495 263.81L156.271 176.317C156.079 175.969 155.781 175.691 155.422 175.521C155.062 175.352 154.657 175.301 154.267 175.375C153.876 175.449 153.519 175.645 153.246 175.934C152.973 176.223 152.799 176.592 152.747 176.986L141.176 266.153C141.07 266.97 140.67 267.721 140.051 268.266C139.432 268.81 138.636 269.111 137.811 269.112C137.724 269.112 137.636 269.109 137.548 269.102Z" fill="#2F2E41"/>
<path id="Vector_12" d="M95.5968 48.6667C95.6894 49.0739 95.7498 49.4878 95.7773 49.9046L128.197 68.6075L136.078 64.0711L144.478 75.0688L131.308 84.4554C130.244 85.2137 128.963 85.6065 127.657 85.5746C126.351 85.5428 125.09 85.0882 124.065 84.2789L90.634 57.9053C89.1253 58.4638 87.4823 58.5497 85.9236 58.1516C84.3648 57.7535 82.9643 56.8903 81.9081 55.6768C80.8519 54.4633 80.1902 52.957 80.011 51.3582C79.8318 49.7595 80.1436 48.1441 80.9049 46.7268C81.6662 45.3096 82.8409 44.1578 84.2728 43.4245C85.7047 42.6912 87.326 42.4112 88.9209 42.6218C90.5158 42.8324 92.0088 43.5235 93.2014 44.6034C94.3939 45.6832 95.2294 47.1005 95.5967 48.6667L95.5968 48.6667Z" fill="#FFB8B8"/>
<path id="Vector_13" d="M128.643 66.738C128.741 66.2598 128.94 65.8083 129.228 65.4143C129.516 65.0203 129.886 64.6931 130.312 64.455L145.189 56.1361C147.166 54.6114 149.666 53.9326 152.143 54.2484C154.619 54.5642 156.869 55.8488 158.4 57.8209C159.931 59.7929 160.618 62.2913 160.309 64.7687C160.001 67.246 158.723 69.5001 156.756 71.037L144.894 83.3546C144.556 83.7062 144.145 83.9806 143.691 84.1592C143.237 84.3378 142.75 84.4165 142.262 84.3898C141.775 84.3631 141.299 84.2317 140.867 84.0045C140.435 83.7774 140.057 83.4598 139.759 83.0734L129.281 69.4933C128.983 69.107 128.771 68.6609 128.661 68.1854C128.551 67.7098 128.545 67.2162 128.643 66.738V66.738Z" fill="#6C63FF"/>
<path id="Vector_14" d="M164.725 22.8713C159.961 26.132 153.705 29.4839 148.839 26.0115C147.317 24.8524 146.212 23.2315 145.688 21.3915C145.164 19.5514 145.25 17.5912 145.933 15.8042C148.263 9.14131 154.665 6.20798 160.786 3.95952C168.744 1.03653 177.409 -1.28883 185.624 0.804467C193.84 2.89777 201.1 10.8517 199.617 19.1987C198.424 25.9112 192.093 31.4965 192.991 38.2546C193.896 45.0561 201.545 48.6362 208.298 49.8518C215.051 51.0674 222.607 51.458 227.46 56.3084C233.651 62.496 232.105 73.5558 226.28 80.0887C220.455 86.6216 211.664 89.583 203.145 91.5961C191.859 94.2633 179.652 95.6651 168.933 91.2385C158.214 86.8119 149.873 74.8959 152.978 63.7223C154.29 59.0025 157.379 55.0137 160.365 51.1305C163.351 47.2472 166.375 43.1865 167.514 38.4222C168.463 34.4519 167.761 29.8422 165.128 26.864C164.649 26.3427 164.348 25.6831 164.267 24.9799C164.186 24.2766 164.331 23.5659 164.679 22.9498L164.725 22.8713Z" fill="#2F2E41"/>
</g>
<path id="piso-derecha" d="M249.423 298.68H0.65294C0.47977 298.68 0.313701 298.556 0.191251 298.336C0.0688012 298.115 0 297.816 0 297.504C0 297.192 0.0688012 296.893 0.191251 296.673C0.313701 296.452 0.47977 296.328 0.65294 296.328H249.423C249.596 296.328 249.762 296.452 249.885 296.673C250.007 296.893 250.076 297.192 250.076 297.504C250.076 297.816 250.007 298.115 249.885 298.336C249.762 298.556 249.596 298.68 249.423 298.68Z" fill="#3F3D56"/>
</g>
</svg>
