<svg width="100%" height="300" viewBox="0 0 458 300" fill="none" xmlns="http://www.w3.org/2000/svg">
<g id="siguenos en facebook" clip-path="url(#clip0)">
<path id="Vector" d="M463.022 145.5C463.022 212.13 384.309 268.296 276.903 285.54C259.46 288.333 241.739 290.057 223.918 290.696C223.051 290.728 222.184 290.76 221.311 290.783C216.673 290.926 212 290.998 207.292 291C199.107 291 191.018 290.783 183.026 290.35C178.592 290.115 174.196 289.815 169.837 289.45C127.44 285.909 88.4245 276.45 55.4705 262.592C51.3529 260.862 47.3322 259.064 43.4085 257.196C36.2237 253.79 29.2871 250.101 22.6281 246.146C-21.3907 220.016 15.3093 164.242 38.2505 129.128C100.171 34.3574 66.0589 0 207.292 0C348.526 0 463.022 65.1406 463.022 145.5Z" fill="#F2F2F2"/>
<path id="Vector_2" d="M167.803 289.599C167.705 289.364 167.637 289.123 167.601 288.878L154.988 234.644C154.969 234.504 154.94 234.366 154.902 234.228C154.635 233.24 153.97 232.337 152.997 231.644C152.025 230.951 150.793 230.502 149.469 230.357L77.5471 230.593C76.1863 230.439 74.7959 230.617 73.5792 231.102C72.3624 231.586 71.3831 232.351 70.7843 233.286C69.6145 235.124 68.4691 236.989 67.3479 238.88C62.8087 246.498 58.631 254.551 54.8148 263.041C87.4157 276.923 126.013 286.397 167.956 289.945L167.803 289.599Z" fill="#2F2E41"/>
<g id="brazo-facebook">
<path id="Vector_3" d="M237.194 151.803C237.017 152.389 236.901 152.985 236.849 153.585L174.946 180.517L159.899 173.984L143.859 189.82L169.005 203.337C171.037 204.429 173.483 204.994 175.977 204.948C178.471 204.903 180.878 204.248 182.837 203.083L246.669 165.106C249.55 165.91 252.687 166.034 255.663 165.46C258.64 164.887 261.314 163.644 263.331 161.897C265.347 160.149 266.611 157.98 266.953 155.678C267.295 153.376 266.7 151.05 265.246 149.009C263.793 146.969 261.55 145.31 258.815 144.254C256.081 143.198 252.986 142.795 249.94 143.098C246.895 143.401 244.044 144.397 241.767 145.952C239.49 147.506 237.895 149.547 237.194 151.803V151.803Z" fill="#FFB8B8"/>
</g>
<path id="Vector_4" d="M169.903 174.404C169.715 173.715 169.333 173.065 168.782 172.497C168.232 171.93 167.525 171.458 166.712 171.115L143.318 155.223C139.544 153.027 134.769 152.049 130.04 152.504C125.31 152.959 121.013 154.809 118.09 157.649C115.167 160.489 113.857 164.088 114.447 167.656C115.036 171.223 117.478 174.469 121.236 176.682L143.882 194.416C144.528 194.923 145.312 195.318 146.179 195.575C147.046 195.833 147.977 195.946 148.908 195.908C149.838 195.87 150.747 195.681 151.572 195.354C152.397 195.028 153.119 194.571 153.689 194.014L158.1 189.7L159.607 188.231L168.684 178.372C169.199 177.87 169.575 177.295 169.793 176.682C170.068 175.94 170.106 175.159 169.903 174.404Z" fill="#CCCCCC"/>
<path id="Vector_5" d="M133.787 133.966C147.609 123.542 147.609 106.642 133.787 96.2186C119.966 85.795 97.5558 85.795 83.7339 96.2186C69.9121 106.642 69.9121 123.542 83.7339 133.966C97.5558 144.39 119.966 144.39 133.787 133.966Z" fill="#FFB8B8"/>
<path id="Vector_6" d="M153.512 216.119C154.933 214.516 163.968 203.697 160.55 191.016C160.299 190.076 159.984 189.146 159.606 188.231C157.996 184.414 155.423 180.867 152.029 177.786C152.072 176.936 152.06 176.1 151.992 175.268V175.263C151.493 169.486 148.242 164.039 142.84 159.925C137.437 155.812 130.245 153.309 122.589 152.877L83.0051 150.609C77.9101 150.295 72.7903 150.92 68.0866 152.43C63.3829 153.94 59.2361 156.289 56.0031 159.275C55.2586 159.956 54.5613 160.665 53.9142 161.4C53.9134 161.4 53.9126 161.4 53.9119 161.4C53.9111 161.4 53.9105 161.401 53.9099 161.401C53.9093 161.402 53.9089 161.402 53.9086 161.403C53.9083 161.403 53.9082 161.404 53.9082 161.405C51.4123 164.245 49.7562 167.458 49.0522 170.824C48.3483 174.19 48.613 177.631 49.8284 180.913L50.1655 182.031L54.3859 195.987L61.4426 219.339L67.3479 238.88L67.9727 240.94C68.3021 242.019 69.1062 242.983 70.2541 243.673C71.402 244.363 72.826 244.74 74.2943 244.742C74.6473 244.744 74.9999 244.722 75.348 244.678L151.943 235.207C153.024 235.077 154.043 234.74 154.902 234.228C155.418 233.918 155.87 233.552 156.244 233.142C156.743 232.598 157.088 231.982 157.259 231.333C157.43 230.684 157.422 230.015 157.236 229.368L153.512 216.119Z" fill="#CCCCCC"/>
<path id="Vector_7" d="M2.77095 294.939C1.47179 293.542 0.59474 291.947 0.201577 290.266C-0.191586 288.585 -0.0912957 286.86 0.495382 285.211C1.08206 283.563 2.14086 282.032 3.59719 280.725C5.05353 279.419 6.87197 278.369 8.92444 277.65L52.535 176.532L77.8083 185.576L30.0913 284.033C31.4646 286.714 31.4864 289.681 30.1526 292.372C28.8189 295.064 26.2222 297.293 22.8546 298.638C19.487 299.982 15.5825 300.348 11.881 299.666C8.17942 298.985 4.93802 297.303 2.77095 294.939Z" fill="#FFB8B8"/>
<path id="Vector_8" d="M77.5102 152.646C72.8382 151.586 67.8073 151.899 63.4295 153.524C59.0517 155.148 55.6519 157.962 53.9142 161.4C53.9134 161.4 53.9126 161.4 53.9118 161.4C53.9111 161.4 53.9104 161.401 53.9099 161.401C53.9093 161.402 53.9089 161.402 53.9086 161.403C53.9083 161.403 53.9082 161.404 53.9082 161.405C53.7488 161.714 53.6019 162.037 53.4733 162.361L49.7793 168.269L38.6185 186.124C38.1919 186.804 37.9649 187.546 37.9532 188.299C37.9414 189.051 38.1452 189.797 38.5505 190.484C38.9558 191.172 39.5531 191.785 40.3017 192.283C41.0503 192.781 41.9325 193.151 42.888 193.368L45.0627 193.862L54.3858 195.987L70.9314 199.757L76.4445 201.013C77.3997 201.231 78.4059 201.29 79.3945 201.188C80.3831 201.086 81.3309 200.825 82.1733 200.421C83.0157 200.018 83.7328 199.482 84.276 198.851C84.8191 198.22 85.1753 197.507 85.3205 196.763L90.4172 170.69C91.8652 167.006 91.3203 163.04 88.9016 159.659C86.4829 156.278 82.3873 153.756 77.5102 152.646Z" fill="#CCCCCC"/>
<path id="Vector_9" d="M141.26 105.386C128.648 113.706 109.288 115.638 94.2407 110.078C101 116.125 113.836 145.976 113.836 145.976C113.836 145.976 77.5913 143.103 72.4703 142.277C42.2245 137.4 53.2186 78.327 85.4472 78.6253C90.9058 78.6758 95.6777 79.1736 99.3108 82.2461C101.722 77.1485 109.39 74.1457 116.549 74.5344C123.707 74.9231 130.18 78.1656 134.785 82.3169C138.46 85.6778 141.113 89.6056 142.556 93.8235C143.999 98.0414 144.198 102.447 143.138 106.729L141.26 105.386Z" fill="#2F2E41"/>
<path id="Vector_10" d="M367.044 29.8442C364.303 29.8702 364.312 26.6224 367.053 26.6575C369.795 26.6319 369.785 29.879 367.044 29.8442Z" fill="white"/>
<g id="flechas-facebook">
<path id="Vector_11" d="M292.777 176.404C292.579 176.408 292.384 176.368 292.217 176.289C292.049 176.209 291.917 176.094 291.836 175.958C291.755 175.822 291.73 175.671 291.763 175.523C291.796 175.376 291.887 175.24 292.023 175.132L295.356 172.475C295.461 172.392 295.517 172.281 295.513 172.166C295.509 172.051 295.444 171.943 295.334 171.864L291.792 169.336C291.694 169.266 291.616 169.182 291.561 169.09C291.506 168.997 291.475 168.897 291.472 168.795C291.468 168.693 291.491 168.592 291.539 168.497C291.587 168.402 291.66 168.315 291.752 168.241C291.939 168.093 292.196 168.007 292.467 168C292.738 167.994 293.001 168.069 293.199 168.208L297.964 171.566C298.058 171.632 298.133 171.711 298.186 171.8C298.239 171.888 298.268 171.984 298.272 172.08C298.275 172.177 298.253 172.274 298.207 172.364C298.16 172.455 298.091 172.537 298.002 172.607L293.472 176.172C293.29 176.315 293.04 176.399 292.777 176.404Z" fill="#992211"/>
<path id="Vector_12" d="M289.137 172.537C289.028 172.613 288.887 172.656 288.739 172.659L277.63 172.89C277.55 172.892 277.47 172.882 277.394 172.86C277.319 172.838 277.25 172.806 277.192 172.764C277.133 172.722 277.086 172.672 277.053 172.617C277.021 172.562 277.002 172.502 277 172.441C276.998 172.381 277.012 172.32 277.04 172.263C277.069 172.207 277.113 172.155 277.168 172.111C277.223 172.067 277.29 172.031 277.363 172.007C277.437 171.982 277.516 171.968 277.596 171.967L288.705 171.736C288.83 171.733 288.953 171.759 289.057 171.811C289.162 171.862 289.243 171.937 289.29 172.024C289.337 172.111 289.347 172.207 289.32 172.299C289.292 172.39 289.229 172.474 289.137 172.537Z" fill="#992211"/>
<path id="Vector_13" d="M255.777 135.404C255.579 135.408 255.384 135.368 255.217 135.289C255.049 135.209 254.917 135.094 254.836 134.958C254.755 134.822 254.73 134.671 254.763 134.523C254.796 134.376 254.887 134.24 255.023 134.132L258.356 131.475C258.461 131.392 258.517 131.281 258.513 131.166C258.509 131.051 258.444 130.943 258.334 130.864L254.793 128.336C254.695 128.266 254.616 128.182 254.561 128.09C254.506 127.997 254.476 127.897 254.472 127.795C254.468 127.693 254.491 127.592 254.539 127.497C254.587 127.402 254.66 127.315 254.752 127.241C254.939 127.093 255.196 127.007 255.467 127C255.738 126.994 256.001 127.069 256.199 127.208L260.964 130.566C261.058 130.632 261.133 130.711 261.186 130.8C261.239 130.888 261.268 130.983 261.272 131.08C261.275 131.177 261.253 131.274 261.207 131.364C261.161 131.455 261.091 131.537 261.002 131.607L256.472 135.172C256.29 135.315 256.04 135.399 255.777 135.404Z" fill="#992211"/>
<path id="Vector_14" d="M252.137 131.537C252.028 131.613 251.887 131.656 251.739 131.659L240.63 131.89C240.55 131.892 240.47 131.882 240.394 131.86C240.319 131.838 240.25 131.806 240.192 131.764C240.133 131.722 240.086 131.672 240.053 131.617C240.021 131.562 240.002 131.502 240 131.441C239.998 131.381 240.012 131.32 240.04 131.263C240.069 131.207 240.113 131.155 240.168 131.111C240.223 131.067 240.29 131.031 240.363 131.007C240.437 130.982 240.516 130.968 240.596 130.967L251.705 130.736C251.83 130.733 251.953 130.759 252.057 130.811C252.162 130.862 252.243 130.937 252.29 131.024C252.337 131.111 252.347 131.207 252.32 131.299C252.292 131.39 252.229 131.474 252.137 131.537Z" fill="#992211"/>
<path id="Vector_15" d="M148.777 57.4036C148.58 57.4079 148.384 57.3679 148.217 57.2886C148.049 57.2092 147.917 57.0941 147.836 56.9579C147.755 56.8217 147.73 56.6705 147.763 56.5234C147.797 56.3764 147.887 56.2401 148.023 56.1318L151.357 53.4754C151.461 53.392 151.517 53.2807 151.513 53.1661C151.509 53.0514 151.445 52.9427 151.334 52.8637L147.793 50.3361C147.695 50.2662 147.616 50.1824 147.561 50.0896C147.506 49.9967 147.476 49.8966 147.472 49.795C147.468 49.6933 147.491 49.5921 147.539 49.4971C147.587 49.4021 147.66 49.3152 147.753 49.2413C147.939 49.0932 148.196 49.0066 148.467 49.0004C148.738 48.9941 149.001 49.0686 149.2 49.2078L153.964 52.5655C154.058 52.6317 154.134 52.7113 154.186 52.7997C154.239 52.8881 154.268 52.9835 154.272 53.0804C154.275 53.1773 154.253 53.2738 154.207 53.3642C154.161 53.4546 154.091 53.5372 154.002 53.6072L149.472 57.1722C149.29 57.3154 149.04 57.3986 148.777 57.4036Z" fill="#992211"/>
<path id="Vector_16" d="M145.137 53.5372C145.028 53.6128 144.887 53.6561 144.739 53.6589L133.63 53.8899C133.55 53.8917 133.47 53.8814 133.394 53.8598C133.319 53.8382 133.25 53.8056 133.192 53.7639C133.133 53.7222 133.086 53.6722 133.053 53.6168C133.021 53.5614 133.002 53.5016 133 53.441C132.998 53.3803 133.012 53.3199 133.04 53.2632C133.069 53.2065 133.113 53.1546 133.168 53.1105C133.223 53.0665 133.29 53.0311 133.363 53.0064C133.437 52.9816 133.516 52.9681 133.596 52.9665L144.705 52.7355C144.83 52.7329 144.953 52.7591 145.057 52.8106C145.162 52.862 145.243 52.9363 145.29 53.0235C145.337 53.1107 145.347 53.2066 145.32 53.2984C145.292 53.3902 145.229 53.4735 145.137 53.5372Z" fill="#992211"/>
</g>
<path id="Vector_17" d="M286.708 274.811C283.835 279.311 279.155 282.951 273.875 286.028C256.619 288.826 239.088 290.553 221.457 291.192C220.6 291.225 219.742 291.257 218.879 291.28C214.29 291.423 209.667 291.496 205.01 291.497C196.912 291.497 188.91 291.28 181.004 290.846C180.703 289.474 180.661 288.078 180.881 286.697C181.757 281.297 187.191 276.336 194.241 275.19C201.292 274.044 209.328 277.218 211.466 282.41C212.649 272.395 214.003 261.964 221.065 253.436C227.455 245.717 238.523 240.192 250.524 239.203C257.576 238.65 264.692 239.632 271.026 242.035C271.608 242.257 272.184 242.488 272.754 242.728C276.556 244.353 279.91 246.512 282.635 249.089C290.12 256.231 291.952 266.616 286.708 274.811Z" fill="#992211"/>
<path id="Vector_18" d="M272.754 242.728C272.768 242.85 272.741 242.972 272.675 243.083C272.608 243.193 272.505 243.289 272.374 243.361C251.113 256.414 233.76 272.716 221.457 291.193C220.6 291.225 219.742 291.257 218.879 291.28C219.969 289.613 221.1 287.962 222.272 286.328C228.36 277.869 235.522 269.875 243.657 262.459C251.79 255.037 260.871 248.237 270.769 242.155C270.848 242.107 270.934 242.067 271.026 242.035C271.199 241.98 271.386 241.954 271.573 241.96C271.761 241.966 271.944 242.003 272.11 242.07C272.276 242.136 272.419 242.23 272.531 242.344C272.642 242.458 272.718 242.589 272.754 242.728Z" fill="#F2F2F2"/>
<g id="facebook">
<path id="Vector_19" fill-rule="evenodd" clip-rule="evenodd" d="M337.504 131.171C337.506 138.119 334.572 144.841 329.232 150.125C323.891 155.41 316.494 158.912 308.371 160V139.612H316.415L317.948 131.171H308.371C308.049 124.141 307.726 120.198 318.351 121.142V113.966C302.437 111.006 295.798 117.822 297.585 131.171H288.815V139.612H297.585V159.99C256.306 154.625 261.158 101.864 302.967 102C307.501 102 311.992 102.753 316.182 104.219C320.372 105.685 324.179 107.833 327.386 110.542C330.593 113.251 333.138 116.466 334.874 120.006C336.61 123.545 337.504 127.339 337.504 131.171Z" fill="#3F3D56"/>
</g>
<path id="S&#195;&#173;guenos en FACEBOOK" d="M173.702 40.324C171.854 40.324 170.102 40.084 168.446 39.604C166.814 39.1 165.482 38.428 164.45 37.588C163.898 37.18 163.622 36.604 163.622 35.86C163.622 35.356 163.766 34.924 164.054 34.564C164.366 34.18 164.726 33.988 165.134 33.988C165.566 33.988 166.058 34.156 166.61 34.492C167.642 35.236 168.722 35.776 169.85 36.112C170.978 36.448 172.226 36.616 173.594 36.616C175.346 36.616 176.69 36.316 177.626 35.716C178.562 35.092 179.03 34.192 179.03 33.016C179.03 32.104 178.586 31.408 177.698 30.928C176.834 30.424 175.382 29.944 173.342 29.488C171.23 29.032 169.514 28.504 168.194 27.904C166.874 27.304 165.878 26.536 165.206 25.6C164.534 24.664 164.198 23.476 164.198 22.036C164.198 20.548 164.618 19.216 165.458 18.04C166.298 16.864 167.462 15.952 168.95 15.304C170.462 14.632 172.154 14.296 174.026 14.296C177.458 14.296 180.254 15.208 182.414 17.032C182.726 17.296 182.942 17.56 183.062 17.824C183.206 18.064 183.278 18.376 183.278 18.76C183.278 19.264 183.122 19.708 182.81 20.092C182.522 20.452 182.174 20.632 181.766 20.632C181.526 20.632 181.298 20.596 181.082 20.524C180.89 20.452 180.626 20.32 180.29 20.128C179.306 19.408 178.346 18.88 177.41 18.544C176.498 18.184 175.37 18.004 174.026 18.004C172.394 18.004 171.098 18.34 170.138 19.012C169.202 19.66 168.734 20.572 168.734 21.748C168.734 22.732 169.154 23.488 169.994 24.016C170.834 24.544 172.262 25.036 174.278 25.492C176.414 25.972 178.142 26.512 179.462 27.112C180.806 27.688 181.826 28.432 182.522 29.344C183.242 30.256 183.602 31.396 183.602 32.764C183.602 34.252 183.182 35.572 182.342 36.724C181.526 37.852 180.362 38.74 178.85 39.388C177.362 40.012 175.646 40.324 173.702 40.324ZM189.711 40.216C189.063 40.216 188.523 40.036 188.091 39.676C187.683 39.292 187.479 38.752 187.479 38.056V24.16C187.479 23.464 187.683 22.936 188.091 22.576C188.523 22.216 189.063 22.036 189.711 22.036C190.359 22.036 190.899 22.216 191.331 22.576C191.763 22.936 191.979 23.464 191.979 24.16V38.056C191.979 38.752 191.763 39.292 191.331 39.676C190.899 40.036 190.359 40.216 189.711 40.216ZM190.611 19.984C190.347 20.176 190.083 20.272 189.819 20.272C189.483 20.272 189.195 20.164 188.955 19.948C188.739 19.708 188.631 19.432 188.631 19.12C188.631 18.856 188.727 18.592 188.919 18.328L192.411 13.684C192.963 12.964 193.599 12.604 194.319 12.604C194.847 12.604 195.291 12.796 195.651 13.18C196.035 13.54 196.227 13.972 196.227 14.476C196.227 15.148 195.903 15.724 195.255 16.204L190.611 19.984ZM211.524 22.036C212.196 22.036 212.736 22.228 213.144 22.612C213.552 22.996 213.756 23.512 213.756 24.16V38.38C213.756 41.14 212.988 43.228 211.452 44.644C209.916 46.06 207.648 46.768 204.648 46.768C202.032 46.768 199.848 46.276 198.096 45.292C197.208 44.764 196.764 44.128 196.764 43.384C196.764 42.856 196.884 42.436 197.124 42.124C197.388 41.812 197.724 41.656 198.132 41.656C198.348 41.656 198.612 41.704 198.924 41.8C199.236 41.92 199.56 42.052 199.896 42.196C200.76 42.556 201.528 42.832 202.2 43.024C202.896 43.216 203.688 43.312 204.576 43.312C207.72 43.312 209.292 41.776 209.292 38.704V36.4C208.764 37.384 207.996 38.152 206.988 38.704C205.98 39.232 204.828 39.496 203.532 39.496C201.996 39.496 200.628 39.136 199.428 38.416C198.252 37.672 197.328 36.64 196.656 35.32C195.984 34 195.648 32.476 195.648 30.748C195.648 29.02 195.972 27.496 196.62 26.176C197.292 24.832 198.228 23.8 199.428 23.08C200.628 22.336 201.996 21.964 203.532 21.964C204.828 21.964 205.98 22.24 206.988 22.792C207.996 23.32 208.764 24.076 209.292 25.06V24.124C209.292 23.5 209.496 22.996 209.904 22.612C210.312 22.228 210.852 22.036 211.524 22.036ZM204.72 36.004C206.16 36.004 207.276 35.536 208.068 34.6C208.884 33.664 209.292 32.38 209.292 30.748C209.292 29.092 208.884 27.796 208.068 26.86C207.276 25.924 206.16 25.456 204.72 25.456C203.304 25.456 202.188 25.924 201.372 26.86C200.556 27.796 200.148 29.092 200.148 30.748C200.148 32.38 200.556 33.664 201.372 34.6C202.188 35.536 203.304 36.004 204.72 36.004ZM232.313 22.036C233.009 22.036 233.561 22.228 233.969 22.612C234.377 22.996 234.581 23.512 234.581 24.16V38.128C234.581 38.752 234.365 39.256 233.933 39.64C233.525 40.024 232.985 40.216 232.313 40.216C231.665 40.216 231.149 40.036 230.765 39.676C230.381 39.316 230.189 38.824 230.189 38.2V37.3C229.637 38.26 228.893 39.004 227.957 39.532C227.021 40.036 225.965 40.288 224.789 40.288C220.469 40.288 218.309 37.864 218.309 33.016V24.16C218.309 23.512 218.513 22.996 218.921 22.612C219.329 22.228 219.869 22.036 220.541 22.036C221.237 22.036 221.789 22.228 222.197 22.612C222.605 22.996 222.809 23.512 222.809 24.16V33.052C222.809 34.3 223.061 35.224 223.565 35.824C224.069 36.424 224.861 36.724 225.941 36.724C227.189 36.724 228.185 36.316 228.929 35.5C229.697 34.66 230.081 33.556 230.081 32.188V24.16C230.081 23.512 230.285 22.996 230.693 22.612C231.101 22.228 231.641 22.036 232.313 22.036ZM253.197 35.176C253.605 35.176 253.929 35.332 254.169 35.644C254.433 35.956 254.565 36.376 254.565 36.904C254.565 37.648 254.121 38.272 253.233 38.776C252.417 39.232 251.493 39.604 250.461 39.892C249.429 40.156 248.445 40.288 247.509 40.288C244.677 40.288 242.433 39.472 240.777 37.84C239.121 36.208 238.293 33.976 238.293 31.144C238.293 29.344 238.653 27.748 239.373 26.356C240.093 24.964 241.101 23.884 242.397 23.116C243.717 22.348 245.205 21.964 246.861 21.964C248.445 21.964 249.825 22.312 251.001 23.008C252.177 23.704 253.089 24.688 253.737 25.96C254.385 27.232 254.709 28.732 254.709 30.46C254.709 31.492 254.253 32.008 253.341 32.008H242.721C242.865 33.664 243.333 34.888 244.125 35.68C244.917 36.448 246.069 36.832 247.581 36.832C248.349 36.832 249.021 36.736 249.597 36.544C250.197 36.352 250.869 36.088 251.613 35.752C252.333 35.368 252.861 35.176 253.197 35.176ZM246.969 25.132C245.745 25.132 244.761 25.516 244.017 26.284C243.297 27.052 242.865 28.156 242.721 29.596H250.857C250.809 28.132 250.449 27.028 249.777 26.284C249.105 25.516 248.169 25.132 246.969 25.132ZM268.614 21.964C270.726 21.964 272.298 22.564 273.33 23.764C274.362 24.964 274.878 26.776 274.878 29.2V38.056C274.878 38.728 274.674 39.256 274.266 39.64C273.882 40.024 273.342 40.216 272.646 40.216C271.95 40.216 271.398 40.024 270.99 39.64C270.582 39.256 270.378 38.728 270.378 38.056V29.452C270.378 28.084 270.114 27.088 269.586 26.464C269.082 25.84 268.278 25.528 267.174 25.528C265.878 25.528 264.834 25.936 264.042 26.752C263.274 27.568 262.89 28.66 262.89 30.028V38.056C262.89 38.728 262.686 39.256 262.278 39.64C261.87 40.024 261.318 40.216 260.622 40.216C259.926 40.216 259.374 40.024 258.966 39.64C258.582 39.256 258.39 38.728 258.39 38.056V24.124C258.39 23.5 258.594 22.996 259.002 22.612C259.41 22.228 259.962 22.036 260.658 22.036C261.282 22.036 261.786 22.228 262.17 22.612C262.578 22.972 262.782 23.452 262.782 24.052V25.024C263.382 24.04 264.186 23.284 265.194 22.756C266.202 22.228 267.342 21.964 268.614 21.964ZM287.476 40.288C285.676 40.288 284.092 39.916 282.724 39.172C281.38 38.428 280.336 37.36 279.592 35.968C278.848 34.576 278.476 32.956 278.476 31.108C278.476 29.26 278.848 27.652 279.592 26.284C280.336 24.892 281.38 23.824 282.724 23.08C284.092 22.336 285.676 21.964 287.476 21.964C289.276 21.964 290.848 22.336 292.192 23.08C293.56 23.824 294.604 24.892 295.324 26.284C296.068 27.652 296.44 29.26 296.44 31.108C296.44 32.956 296.068 34.576 295.324 35.968C294.604 37.36 293.56 38.428 292.192 39.172C290.848 39.916 289.276 40.288 287.476 40.288ZM287.44 36.796C288.904 36.796 290.02 36.316 290.788 35.356C291.556 34.396 291.94 32.98 291.94 31.108C291.94 29.26 291.556 27.856 290.788 26.896C290.02 25.912 288.916 25.42 287.476 25.42C286.036 25.42 284.92 25.912 284.128 26.896C283.36 27.856 282.976 29.26 282.976 31.108C282.976 32.98 283.36 34.396 284.128 35.356C284.896 36.316 286 36.796 287.44 36.796ZM306.527 40.288C303.911 40.288 301.799 39.772 300.191 38.74C299.423 38.284 299.039 37.636 299.039 36.796C299.039 36.316 299.171 35.932 299.435 35.644C299.699 35.332 300.023 35.176 300.407 35.176C300.815 35.176 301.379 35.368 302.099 35.752C302.867 36.112 303.563 36.388 304.187 36.58C304.835 36.772 305.651 36.868 306.635 36.868C307.643 36.868 308.423 36.7 308.975 36.364C309.551 36.028 309.839 35.56 309.839 34.96C309.839 34.552 309.719 34.228 309.479 33.988C309.263 33.748 308.855 33.532 308.255 33.34C307.679 33.124 306.791 32.884 305.591 32.62C303.455 32.188 301.919 31.576 300.983 30.784C300.071 29.992 299.615 28.9 299.615 27.508C299.615 26.452 299.927 25.504 300.551 24.664C301.175 23.8 302.027 23.14 303.107 22.684C304.211 22.204 305.459 21.964 306.851 21.964C307.859 21.964 308.831 22.096 309.767 22.36C310.703 22.6 311.543 22.96 312.287 23.44C313.055 23.92 313.439 24.556 313.439 25.348C313.439 25.828 313.307 26.236 313.043 26.572C312.779 26.884 312.455 27.04 312.071 27.04C311.807 27.04 311.543 26.992 311.279 26.896C311.039 26.776 310.727 26.608 310.343 26.392C309.647 26.032 309.047 25.768 308.543 25.6C308.039 25.408 307.415 25.312 306.671 25.312C305.783 25.312 305.075 25.492 304.547 25.852C304.043 26.212 303.791 26.704 303.791 27.328C303.791 27.928 304.055 28.384 304.583 28.696C305.111 29.008 306.131 29.32 307.643 29.632C309.251 29.968 310.511 30.352 311.423 30.784C312.335 31.216 312.983 31.756 313.367 32.404C313.775 33.052 313.979 33.88 313.979 34.888C313.979 36.52 313.295 37.828 311.927 38.812C310.583 39.796 308.783 40.288 306.527 40.288ZM341.333 35.176C341.741 35.176 342.065 35.332 342.305 35.644C342.569 35.956 342.701 36.376 342.701 36.904C342.701 37.648 342.257 38.272 341.369 38.776C340.553 39.232 339.629 39.604 338.597 39.892C337.565 40.156 336.581 40.288 335.645 40.288C332.813 40.288 330.569 39.472 328.913 37.84C327.257 36.208 326.429 33.976 326.429 31.144C326.429 29.344 326.789 27.748 327.509 26.356C328.229 24.964 329.237 23.884 330.533 23.116C331.853 22.348 333.341 21.964 334.997 21.964C336.581 21.964 337.961 22.312 339.137 23.008C340.313 23.704 341.225 24.688 341.873 25.96C342.521 27.232 342.845 28.732 342.845 30.46C342.845 31.492 342.389 32.008 341.477 32.008H330.857C331.001 33.664 331.469 34.888 332.261 35.68C333.053 36.448 334.205 36.832 335.717 36.832C336.485 36.832 337.157 36.736 337.733 36.544C338.333 36.352 339.005 36.088 339.749 35.752C340.469 35.368 340.997 35.176 341.333 35.176ZM335.105 25.132C333.881 25.132 332.897 25.516 332.153 26.284C331.433 27.052 331.001 28.156 330.857 29.596H338.993C338.945 28.132 338.585 27.028 337.913 26.284C337.241 25.516 336.305 25.132 335.105 25.132ZM356.75 21.964C358.862 21.964 360.434 22.564 361.466 23.764C362.498 24.964 363.014 26.776 363.014 29.2V38.056C363.014 38.728 362.81 39.256 362.402 39.64C362.018 40.024 361.478 40.216 360.782 40.216C360.086 40.216 359.534 40.024 359.126 39.64C358.718 39.256 358.514 38.728 358.514 38.056V29.452C358.514 28.084 358.25 27.088 357.722 26.464C357.218 25.84 356.414 25.528 355.31 25.528C354.014 25.528 352.97 25.936 352.178 26.752C351.41 27.568 351.026 28.66 351.026 30.028V38.056C351.026 38.728 350.822 39.256 350.414 39.64C350.006 40.024 349.454 40.216 348.758 40.216C348.062 40.216 347.51 40.024 347.102 39.64C346.718 39.256 346.526 38.728 346.526 38.056V24.124C346.526 23.5 346.73 22.996 347.138 22.612C347.546 22.228 348.098 22.036 348.794 22.036C349.418 22.036 349.922 22.228 350.306 22.612C350.714 22.972 350.918 23.452 350.918 24.052V25.024C351.518 24.04 352.322 23.284 353.33 22.756C354.338 22.228 355.478 21.964 356.75 21.964ZM171.617 89.216C170.921 89.216 170.357 89 169.925 88.568C169.517 88.136 169.313 87.572 169.313 86.876V65.816C169.313 65.12 169.505 64.58 169.889 64.196C170.297 63.812 170.849 63.62 171.545 63.62H184.181C185.645 63.62 186.377 64.244 186.377 65.492C186.377 66.716 185.645 67.328 184.181 67.328H173.885V74.24H183.461C184.925 74.24 185.657 74.864 185.657 76.112C185.657 77.336 184.925 77.948 183.461 77.948H173.885V86.876C173.885 87.572 173.681 88.136 173.273 88.568C172.865 89 172.313 89.216 171.617 89.216ZM210.633 86.228C210.777 86.54 210.849 86.852 210.849 87.164C210.849 87.716 210.621 88.184 210.165 88.568C209.733 88.952 209.229 89.144 208.653 89.144C208.269 89.144 207.909 89.048 207.573 88.856C207.237 88.64 206.973 88.316 206.781 87.884L204.621 83.06H191.949L189.789 87.884C189.597 88.316 189.333 88.64 188.997 88.856C188.661 89.048 188.289 89.144 187.881 89.144C187.329 89.144 186.825 88.952 186.369 88.568C185.913 88.184 185.685 87.716 185.685 87.164C185.685 86.852 185.757 86.54 185.901 86.228L195.837 64.88C196.053 64.4 196.377 64.04 196.809 63.8C197.265 63.536 197.745 63.404 198.249 63.404C198.753 63.404 199.221 63.536 199.653 63.8C200.109 64.04 200.445 64.4 200.661 64.88L210.633 86.228ZM193.533 79.46H203.037L198.285 68.768L193.533 79.46ZM224.88 89.324C222.432 89.324 220.284 88.796 218.436 87.74C216.612 86.684 215.208 85.172 214.224 83.204C213.24 81.236 212.748 78.932 212.748 76.292C212.748 73.652 213.24 71.36 214.224 69.416C215.208 67.448 216.612 65.936 218.436 64.88C220.284 63.824 222.432 63.296 224.88 63.296C226.464 63.296 227.952 63.536 229.344 64.016C230.736 64.472 231.972 65.144 233.052 66.032C233.364 66.272 233.58 66.524 233.7 66.788C233.82 67.052 233.88 67.376 233.88 67.76C233.88 68.288 233.736 68.732 233.448 69.092C233.16 69.452 232.812 69.632 232.404 69.632C231.924 69.632 231.432 69.464 230.928 69.128C229.896 68.36 228.936 67.832 228.048 67.544C227.16 67.232 226.176 67.076 225.096 67.076C222.6 67.076 220.704 67.856 219.408 69.416C218.136 70.976 217.5 73.268 217.5 76.292C217.5 79.34 218.136 81.644 219.408 83.204C220.704 84.764 222.6 85.544 225.096 85.544C226.128 85.544 227.076 85.388 227.94 85.076C228.828 84.764 229.824 84.236 230.928 83.492C231.168 83.348 231.408 83.228 231.648 83.132C231.888 83.036 232.14 82.988 232.404 82.988C232.812 82.988 233.16 83.168 233.448 83.528C233.736 83.888 233.88 84.332 233.88 84.86C233.88 85.22 233.82 85.544 233.7 85.832C233.58 86.096 233.364 86.348 233.052 86.588C231.972 87.476 230.736 88.16 229.344 88.64C227.952 89.096 226.464 89.324 224.88 89.324ZM240.17 89C239.474 89 238.922 88.808 238.514 88.424C238.13 88.04 237.938 87.5 237.938 86.804V65.816C237.938 65.12 238.13 64.58 238.514 64.196C238.922 63.812 239.474 63.62 240.17 63.62H253.166C253.862 63.62 254.402 63.776 254.786 64.088C255.17 64.4 255.362 64.844 255.362 65.42C255.362 66.02 255.17 66.488 254.786 66.824C254.402 67.136 253.862 67.292 253.166 67.292H242.474V74.276H252.446C253.142 74.276 253.682 74.432 254.066 74.744C254.45 75.056 254.642 75.512 254.642 76.112C254.642 76.688 254.45 77.132 254.066 77.444C253.682 77.756 253.142 77.912 252.446 77.912H242.474V85.328H253.166C253.862 85.328 254.402 85.496 254.786 85.832C255.17 86.144 255.362 86.6 255.362 87.2C255.362 87.776 255.17 88.22 254.786 88.532C254.402 88.844 253.862 89 253.166 89H240.17ZM274.761 75.896C276.225 76.304 277.353 77.048 278.145 78.128C278.961 79.208 279.369 80.528 279.369 82.088C279.369 84.248 278.589 85.94 277.029 87.164C275.493 88.388 273.369 89 270.657 89H261.369C260.673 89 260.121 88.808 259.713 88.424C259.329 88.04 259.137 87.5 259.137 86.804V65.816C259.137 65.12 259.329 64.58 259.713 64.196C260.121 63.812 260.673 63.62 261.369 63.62H270.297C272.937 63.62 275.001 64.208 276.489 65.384C278.001 66.536 278.757 68.156 278.757 70.244C278.757 71.588 278.397 72.752 277.677 73.736C276.981 74.72 276.009 75.44 274.761 75.896ZM263.673 74.312H269.541C272.733 74.312 274.329 73.124 274.329 70.748C274.329 69.548 273.933 68.66 273.141 68.084C272.349 67.508 271.149 67.22 269.541 67.22H263.673V74.312ZM270.153 85.4C271.833 85.4 273.057 85.1 273.825 84.5C274.593 83.9 274.977 82.964 274.977 81.692C274.977 80.42 274.581 79.472 273.789 78.848C273.021 78.224 271.809 77.912 270.153 77.912H263.673V85.4H270.153ZM295.015 89.324C292.543 89.324 290.395 88.796 288.571 87.74C286.771 86.684 285.379 85.172 284.395 83.204C283.411 81.236 282.919 78.932 282.919 76.292C282.919 73.652 283.399 71.36 284.359 69.416C285.343 67.448 286.747 65.936 288.571 64.88C290.395 63.824 292.543 63.296 295.015 63.296C297.487 63.296 299.623 63.824 301.423 64.88C303.247 65.936 304.639 67.448 305.599 69.416C306.583 71.36 307.075 73.652 307.075 76.292C307.075 78.932 306.583 81.236 305.599 83.204C304.615 85.172 303.211 86.684 301.387 87.74C299.587 88.796 297.463 89.324 295.015 89.324ZM295.015 85.616C297.343 85.616 299.155 84.812 300.451 83.204C301.771 81.596 302.431 79.292 302.431 76.292C302.431 73.292 301.771 71 300.451 69.416C299.155 67.808 297.343 67.004 295.015 67.004C292.663 67.004 290.827 67.808 289.507 69.416C288.211 71 287.563 73.292 287.563 76.292C287.563 79.292 288.211 81.596 289.507 83.204C290.827 84.812 292.663 85.616 295.015 85.616ZM323.07 89.324C320.598 89.324 318.45 88.796 316.626 87.74C314.826 86.684 313.434 85.172 312.45 83.204C311.466 81.236 310.974 78.932 310.974 76.292C310.974 73.652 311.454 71.36 312.414 69.416C313.398 67.448 314.802 65.936 316.626 64.88C318.45 63.824 320.598 63.296 323.07 63.296C325.542 63.296 327.678 63.824 329.478 64.88C331.302 65.936 332.694 67.448 333.654 69.416C334.638 71.36 335.13 73.652 335.13 76.292C335.13 78.932 334.638 81.236 333.654 83.204C332.67 85.172 331.266 86.684 329.442 87.74C327.642 88.796 325.518 89.324 323.07 89.324ZM323.07 85.616C325.398 85.616 327.21 84.812 328.506 83.204C329.826 81.596 330.486 79.292 330.486 76.292C330.486 73.292 329.826 71 328.506 69.416C327.21 67.808 325.398 67.004 323.07 67.004C320.718 67.004 318.882 67.808 317.562 69.416C316.266 71 315.618 73.292 315.618 76.292C315.618 79.292 316.266 81.596 317.562 83.204C318.882 84.812 320.718 85.616 323.07 85.616ZM359.513 85.508C359.993 85.964 360.233 86.48 360.233 87.056C360.233 87.608 360.017 88.1 359.585 88.532C359.177 88.94 358.685 89.144 358.109 89.144C357.509 89.144 356.957 88.892 356.453 88.388L344.465 77.156V86.876C344.465 87.572 344.249 88.136 343.817 88.568C343.409 89 342.845 89.216 342.125 89.216C341.429 89.216 340.865 89 340.433 88.568C340.025 88.136 339.821 87.572 339.821 86.876V65.744C339.821 65.048 340.025 64.496 340.433 64.088C340.865 63.656 341.429 63.44 342.125 63.44C342.845 63.44 343.409 63.656 343.817 64.088C344.249 64.496 344.465 65.048 344.465 65.744V74.996L356.057 64.124C356.489 63.692 356.981 63.476 357.533 63.476C358.085 63.476 358.565 63.692 358.973 64.124C359.405 64.532 359.621 65.012 359.621 65.564C359.621 66.116 359.381 66.62 358.901 67.076L349.217 75.932L359.513 85.508Z" fill="#992211"/>
</g>
<defs>
<clipPath id="clip0">
<rect width="458" height="300" fill="white"/>
</clipPath>
</defs>
</svg>
