<svg width="50" height="50" viewBox="0 0 56 56" fill="none" xmlns="http://www.w3.org/2000/svg">
<path d="M50.2912 9.33328C50.0792 9.31143 49.8655 9.31143 49.6534 9.33328H6.09788C5.81873 9.33758 5.54142 9.37944 5.27344 9.45773L27.7512 31.8422L50.2912 9.33328Z" fill="black"/>
<path d="M52.5936 11.4951L29.9447 34.0507C29.3618 34.6301 28.5732 34.9554 27.7513 34.9554C26.9294 34.9554 26.1409 34.6301 25.558 34.0507L3.11133 11.6662C3.04232 11.9198 3.00574 12.1812 3.00244 12.444V43.5551C3.00244 44.3802 3.33022 45.1716 3.91366 45.755C4.49711 46.3385 5.28843 46.6662 6.11355 46.6662H49.6691C50.4942 46.6662 51.2855 46.3385 51.869 45.755C52.4524 45.1716 52.7802 44.3802 52.7802 43.5551V12.444C52.7678 12.1199 52.7049 11.7998 52.5936 11.4951ZM8.24466 43.5551H6.08244V41.3307L17.3913 30.1151L19.5847 32.3085L8.24466 43.5551ZM49.638 43.5551H47.4602L36.1202 32.3085L38.3135 30.1151L49.6224 41.3307L49.638 43.5551Z" fill="black"/>
</svg>
