<svg width="34" height="45" viewBox="0 0 40 51" fill="none" xmlns="http://www.w3.org/2000/svg">
<path d="M20 0.123047C25.3043 0.123047 30.3914 2.37693 34.1421 6.38888C37.8929 10.4008 40 15.8422 40 21.5159C40 30.3726 33.6889 39.6524 21.3333 49.5644C20.9487 49.873 20.4808 50.0398 20 50.0398C19.5192 50.0398 19.0513 49.873 18.6667 49.5644C6.31111 39.6524 0 30.3726 0 21.5159C0 15.8422 2.10714 10.4008 5.85786 6.38888C9.60859 2.37693 14.6957 0.123047 20 0.123047ZM20 14.385C18.2319 14.385 16.5362 15.1363 15.286 16.4736C14.0357 17.8109 13.3333 19.6247 13.3333 21.5159C13.3333 23.4072 14.0357 25.221 15.286 26.5583C16.5362 27.8956 18.2319 28.6469 20 28.6469C21.7681 28.6469 23.4638 27.8956 24.714 26.5583C25.9643 25.221 26.6667 23.4072 26.6667 21.5159C26.6667 19.6247 25.9643 17.8109 24.714 16.4736C23.4638 15.1363 21.7681 14.385 20 14.385Z" fill="black"/>
</svg>
